{
.appVersion = "1181";
copyright = "Copyright 2014 - 2017 Adobe Systems Incorporated (http://www.adobe.com/), with Reserved Font Name 'Source'. Copyright 2019 Google LLC.";
customParameters = (
{
name = trademark;
value = "Source is a trademark of Adobe Systems Incorporated in the United States and/or other countries.";
},
{
name = "Family Alignment Zones";
value = (
"{729, 20}",
"{669, 15}",
"{646, 13}",
"{549, 14}",
"{527, 13}",
"{475, 13}",
"{0, -15}",
"{-239, -10}"
);
},
{
name = Axes;
value = (
{
Name = Weight;
Tag = wght;
},
{
Name = Contrast;
Tag = CONT;
},
{
Name = Serif;
Tag = SERF;
}
);
},
{
name = "Virtual Master";
value = (
{
Axis = Weight;
Location = "150";
},
{
Axis = Contrast;
Location = "100";
},
{
Axis = Serif;
Location = "100";
}
);
},
{
name = "Enforce Compatibility Check";
value = 1;
},
{
name = vendorID;
value = GOOG;
},
{
name = fsType;
value = (
);
},
{
name = license;
value = "This Font Software is licensed under the SIL Open Font License, Version 1.1. This license is available with a FAQ at: http://scripts.sil.org/OFL";
},
{
name = licenseURL;
value = "http://scripts.sil.org/OFL";
}
);
date = "2019-06-03 20:57:19 +0000";
designer = "Frank Grießhammer / Modifications: Colophon Foundry";
designerURL = "http://www.adobe.com/type";
familyName = "DeepMind Serif Text";
featurePrefixes = (
{
automatic = 1;
code = "languagesystem DFLT dflt;\012languagesystem latn dflt;\012languagesystem latn ROM;\012languagesystem latn MOL;\012languagesystem latn CAT;\012";
name = Languagesystems;
}
);
features = (
{
automatic = 1;
code = "feature locl;\012feature sups;\012feature frac;\012feature ordn;\012";
name = aalt;
},
{
automatic = 1;

glyphs = (
{
color = 4;
glyphname = A;
lastChange = "2019-06-06 17:04:15 +0000";
layers = (
{
anchors = (
{
name = aboveUC;
position = "{414, 687}";
},
{
name = belowLC;
position = "{254, -22}";
},
{
name = ogonek;
position = "{513, 0}";
}
);
associatedMasterId = "04BF5C93-05E4-4DB8-B59C-EE59F3489DF8";
layerId = "70023048-75D4-4F59-8BF9-49EEC6A33CD1";
paths = (
{
closed = 1;
nodes = (
"145 0 LINE",
"149 21 LINE",
"123 29 LINE SMOOTH",
"101 35 OFFCURVE",
"94 52 OFFCURVE",
"104 74 CURVE SMOOTH",
"351 551 LINE",
"419 75 LINE SMOOTH",
"422 49 OFFCURVE",
"411 34 OFFCURVE",
"388 27 CURVE SMOOTH",
"369 21 LINE",
"365 0 LINE",
"609 0 LINE",
"614 21 LINE",
"590 29 LINE SMOOTH",
"565 37 OFFCURVE",
"552 53 OFFCURVE",
"548 78 CURVE SMOOTH",
"457 661 LINE",
"377 661 LINE",
"72 76 LINE SMOOTH",
"58 50 OFFCURVE",
"41 36 OFFCURVE",
"13 29 CURVE SMOOTH",
"-17 21 LINE",
"-22 0 LINE"
);
},
{
closed = 1;
nodes = (
"461 226 LINE",
"461 255 LINE",
"181 255 LINE",
"171 226 LINE"
);
}
);
width = 653.87658;
},
{
anchors = (
{
name = aboveUC;
position = "{414, 687}";
},
{
name = belowLC;
position = "{254, -22}";
},
{
name = ogonek;
position = "{513, 0}";
}
);
layerId = "04BF5C93-05E4-4DB8-B59C-EE59F3489DF8";
paths = (
{
closed = 1;
nodes = (
"145 0 LINE",
"149 21 LINE",
"123 29 LINE SMOOTH",
"101 35 OFFCURVE",
"94 52 OFFCURVE",
"104 74 CURVE SMOOTH",
"351 551 LINE",
"419 75 LINE SMOOTH",
"422 49 OFFCURVE",
"411 34 OFFCURVE",
"388 27 CURVE SMOOTH",
"369 21 LINE",
"365 0 LINE",
"609 0 LINE",
"614 21 LINE",
"590 29 LINE SMOOTH",
"565 37 OFFCURVE",
"552 53 OFFCURVE",
"548 78 CURVE SMOOTH",
"457 661 LINE",
"377 661 LINE",
"72 76 LINE SMOOTH",
"58 50 OFFCURVE",
"41 36 OFFCURVE",
"13 29 CURVE SMOOTH",
"-17 21 LINE",
"-22 0 LINE"
);
},
{
closed = 1;
nodes = (
"461 226 LINE",
"461 255 LINE",
"181 255 LINE",
"171 226 LINE"
);
}
);
width = 653.87658;
}
);
leftKerningGroup = LAT_A;
rightKerningGroup = LAT_A;
unicode = 0041;
},
{
color = 4;
glyphname = AE;
lastChange = "2019-06-06 17:04:15 +0000";
layers = (
{
anchors = (
{
name = aboveUC;
position = "{647, 687}";
}
);
associatedMasterId = "04BF5C93-05E4-4DB8-B59C-EE59F3489DF8";
layerId = "70023048-75D4-4F59-8BF9-49EEC6A33CD1";
paths = (
{
closed = 1;
nodes = (
"130 0 LINE",
"135 21 LINE",
"122 26 LINE SMOOTH",
"98 35 OFFCURVE",
"92 53 OFFCURVE",
"106 74 CURVE SMOOTH",
"215 234 LINE",
"417 234 LINE",
"387 72 LINE SMOOTH",
"383 47 OFFCURVE",
"369 33 OFFCURVE",
"345 26 CURVE SMOOTH",
"327 21 LINE",
"323 0 LINE",
"807 0 LINE",
"846 174 LINE",
"820 174 LINE",
"758 81 LINE SMOOTH",
"735 45 OFFCURVE",
"706 30 OFFCURVE",
"664 30 CURVE SMOOTH",
"511 30 LINE",
"525 115 OFFCURVE",
"546 233 OFFCURVE",
"563 325 CURVE",
"648 325 LINE SMOOTH",
"679 325 OFFCURVE",
"698 311 OFFCURVE",
"706 282 CURVE SMOOTH",
"717 244 LINE",
"738 244 LINE",
"774 437 LINE",
"753 437 LINE",
"721 389 LINE SMOOTH",
"705 365 OFFCURVE",
"685 354 OFFCURVE",
"656 354 CURVE SMOOTH",
"569 354 LINE",
"622 631 LINE",
"747 631 LINE SMOOTH",
"788 631 OFFCURVE",
"812 612 OFFCURVE",
"821 572 CURVE SMOOTH",
"839 487 LINE",
"865 487 LINE",
"890 661 LINE",
"387 661 LINE",
"383 640 LINE",
"400 635 LINE SMOOTH",
"426 627 OFFCURVE",
"433 607 OFFCURVE",
"417 584 CURVE SMOOTH",
"73 80 LINE SMOOTH",
"54 51 OFFCURVE",
"32 36 OFFCURVE",
"-1 26 CURVE SMOOTH",
"-18 21 LINE",
"-22 0 LINE"
);
},
{
closed = 1;
nodes = (
"480 622 LINE",
"487 622 LINE",
"474 540 OFFCURVE",
"455 433 OFFCURVE",
"439 351 CURVE SMOOTH",
"423 263 LINE",
"236 263 LINE"
);
}
);
width = 876.28216;
},
{
anchors = (
{
name = aboveUC;
position = "{647, 687}";
}
);
layerId = "04BF5C93-05E4-4DB8-B59C-EE59F3489DF8";
paths = (
{
closed = 1;
nodes = (
"130 0 LINE",
"135 21 LINE",
"122 26 LINE SMOOTH",
"98 35 OFFCURVE",
"92 53 OFFCURVE",
"106 74 CURVE SMOOTH",
"215 234 LINE",
"417 234 LINE",
"387 72 LINE SMOOTH",
"383 47 OFFCURVE",
"369 33 OFFCURVE",
"345 26 CURVE SMOOTH",
"327 21 LINE",
"323 0 LINE",
"807 0 LINE",
"846 174 LINE",
"820 174 LINE",
"758 81 LINE SMOOTH",
"735 45 OFFCURVE",
"706 30 OFFCURVE",
"664 30 CURVE SMOOTH",
"511 30 LINE",
"525 115 OFFCURVE",
"546 233 OFFCURVE",
"563 325 CURVE",
"648 325 LINE SMOOTH",
"679 325 OFFCURVE",
"698 311 OFFCURVE",
"706 282 CURVE SMOOTH",
"717 244 LINE",
"738 244 LINE",
"774 437 LINE",
"753 437 LINE",
"721 389 LINE SMOOTH",
"705 365 OFFCURVE",
"685 354 OFFCURVE",
"656 354 CURVE SMOOTH",
"569 354 LINE",
"622 631 LINE",
"747 631 LINE SMOOTH",
"788 631 OFFCURVE",
"812 612 OFFCURVE",
"821 572 CURVE SMOOTH",
"839 487 LINE",
"865 487 LINE",
"890 661 LINE",
"387 661 LINE",
"383 640 LINE",
"400 635 LINE SMOOTH",
"426 627 OFFCURVE",
"433 607 OFFCURVE",
"417 584 CURVE SMOOTH",
"73 80 LINE SMOOTH",
"54 51 OFFCURVE",
"32 36 OFFCURVE",
"-1 26 CURVE SMOOTH",
"-18 21 LINE",
"-22 0 LINE"
);
},
{
closed = 1;
nodes = (
"480 622 LINE",
"487 622 LINE",
"474 540 OFFCURVE",
"455 433 OFFCURVE",
"439 351 CURVE SMOOTH",
"423 263 LINE",
"236 263 LINE"
);
}
);
width = 876.28216;
}
);
leftMetricsKey = A;
rightKerningGroup = LAT_E;
rightMetricsKey = E;
unicode = 00C6;
},
{
color = 4;
glyphname = B;
lastChange = "2019-06-06 17:04:15 +0000";
layers = (
{
anchors = (
{
name = aboveUC;
position = "{342, 687}";
},
{
name = belowLC;
position = "{261, -22}";
}
);
associatedMasterId = "04BF5C93-05E4-4DB8-B59C-EE59F3489DF8";
layerId = "70023048-75D4-4F59-8BF9-49EEC6A33CD1";
paths = (
{
closed = 1;
nodes = (
"275 0 LINE SMOOTH",
"476 0 OFFCURVE",
"562 86 OFFCURVE",
"562 184 CURVE SMOOTH",
"562 262 OFFCURVE",
"506 332 OFFCURVE",
"375 350 CURVE",
"506 366 OFFCURVE",
"572 436 OFFCURVE",
"572 512 CURVE SMOOTH",
"572 591 OFFCURVE",
"516 661 OFFCURVE",
"361 661 CURVE SMOOTH",
"123 661 LINE",
"118 640 LINE",
"128 636 LINE SMOOTH",
"155 626 OFFCURVE",
"166 608 OFFCURVE",
"161 579 CURVE SMOOTH",
"148 504 OFFCURVE",
"134 424 OFFCURVE",
"120 351 CURVE SMOOTH",
"68 81 LINE SMOOTH",
"63 54 OFFCURVE",
"50 38 OFFCURVE",
"25 28 CURVE SMOOTH",
"8 21 LINE",
"4 0 LINE"
);
},
{
closed = 1;
nodes = (
"207 123 OFFCURVE",
"225 217 OFFCURVE",
"241 310 CURVE SMOOTH",
"246 334 LINE",
"296 334 LINE SMOOTH",
"384 334 OFFCURVE",
"430 290 OFFCURVE",
"430 201 CURVE SMOOTH",
"430 100 OFFCURVE",
"372 29 OFFCURVE",
"254 29 CURVE SMOOTH",
"192 29 LINE"
);
},
{
closed = 1;
nodes = (
"302 632 LINE",
"336 632 LINE SMOOTH",
"407 632 OFFCURVE",
"444 588 OFFCURVE",
"444 512 CURVE SMOOTH",
"444 417 OFFCURVE",
"392 362 OFFCURVE",
"289 362 CURVE SMOOTH",
"251 362 LINE"
);
}
);
width = 601.44462;
},
{
anchors = (
{
name = aboveUC;
position = "{342, 687}";
},
{
name = belowLC;
position = "{261, -22}";
}
);
layerId = "04BF5C93-05E4-4DB8-B59C-EE59F3489DF8";
paths = (
{
closed = 1;
nodes = (
"275 0 LINE SMOOTH",
"476 0 OFFCURVE",
"562 86 OFFCURVE",
"562 184 CURVE SMOOTH",
"562 262 OFFCURVE",
"506 332 OFFCURVE",
"375 350 CURVE",
"506 366 OFFCURVE",
"572 436 OFFCURVE",
"572 512 CURVE SMOOTH",
"572 591 OFFCURVE",
"516 661 OFFCURVE",
"361 661 CURVE SMOOTH",
"123 661 LINE",
"118 640 LINE",
"128 636 LINE SMOOTH",
"155 626 OFFCURVE",
"166 608 OFFCURVE",
"161 579 CURVE SMOOTH",
"148 504 OFFCURVE",
"134 424 OFFCURVE",
"120 351 CURVE SMOOTH",
"68 81 LINE SMOOTH",
"63 54 OFFCURVE",
"50 38 OFFCURVE",
"25 28 CURVE SMOOTH",
"8 21 LINE",
"4 0 LINE"
);
},
{
closed = 1;
nodes = (
"207 123 OFFCURVE",
"225 217 OFFCURVE",
"241 310 CURVE SMOOTH",
"246 334 LINE",
"296 334 LINE SMOOTH",
"384 334 OFFCURVE",
"430 290 OFFCURVE",
"430 201 CURVE SMOOTH",
"430 100 OFFCURVE",
"372 29 OFFCURVE",
"254 29 CURVE SMOOTH",
"192 29 LINE"
);
},
{
closed = 1;
nodes = (
"302 632 LINE",
"336 632 LINE SMOOTH",
"407 632 OFFCURVE",
"444 588 OFFCURVE",
"444 512 CURVE SMOOTH",
"444 417 OFFCURVE",
"392 362 OFFCURVE",
"289 362 CURVE SMOOTH",
"251 362 LINE"
);
}
);
width = 601.44462;
}
);
leftKerningGroup = LAT_E;
unicode = 0042;
},
{
color = 4;
glyphname = C;
lastChange = "2019-06-06 17:04:15 +0000";
layers = (
{
anchors = (
{
name = aboveUC;
position = "{434, 687}";
},
{
name = baseLC;
position = "{344, 0}";
},
{
name = belowLC;
position = "{329, -22}";
}
);
associatedMasterId = "04BF5C93-05E4-4DB8-B59C-EE59F3489DF8";
layerId = "70023048-75D4-4F59-8BF9-49EEC6A33CD1";
paths = (
{
closed = 1;
nodes = (
"436 -17 OFFCURVE",
"490 3 OFFCURVE",
"543 30 CURVE",
"567 182 LINE",
"540 182 LINE",
"476 70 LINE SMOOTH",
"453 31 OFFCURVE",
"427 12 OFFCURVE",
"376 12 CURVE SMOOTH",
"255 12 OFFCURVE",
"186 113 OFFCURVE",
"186 274 CURVE SMOOTH",
"186 495 OFFCURVE",
"290 649 OFFCURVE",
"445 649 CURVE SMOOTH",
"503 649 OFFCURVE",
"536 631 OFFCURVE",
"550 575 CURVE SMOOTH",
"575 478 LINE",
"602 478 LINE",
"626 631 LINE",
"563 666 OFFCURVE",
"505 679 OFFCURVE",
"439 679 CURVE SMOOTH",
"213 679 OFFCURVE",
"50 498 OFFCURVE",
"50 276 CURVE SMOOTH",
"50 90 OFFCURVE",
"167 -17 OFFCURVE",
"350 -17 CURVE SMOOTH"
);
}
);
width = 598.98101;
},
{
anchors = (
{
name = aboveUC;
position = "{434, 687}";
},
{
name = baseLC;
position = "{344, 0}";
},
{
name = belowLC;
position = "{329, -22}";
}
);
layerId = "04BF5C93-05E4-4DB8-B59C-EE59F3489DF8";
paths = (
{
closed = 1;
nodes = (
"436 -17 OFFCURVE",
"490 3 OFFCURVE",
"543 30 CURVE",
"567 182 LINE",
"540 182 LINE",
"476 70 LINE SMOOTH",
"453 31 OFFCURVE",
"427 12 OFFCURVE",
"376 12 CURVE SMOOTH",
"255 12 OFFCURVE",
"186 113 OFFCURVE",
"186 274 CURVE SMOOTH",
"186 495 OFFCURVE",
"290 649 OFFCURVE",
"445 649 CURVE SMOOTH",
"503 649 OFFCURVE",
"536 631 OFFCURVE",
"550 575 CURVE SMOOTH",
"575 478 LINE",
"602 478 LINE",
"626 631 LINE",
"563 666 OFFCURVE",
"505 679 OFFCURVE",
"439 679 CURVE SMOOTH",
"213 679 OFFCURVE",
"50 498 OFFCURVE",
"50 276 CURVE SMOOTH",
"50 90 OFFCURVE",
"167 -17 OFFCURVE",
"350 -17 CURVE SMOOTH"
);
}
);
width = 598.98101;
}
);
leftKerningGroup = LAT_O;
rightKerningGroup = LAT_C;
unicode = 0043;
},
{
color = 4;
glyphname = D;
lastChange = "2019-06-06 17:04:15 +0000";
layers = (
{
anchors = (
{
name = aboveUC;
position = "{372, 687}";
},
{
name = belowLC;
position = "{257.997, -22}";
}
);
associatedMasterId = "04BF5C93-05E4-4DB8-B59C-EE59F3489DF8";
layerId = "70023048-75D4-4F59-8BF9-49EEC6A33CD1";
paths = (
{
closed = 1;
nodes = (
"258 0 LINE SMOOTH",
"475 0 OFFCURVE",
"658 140 OFFCURVE",
"659 383 CURVE SMOOTH",
"659 545 OFFCURVE",
"552 661 OFFCURVE",
"352 661 CURVE SMOOTH",
"123 661 LINE",
"118 640 LINE",
"130 635 LINE SMOOTH",
"156 625 OFFCURVE",
"165 607 OFFCURVE",
"161 581 CURVE SMOOTH",
"148 506 OFFCURVE",
"133 422 OFFCURVE",
"120 351 CURVE SMOOTH",
"69 80 LINE SMOOTH",
"64 52 OFFCURVE",
"49 36 OFFCURVE",
"22 26 CURVE",
"8 21 LINE",
"4 0 LINE"
);
},
{
closed = 1;
nodes = (
"206 123 OFFCURVE",
"224 217 OFFCURVE",
"241 310 CURVE SMOOTH",
"302 632 LINE",
"334 632 LINE",
"455 627 OFFCURVE",
"521 549 OFFCURVE",
"521 391 CURVE SMOOTH",
"520 189 OFFCURVE",
"422 29 OFFCURVE",
"250 29 CURVE SMOOTH",
"191 29 LINE"
);
}
);
width = 662.99367;
},
{
anchors = (
{
name = aboveUC;
position = "{372, 687}";
},
{
name = belowLC;
position = "{257.997, -22}";
}
);
layerId = "04BF5C93-05E4-4DB8-B59C-EE59F3489DF8";
paths = (
{
closed = 1;
nodes = (
"258 0 LINE SMOOTH",
"475 0 OFFCURVE",
"658 140 OFFCURVE",
"659 383 CURVE SMOOTH",
"659 545 OFFCURVE",
"552 661 OFFCURVE",
"352 661 CURVE SMOOTH",
"123 661 LINE",
"118 640 LINE",
"130 635 LINE SMOOTH",
"156 625 OFFCURVE",
"165 607 OFFCURVE",
"161 581 CURVE SMOOTH",
"148 506 OFFCURVE",
"133 422 OFFCURVE",
"120 351 CURVE SMOOTH",
"69 80 LINE SMOOTH",
"64 52 OFFCURVE",
"49 36 OFFCURVE",
"22 26 CURVE",
"8 21 LINE",
"4 0 LINE"
);
},
{
closed = 1;
nodes = (
"206 123 OFFCURVE",
"224 217 OFFCURVE",
"241 310 CURVE SMOOTH",
"302 632 LINE",
"334 632 LINE",
"455 627 OFFCURVE",
"521 549 OFFCURVE",
"521 391 CURVE SMOOTH",
"520 189 OFFCURVE",
"422 29 OFFCURVE",
"250 29 CURVE SMOOTH",
"191 29 LINE"
);
}
);
width = 662.99367;
}
);
leftKerningGroup = LAT_E;
rightKerningGroup = LAT_D;
unicode = 0044;
},
{
color = 4;
glyphname = Eth;
lastChange = "2019-06-06 17:04:15 +0000";
layers = (
{
associatedMasterId = "04BF5C93-05E4-4DB8-B59C-EE59F3489DF8";
components = (
{
alignment = -1;
name = D;
}
);
layerId = "70023048-75D4-4F59-8BF9-49EEC6A33CD1";
paths = (
{
closed = 1;
nodes = (
"407 321 LINE",
"413 356 LINE",
"58 356 LINE",
"52 321 LINE"
);
}
);
width = 662.99367;
},
{
components = (
{
alignment = -1;
name = D;
}
);
layerId = "04BF5C93-05E4-4DB8-B59C-EE59F3489DF8";
paths = (
{
closed = 1;
nodes = (
"407 321 LINE",
"413 356 LINE",
"58 356 LINE",
"52 321 LINE"
);
}
);
width = 662.99367;
}
);
leftKerningGroup = LAT_E;
rightKerningGroup = LAT_D;
rightMetricsKey = D;
unicode = 00D0;
},
{
color = 4;
glyphname = E;
lastChange = "2019-06-06 17:04:15 +0000";
layers = (
{
anchors = (
{
name = aboveUC;
position = "{359, 687}";
},
{
name = belowLC;
position = "{261, -22}";
},
{
name = ogonek;
position = "{395, 0}";
}
);
associatedMasterId = "04BF5C93-05E4-4DB8-B59C-EE59F3489DF8";
layerId = "70023048-75D4-4F59-8BF9-49EEC6A33CD1";
paths = (
{
closed = 1;
nodes = (
"487 0 LINE",
"527 174 LINE",
"501 174 LINE",
"441 83 LINE SMOOTH",
"415 44 OFFCURVE",
"388 30 OFFCURVE",
"347 30 CURVE SMOOTH",
"192 30 LINE",
"207 127 OFFCURVE",
"226 231 OFFCURVE",
"244 325 CURVE",
"329 325 LINE SMOOTH",
"359 325 OFFCURVE",
"378 311 OFFCURVE",
"387 281 CURVE SMOOTH",
"398 244 LINE",
"419 244 LINE",
"455 437 LINE",
"434 437 LINE",
"403 391 LINE SMOOTH",
"386 366 OFFCURVE",
"365 354 OFFCURVE",
"335 354 CURVE SMOOTH",
"250 354 LINE",
"302 631 LINE",
"425 631 LINE SMOOTH",
"471 631 OFFCURVE",
"493 612 OFFCURVE",
"502 569 CURVE SMOOTH",
"520 487 LINE",
"546 487 LINE",
"571 661 LINE",
"123 661 LINE",
"118 640 LINE",
"128 637 LINE",
"154 628 OFFCURVE",
"166 610 OFFCURVE",
"161 582 CURVE SMOOTH",
"148 507 OFFCURVE",
"133 421 OFFCURVE",
"120 351 CURVE SMOOTH",
"68 74 LINE SMOOTH",
"63 49 OFFCURVE",
"49 33 OFFCURVE",
"25 26 CURVE",
"8 21 LINE",
"4 0 LINE"
);
}
);
width = 556.96835;
},
{
anchors = (
{
name = aboveUC;
position = "{359, 687}";
},
{
name = belowLC;
position = "{261, -22}";
},
{
name = ogonek;
position = "{395, 0}";
}
);
layerId = "04BF5C93-05E4-4DB8-B59C-EE59F3489DF8";
paths = (
{
closed = 1;
nodes = (
"487 0 LINE",
"527 174 LINE",
"501 174 LINE",
"441 83 LINE SMOOTH",
"415 44 OFFCURVE",
"388 30 OFFCURVE",
"347 30 CURVE SMOOTH",
"192 30 LINE",
"207 127 OFFCURVE",
"226 231 OFFCURVE",
"244 325 CURVE",
"329 325 LINE SMOOTH",
"359 325 OFFCURVE",
"378 311 OFFCURVE",
"387 281 CURVE SMOOTH",
"398 244 LINE",
"419 244 LINE",
"455 437 LINE",
"434 437 LINE",
"403 391 LINE SMOOTH",
"386 366 OFFCURVE",
"365 354 OFFCURVE",
"335 354 CURVE SMOOTH",
"250 354 LINE",
"302 631 LINE",
"425 631 LINE SMOOTH",
"471 631 OFFCURVE",
"493 612 OFFCURVE",
"502 569 CURVE SMOOTH",
"520 487 LINE",
"546 487 LINE",
"571 661 LINE",
"123 661 LINE",
"118 640 LINE",
"128 637 LINE",
"154 628 OFFCURVE",
"166 610 OFFCURVE",
"161 582 CURVE SMOOTH",
"148 507 OFFCURVE",
"133 421 OFFCURVE",
"120 351 CURVE SMOOTH",
"68 74 LINE SMOOTH",
"63 49 OFFCURVE",
"49 33 OFFCURVE",
"25 26 CURVE",
"8 21 LINE",
"4 0 LINE"
);
}
);
width = 556.96835;
}
);
leftKerningGroup = LAT_E;
rightKerningGroup = LAT_E;
unicode = 0045;
},
{
color = 4;
glyphname = F;
lastChange = "2019-06-06 17:04:15 +0000";
layers = (
{
anchors = (
{
name = aboveUC;
position = "{357, 687}";
},
{
name = belowLC;
position = "{125, -22}";
}
);
associatedMasterId = "04BF5C93-05E4-4DB8-B59C-EE59F3489DF8";
layerId = "70023048-75D4-4F59-8BF9-49EEC6A33CD1";
paths = (
{
closed = 1;
nodes = (
"247 0 LINE",
"251 21 LINE",
"229 28 LINE SMOOTH",
"205 35 OFFCURVE",
"195 52 OFFCURVE",
"200 77 CURVE SMOOTH",
"213 154 OFFCURVE",
"229 250 OFFCURVE",
"244 325 CURVE",
"319 325 LINE SMOOTH",
"355 325 OFFCURVE",
"372 310 OFFCURVE",
"383 277 CURVE SMOOTH",
"397 235 LINE",
"418 235 LINE",
"456 441 LINE",
"435 441 LINE",
"398 392 LINE SMOOTH",
"378 366 OFFCURVE",
"358 355 OFFCURVE",
"325 355 CURVE SMOOTH",
"250 355 LINE",
"302 631 LINE",
"424 631 LINE SMOOTH",
"473 631 OFFCURVE",
"496 613 OFFCURVE",
"508 566 CURVE SMOOTH",
"528 487 LINE",
"554 487 LINE",
"582 661 LINE",
"123 661 LINE",
"118 640 LINE",
"129 637 LINE SMOOTH",
"154 628 OFFCURVE",
"166 610 OFFCURVE",
"161 583 CURVE SMOOTH",
"148 508 OFFCURVE",
"133 422 OFFCURVE",
"120 351 CURVE SMOOTH",
"68 75 LINE SMOOTH",
"63 50 OFFCURVE",
"51 36 OFFCURVE",
"27 28 CURVE SMOOTH",
"8 21 LINE",
"4 0 LINE"
);
}
);
width = 524.95253;
},
{
anchors = (
{
name = aboveUC;
position = "{357, 687}";
},
{
name = belowLC;
position = "{125, -22}";
}
);
layerId = "04BF5C93-05E4-4DB8-B59C-EE59F3489DF8";
paths = (
{
closed = 1;
nodes = (
"247 0 LINE",
"251 21 LINE",
"229 28 LINE SMOOTH",
"205 35 OFFCURVE",
"195 52 OFFCURVE",
"200 77 CURVE SMOOTH",
"213 154 OFFCURVE",
"229 250 OFFCURVE",
"244 325 CURVE",
"319 325 LINE SMOOTH",
"355 325 OFFCURVE",
"372 310 OFFCURVE",
"383 277 CURVE SMOOTH",
"397 235 LINE",
"418 235 LINE",
"456 441 LINE",
"435 441 LINE",
"398 392 LINE SMOOTH",
"378 366 OFFCURVE",
"358 355 OFFCURVE",
"325 355 CURVE SMOOTH",
"250 355 LINE",
"302 631 LINE",
"424 631 LINE SMOOTH",
"473 631 OFFCURVE",
"496 613 OFFCURVE",
"508 566 CURVE SMOOTH",
"528 487 LINE",
"554 487 LINE",
"582 661 LINE",
"123 661 LINE",
"118 640 LINE",
"129 637 LINE SMOOTH",
"154 628 OFFCURVE",
"166 610 OFFCURVE",
"161 583 CURVE SMOOTH",
"148 508 OFFCURVE",
"133 422 OFFCURVE",
"120 351 CURVE SMOOTH",
"68 75 LINE SMOOTH",
"63 50 OFFCURVE",
"51 36 OFFCURVE",
"27 28 CURVE SMOOTH",
"8 21 LINE",
"4 0 LINE"
);
}
);
width = 524.95253;
}
);
leftKerningGroup = LAT_E;
unicode = 0046;
},
{
color = 4;
glyphname = G;
lastChange = "2019-06-06 17:04:15 +0000";
layers = (
{
anchors = (
{
name = aboveUC;
position = "{436, 687}";
},
{
name = belowLC;
position = "{354.994, -22}";
}
);
associatedMasterId = "04BF5C93-05E4-4DB8-B59C-EE59F3489DF8";
layerId = "70023048-75D4-4F59-8BF9-49EEC6A33CD1";
paths = (
{
closed = 1;
nodes = (
"434 -16 OFFCURVE",
"489 -1 OFFCURVE",
"548 26 CURVE",
"590 244 LINE SMOOTH",
"595 273 OFFCURVE",
"610 290 OFFCURVE",
"638 299 CURVE",
"657 306 LINE",
"661 326 LINE",
"395 326 LINE",
"391 306 LINE",
"413 300 LINE SMOOTH",
"447 291 OFFCURVE",
"463 268 OFFCURVE",
"457 232 CURVE SMOOTH",
"450 183 OFFCURVE",
"441 129 OFFCURVE",
"434 87 CURVE",
"429 60 LINE SMOOTH",
"422 23 OFFCURVE",
"397 13 OFFCURVE",
"362 13 CURVE SMOOTH",
"264 13 OFFCURVE",
"187 109 OFFCURVE",
"187 271 CURVE SMOOTH",
"187 489 OFFCURVE",
"293 649 OFFCURVE",
"449 649 CURVE SMOOTH",
"513 649 OFFCURVE",
"538 630 OFFCURVE",
"556 566 CURVE SMOOTH",
"585 474 LINE",
"611 474 LINE",
"635 630 LINE",
"573 663 OFFCURVE",
"512 679 OFFCURVE",
"440 679 CURVE SMOOTH",
"219 679 OFFCURVE",
"50 505 OFFCURVE",
"50 275 CURVE SMOOTH",
"50 92 OFFCURVE",
"165 -16 OFFCURVE",
"356 -16 CURVE SMOOTH"
);
}
);
width = 648.48892;
},
{
anchors = (
{
name = aboveUC;
position = "{436, 687}";
},
{
name = belowLC;
position = "{354.994, -22}";
}
);
layerId = "04BF5C93-05E4-4DB8-B59C-EE59F3489DF8";
paths = (
{
closed = 1;
nodes = (
"434 -16 OFFCURVE",
"489 -1 OFFCURVE",
"548 26 CURVE",
"590 244 LINE SMOOTH",
"595 273 OFFCURVE",
"610 290 OFFCURVE",
"638 299 CURVE",
"657 306 LINE",
"661 326 LINE",
"395 326 LINE",
"391 306 LINE",
"413 300 LINE SMOOTH",
"447 291 OFFCURVE",
"463 268 OFFCURVE",
"457 232 CURVE SMOOTH",
"450 183 OFFCURVE",
"441 129 OFFCURVE",
"434 87 CURVE",
"429 60 LINE SMOOTH",
"422 23 OFFCURVE",
"397 13 OFFCURVE",
"362 13 CURVE SMOOTH",
"264 13 OFFCURVE",
"187 109 OFFCURVE",
"187 271 CURVE SMOOTH",
"187 489 OFFCURVE",
"293 649 OFFCURVE",
"449 649 CURVE SMOOTH",
"513 649 OFFCURVE",
"538 630 OFFCURVE",
"556 566 CURVE SMOOTH",
"585 474 LINE",
"611 474 LINE",
"635 630 LINE",
"573 663 OFFCURVE",
"512 679 OFFCURVE",
"440 679 CURVE SMOOTH",
"219 679 OFFCURVE",
"50 505 OFFCURVE",
"50 275 CURVE SMOOTH",
"50 92 OFFCURVE",
"165 -16 OFFCURVE",
"356 -16 CURVE SMOOTH"
);
}
);
width = 648.48892;
}
);
leftKerningGroup = LAT_O;
rightKerningGroup = LAT_G;
unicode = 0047;
},
{
color = 4;
glyphname = H;
lastChange = "2019-06-06 17:04:15 +0000";
layers = (
{
anchors = (
{
name = aboveUC;
position = "{429, 687}";
},
{
name = belowLC;
position = "{313, -22}";
}
);
associatedMasterId = "04BF5C93-05E4-4DB8-B59C-EE59F3489DF8";
layerId = "70023048-75D4-4F59-8BF9-49EEC6A33CD1";
paths = (
{
closed = 1;
nodes = (
"237 0 LINE",
"242 21 LINE",
"225 27 LINE SMOOTH",
"204 34 OFFCURVE",
"195 50 OFFCURVE",
"199 72 CURVE SMOOTH",
"214 162 OFFCURVE",
"229 250 OFFCURVE",
"244 325 CURVE",
"500 325 LINE",
"452 70 LINE SMOOTH",
"448 48 OFFCURVE",
"435 34 OFFCURVE",
"414 28 CURVE SMOOTH",
"389 21 LINE",
"385 0 LINE",
"628 0 LINE",
"632 21 LINE",
"612 28 LINE SMOOTH",
"591 34 OFFCURVE",
"581 50 OFFCURVE",
"584 72 CURVE SMOOTH",
"599 159 OFFCURVE",
"613 237 OFFCURVE",
"627 310 CURVE SMOOTH",
"679 587 LINE SMOOTH",
"684 612 OFFCURVE",
"698 628 OFFCURVE",
"723 634 CURVE",
"742 640 LINE",
"746 661 LINE",
"506 661 LINE",
"502 640 LINE",
"515 636 LINE SMOOTH",
"540 628 OFFCURVE",
"551 610 OFFCURVE",
"547 585 CURVE SMOOTH",
"535 511 OFFCURVE",
"519 421 OFFCURVE",
"507 355 CURVE",
"251 355 LINE",
"294 587 LINE SMOOTH",
"298 612 OFFCURVE",
"313 627 OFFCURVE",
"337 634 CURVE SMOOTH",
"359 640 LINE",
"363 661 LINE",
"123 661 LINE",
"118 640 LINE",
"132 636 LINE",
"155 628 OFFCURVE",
"167 611 OFFCURVE",
"162 586 CURVE SMOOTH",
"149 510 OFFCURVE",
"133 422 OFFCURVE",
"120 351 CURVE SMOOTH",
"67 71 LINE SMOOTH",
"63 48 OFFCURVE",
"49 33 OFFCURVE",
"28 27 CURVE SMOOTH",
"8 21 LINE",
"4 0 LINE"
);
}
);
width = 699.46994;
},
{
anchors = (
{
name = aboveUC;
position = "{429, 687}";
},
{
name = belowLC;
position = "{313, -22}";
}
);
layerId = "04BF5C93-05E4-4DB8-B59C-EE59F3489DF8";
paths = (
{
closed = 1;
nodes = (
"237 0 LINE",
"242 21 LINE",
"225 27 LINE SMOOTH",
"204 34 OFFCURVE",
"195 50 OFFCURVE",
"199 72 CURVE SMOOTH",
"214 162 OFFCURVE",
"229 250 OFFCURVE",
"244 325 CURVE",
"500 325 LINE",
"452 70 LINE SMOOTH",
"448 48 OFFCURVE",
"435 34 OFFCURVE",
"414 28 CURVE SMOOTH",
"389 21 LINE",
"385 0 LINE",
"628 0 LINE",
"632 21 LINE",
"612 28 LINE SMOOTH",
"591 34 OFFCURVE",
"581 50 OFFCURVE",
"584 72 CURVE SMOOTH",
"599 159 OFFCURVE",
"613 237 OFFCURVE",
"627 310 CURVE SMOOTH",
"679 587 LINE SMOOTH",
"684 612 OFFCURVE",
"698 628 OFFCURVE",
"723 634 CURVE",
"742 640 LINE",
"746 661 LINE",
"506 661 LINE",
"502 640 LINE",
"515 636 LINE SMOOTH",
"540 628 OFFCURVE",
"551 610 OFFCURVE",
"547 585 CURVE SMOOTH",
"535 511 OFFCURVE",
"519 421 OFFCURVE",
"507 355 CURVE",
"251 355 LINE",
"294 587 LINE SMOOTH",
"298 612 OFFCURVE",
"313 627 OFFCURVE",
"337 634 CURVE SMOOTH",
"359 640 LINE",
"363 661 LINE",
"123 661 LINE",
"118 640 LINE",
"132 636 LINE",
"155 628 OFFCURVE",
"167 611 OFFCURVE",
"162 586 CURVE SMOOTH",
"149 510 OFFCURVE",
"133 422 OFFCURVE",
"120 351 CURVE SMOOTH",
"67 71 LINE SMOOTH",
"63 48 OFFCURVE",
"49 33 OFFCURVE",
"28 27 CURVE SMOOTH",
"8 21 LINE",
"4 0 LINE"
);
}
);
width = 699.46994;
}
);
leftKerningGroup = LAT_E;
note = "\012		skew 10 scale 120\012	";
rightKerningGroup = LAT_H;
unicode = 0048;
},
{
color = 4;
glyphname = I;
lastChange = "2019-06-06 17:04:15 +0000";
layers = (
{
anchors = (
{
name = aboveUC;
position = "{241, 687}";
},
{
name = belowLC;
position = "{118, -22}";
},
{
name = ogonek;
position = "{164, 0}";
}
);
associatedMasterId = "04BF5C93-05E4-4DB8-B59C-EE59F3489DF8";
layerId = "70023048-75D4-4F59-8BF9-49EEC6A33CD1";
paths = (
{
closed = 1;
nodes = (
"239 0 LINE",
"244 21 LINE",
"223 28 LINE SMOOTH",
"206 35 OFFCURVE",
"195 52 OFFCURVE",
"198 72 CURVE SMOOTH",
"212 148 OFFCURVE",
"228 237 OFFCURVE",
"241 310 CURVE SMOOTH",
"295 594 LINE SMOOTH",
"298 612 OFFCURVE",
"311 627 OFFCURVE",
"329 632 CURVE SMOOTH",
"353 640 LINE",
"358 661 LINE",
"123 661 LINE",
"118 640 LINE",
"136 634 LINE SMOOTH",
"155 628 OFFCURVE",
"166 610 OFFCURVE",
"162 591 CURVE SMOOTH",
"150 513 OFFCURVE",
"133 424 OFFCURVE",
"120 351 CURVE SMOOTH",
"67 68 LINE SMOOTH",
"63 50 OFFCURVE",
"51 35 OFFCURVE",
"33 30 CURVE SMOOTH",
"8 21 LINE",
"4 0 LINE"
);
}
);
width = 310.39399;
},
{
anchors = (
{
name = aboveUC;
position = "{241, 687}";
},
{
name = belowLC;
position = "{118, -22}";
},
{
name = ogonek;
position = "{164, 0}";
}
);
layerId = "04BF5C93-05E4-4DB8-B59C-EE59F3489DF8";
paths = (
{
closed = 1;
nodes = (
"239 0 LINE",
"244 21 LINE",
"223 28 LINE SMOOTH",
"206 35 OFFCURVE",
"195 52 OFFCURVE",
"198 72 CURVE SMOOTH",
"212 148 OFFCURVE",
"228 237 OFFCURVE",
"241 310 CURVE SMOOTH",
"295 594 LINE SMOOTH",
"298 612 OFFCURVE",
"311 627 OFFCURVE",
"329 632 CURVE SMOOTH",
"353 640 LINE",
"358 661 LINE",
"123 661 LINE",
"118 640 LINE",
"136 634 LINE SMOOTH",
"155 628 OFFCURVE",
"166 610 OFFCURVE",
"162 591 CURVE SMOOTH",
"150 513 OFFCURVE",
"133 424 OFFCURVE",
"120 351 CURVE SMOOTH",
"67 68 LINE SMOOTH",
"63 50 OFFCURVE",
"51 35 OFFCURVE",
"33 30 CURVE SMOOTH",
"8 21 LINE",
"4 0 LINE"
);
}
);
width = 310.39399;
}
);
leftKerningGroup = LAT_E;
rightKerningGroup = LAT_H;
unicode = 0049;
},
{
color = 4;
glyphname = J;
lastChange = "2019-06-06 17:04:15 +0000";
layers = (
{
anchors = (
{
name = aboveUC;
position = "{337, 687}";
},
{
name = belowLC;
position = "{106, -62}";
}
);
associatedMasterId = "04BF5C93-05E4-4DB8-B59C-EE59F3489DF8";
layerId = "70023048-75D4-4F59-8BF9-49EEC6A33CD1";
paths = (
{
closed = 1;
nodes = (
"148 -17 OFFCURVE",
"226 31 OFFCURVE",
"276 120 CURVE SMOOTH",
"302 165 OFFCURVE",
"324 224 OFFCURVE",
"344 332 CURVE SMOOTH",
"388 580 LINE SMOOTH",
"392 607 OFFCURVE",
"407 624 OFFCURVE",
"432 634 CURVE SMOOTH",
"448 640 LINE",
"452 661 LINE",
"208 661 LINE",
"204 640 LINE",
"222 634 LINE SMOOTH",
"248 624 OFFCURVE",
"259 606 OFFCURVE",
"255 578 CURVE SMOOTH",
"241 493 OFFCURVE",
"228 415 OFFCURVE",
"218 353 CURVE SMOOTH",
"208 278 OFFCURVE",
"199 217 OFFCURVE",
"190 164 CURVE SMOOTH",
"181 111 OFFCURVE",
"168 69 OFFCURVE",
"151 42 CURVE SMOOTH",
"141 25 OFFCURVE",
"126 24 OFFCURVE",
"114 43 CURVE SMOOTH",
"94 91 OFFCURVE",
"65 102 OFFCURVE",
"37 102 CURVE SMOOTH",
"4 102 OFFCURVE",
"-21 79 OFFCURVE",
"-21 46 CURVE SMOOTH",
"-21 6 OFFCURVE",
"15 -17 OFFCURVE",
"69 -17 CURVE SMOOTH"
);
}
);
width = 388.34125;
},
{
anchors = (
{
name = aboveUC;
position = "{337, 687}";
},
{
name = belowLC;
position = "{106, -62}";
}
);
layerId = "04BF5C93-05E4-4DB8-B59C-EE59F3489DF8";
paths = (
{
closed = 1;
nodes = (
"148 -17 OFFCURVE",
"226 31 OFFCURVE",
"276 120 CURVE SMOOTH",
"302 165 OFFCURVE",
"324 224 OFFCURVE",
"344 332 CURVE SMOOTH",
"388 580 LINE SMOOTH",
"392 607 OFFCURVE",
"407 624 OFFCURVE",
"432 634 CURVE SMOOTH",
"448 640 LINE",
"452 661 LINE",
"208 661 LINE",
"204 640 LINE",
"222 634 LINE SMOOTH",
"248 624 OFFCURVE",
"259 606 OFFCURVE",
"255 578 CURVE SMOOTH",
"241 493 OFFCURVE",
"228 415 OFFCURVE",
"218 353 CURVE SMOOTH",
"208 278 OFFCURVE",
"199 217 OFFCURVE",
"190 164 CURVE SMOOTH",
"181 111 OFFCURVE",
"168 69 OFFCURVE",
"151 42 CURVE SMOOTH",
"141 25 OFFCURVE",
"126 24 OFFCURVE",
"114 43 CURVE SMOOTH",
"94 91 OFFCURVE",
"65 102 OFFCURVE",
"37 102 CURVE SMOOTH",
"4 102 OFFCURVE",
"-21 79 OFFCURVE",
"-21 46 CURVE SMOOTH",
"-21 6 OFFCURVE",
"15 -17 OFFCURVE",
"69 -17 CURVE SMOOTH"
);
}
);
width = 388.34125;
}
);
leftKerningGroup = LAT_J;
rightKerningGroup = LAT_J;
unicode = 004A;
},
{
color = 4;
glyphname = K;
lastChange = "2019-06-06 17:04:15 +0000";
layers = (
{
anchors = (
{
name = aboveUC;
position = "{419, 687}";
},
{
name = belowLC;
position = "{303, -22}";
}
);
associatedMasterId = "04BF5C93-05E4-4DB8-B59C-EE59F3489DF8";
layerId = "70023048-75D4-4F59-8BF9-49EEC6A33CD1";
paths = (
{
closed = 1;
nodes = (
"624 0 LINE",
"627 21 LINE",
"618 24 LINE SMOOTH",
"589 33 OFFCURVE",
"569 50 OFFCURVE",
"551 77 CURVE SMOOTH",
"348 397 LINE",
"553 581 LINE SMOOTH",
"585 610 OFFCURVE",
"611 624 OFFCURVE",
"653 636 CURVE SMOOTH",
"668 640 LINE",
"672 661 LINE",
"509 661 LINE",
"505 640 LINE",
"514 637 LINE SMOOTH",
"537 629 OFFCURVE",
"539 610 OFFCURVE",
"520 593 CURVE SMOOTH",
"245 345 LINE",
"414 68 LINE SMOOTH",
"426 48 OFFCURVE",
"420 32 OFFCURVE",
"398 24 CURVE SMOOTH",
"388 21 LINE",
"385 0 LINE"
);
},
{
closed = 1;
nodes = (
"234 0 LINE",
"239 21 LINE",
"225 25 LINE SMOOTH",
"201 33 OFFCURVE",
"191 50 OFFCURVE",
"195 74 CURVE",
"206 137 OFFCURVE",
"220 214 OFFCURVE",
"230 269 CURVE SMOOTH",
"289 585 LINE SMOOTH",
"294 612 OFFCURVE",
"309 627 OFFCURVE",
"335 635 CURVE SMOOTH",
"354 640 LINE",
"358 661 LINE",
"121 661 LINE",
"117 640 LINE",
"128 636 LINE SMOOTH",
"151 628 OFFCURVE",
"162 612 OFFCURVE",
"158 587 CURVE SMOOTH",
"145 510 OFFCURVE",
"130 423 OFFCURVE",
"116 351 CURVE SMOOTH",
"64 75 LINE SMOOTH",
"59 50 OFFCURVE",
"45 34 OFFCURVE",
"21 26 CURVE SMOOTH",
"6 21 LINE",
"2 0 LINE"
);
}
);
width = 635.39715;
},
{
anchors = (
{
name = aboveUC;
position = "{419, 687}";
},
{
name = belowLC;
position = "{303, -22}";
}
);
layerId = "04BF5C93-05E4-4DB8-B59C-EE59F3489DF8";
paths = (
{
closed = 1;
nodes = (
"624 0 LINE",
"627 21 LINE",
"618 24 LINE SMOOTH",
"589 33 OFFCURVE",
"569 50 OFFCURVE",
"551 77 CURVE SMOOTH",
"348 397 LINE",
"553 581 LINE SMOOTH",
"585 610 OFFCURVE",
"611 624 OFFCURVE",
"653 636 CURVE SMOOTH",
"668 640 LINE",
"672 661 LINE",
"509 661 LINE",
"505 640 LINE",
"514 637 LINE SMOOTH",
"537 629 OFFCURVE",
"539 610 OFFCURVE",
"520 593 CURVE SMOOTH",
"245 345 LINE",
"414 68 LINE SMOOTH",
"426 48 OFFCURVE",
"420 32 OFFCURVE",
"398 24 CURVE SMOOTH",
"388 21 LINE",
"385 0 LINE"
);
},
{
closed = 1;
nodes = (
"234 0 LINE",
"239 21 LINE",
"225 25 LINE SMOOTH",
"201 33 OFFCURVE",
"191 50 OFFCURVE",
"195 74 CURVE",
"206 137 OFFCURVE",
"220 214 OFFCURVE",
"230 269 CURVE SMOOTH",
"289 585 LINE SMOOTH",
"294 612 OFFCURVE",
"309 627 OFFCURVE",
"335 635 CURVE SMOOTH",
"354 640 LINE",
"358 661 LINE",
"121 661 LINE",
"117 640 LINE",
"128 636 LINE SMOOTH",
"151 628 OFFCURVE",
"162 612 OFFCURVE",
"158 587 CURVE SMOOTH",
"145 510 OFFCURVE",
"130 423 OFFCURVE",
"116 351 CURVE SMOOTH",
"64 75 LINE SMOOTH",
"59 50 OFFCURVE",
"45 34 OFFCURVE",
"21 26 CURVE SMOOTH",
"6 21 LINE",
"2 0 LINE"
);
}
);
width = 635.39715;
}
);
leftKerningGroup = LAT_E;
rightKerningGroup = LAT_K;
unicode = 004B;
},
{
color = 4;
glyphname = L;
lastChange = "2019-06-06 17:04:15 +0000";
layers = (
{
anchors = (
{
name = aboveUC;
position = "{241, 687}";
},
{
name = belowLC;
position = "{245, -22}";
}
);
associatedMasterId = "04BF5C93-05E4-4DB8-B59C-EE59F3489DF8";
layerId = "70023048-75D4-4F59-8BF9-49EEC6A33CD1";
paths = (
{
closed = 1;
nodes = (
"479 0 LINE",
"520 193 LINE",
"494 193 LINE",
"424 93 LINE SMOOTH",
"394 48 OFFCURVE",
"357 30 OFFCURVE",
"303 30 CURVE SMOOTH",
"192 30 LINE",
"206 115 OFFCURVE",
"225 225 OFFCURVE",
"241 310 CURVE SMOOTH",
"293 585 LINE SMOOTH",
"298 612 OFFCURVE",
"313 627 OFFCURVE",
"338 634 CURVE SMOOTH",
"361 640 LINE",
"364 661 LINE",
"123 661 LINE",
"119 640 LINE",
"130 636 LINE",
"155 627 OFFCURVE",
"166 610 OFFCURVE",
"161 584 CURVE",
"149 508 OFFCURVE",
"133 422 OFFCURVE",
"120 351 CURVE SMOOTH",
"67 73 LINE SMOOTH",
"62 48 OFFCURVE",
"49 34 OFFCURVE",
"24 26 CURVE",
"7 21 LINE",
"4 0 LINE"
);
}
);
width = 535.97468;
},
{
anchors = (
{
name = aboveUC;
position = "{241, 687}";
},
{
name = belowLC;
position = "{245, -22}";
}
);
layerId = "04BF5C93-05E4-4DB8-B59C-EE59F3489DF8";
paths = (
{
closed = 1;
nodes = (
"479 0 LINE",
"520 193 LINE",
"494 193 LINE",
"424 93 LINE SMOOTH",
"394 48 OFFCURVE",
"357 30 OFFCURVE",
"303 30 CURVE SMOOTH",
"192 30 LINE",
"206 115 OFFCURVE",
"225 225 OFFCURVE",
"241 310 CURVE SMOOTH",
"293 585 LINE SMOOTH",
"298 612 OFFCURVE",
"313 627 OFFCURVE",
"338 634 CURVE SMOOTH",
"361 640 LINE",
"364 661 LINE",
"123 661 LINE",
"119 640 LINE",
"130 636 LINE",
"155 627 OFFCURVE",
"166 610 OFFCURVE",
"161 584 CURVE",
"149 508 OFFCURVE",
"133 422 OFFCURVE",
"120 351 CURVE SMOOTH",
"67 73 LINE SMOOTH",
"62 48 OFFCURVE",
"49 34 OFFCURVE",
"24 26 CURVE",
"7 21 LINE",
"4 0 LINE"
);
}
);
width = 535.97468;
}
);
leftKerningGroup = LAT_E;
rightKerningGroup = LAT_L;
unicode = 004C;
},
{
glyphname = Lcaron;
lastChange = "2019-06-06 17:04:15 +0000";
layers = (
{
associatedMasterId = "04BF5C93-05E4-4DB8-B59C-EE59F3489DF8";
components = (
{
alignment = -1;
name = L;
}
);
layerId = "70023048-75D4-4F59-8BF9-49EEC6A33CD1";
paths = (
{
closed = 1;
nodes = (
"564 725 OFFCURVE",
"551 723 OFFCURVE",
"533 715 CURVE",
"488 492 LINE",
"530 488 LINE",
"571 562 LINE SMOOTH",
"597 608 OFFCURVE",
"624 657 OFFCURVE",
"624 691 CURVE SMOOTH",
"624 707 OFFCURVE",
"614 725 OFFCURVE",
"581 725 CURVE SMOOTH"
);
}
);
width = 566.00633;
},
{
components = (
{
alignment = -1;
name = L;
}
);
layerId = "04BF5C93-05E4-4DB8-B59C-EE59F3489DF8";
paths = (
{
closed = 1;
nodes = (
"564 725 OFFCURVE",
"551 723 OFFCURVE",
"533 715 CURVE",
"488 492 LINE",
"530 488 LINE",
"571 562 LINE SMOOTH",
"597 608 OFFCURVE",
"624 657 OFFCURVE",
"624 691 CURVE SMOOTH",
"624 707 OFFCURVE",
"614 725 OFFCURVE",
"581 725 CURVE SMOOTH"
);
}
);
width = 566.00633;
}
);
leftKerningGroup = LAT_E;
rightKerningGroup = LAT_L;
unicode = 013D;
},
{
color = 4;
glyphname = Lslash;
lastChange = "2019-06-06 17:04:15 +0000";
layers = (
{
associatedMasterId = "04BF5C93-05E4-4DB8-B59C-EE59F3489DF8";
components = (
{
alignment = -1;
name = L;
}
);
layerId = "70023048-75D4-4F59-8BF9-49EEC6A33CD1";
paths = (
{
closed = 1;
nodes = (
"436 414 LINE",
"445 457 LINE",
"39 261 LINE",
"30 219 LINE"
);
}
);
width = 535.97468;
},
{
components = (
{
alignment = -1;
name = L;
}
);
layerId = "04BF5C93-05E4-4DB8-B59C-EE59F3489DF8";
paths = (
{
closed = 1;
nodes = (
"436 414 LINE",
"445 457 LINE",
"39 261 LINE",
"30 219 LINE"
);
}
);
width = 535.97468;
}
);
leftKerningGroup = LAT_E;
rightKerningGroup = LAT_L;
rightMetricsKey = L;
unicode = 0141;
},
{
color = 4;
glyphname = M;
lastChange = "2019-06-06 17:04:15 +0000";
layers = (
{
anchors = (
{
name = aboveUC;
position = "{495, 671}";
},
{
name = belowLC;
position = "{340, -22}";
}
);
associatedMasterId = "04BF5C93-05E4-4DB8-B59C-EE59F3489DF8";
layerId = "70023048-75D4-4F59-8BF9-49EEC6A33CD1";
paths = (
{
closed = 1;
nodes = (
"144 0 LINE",
"148 21 LINE",
"132 25 LINE SMOOTH",
"104 34 OFFCURVE",
"92 53 OFFCURVE",
"98 82 CURVE SMOOTH",
"181 541 LINE",
"322 0 LINE",
"360 0 LINE",
"687 547 LINE",
"601 77 LINE SMOOTH",
"596 48 OFFCURVE",
"581 31 OFFCURVE",
"552 24 CURVE SMOOTH",
"542 21 LINE",
"539 0 LINE",
"771.997 0 LINE",
"776 21 LINE",
"767 23 LINE SMOOTH",
"740 31 OFFCURVE",
"727 48 OFFCURVE",
"732 76 CURVE SMOOTH",
"745 154 OFFCURVE",
"759 231 OFFCURVE",
"774 312 CURVE SMOOTH",
"822 580 LINE SMOOTH",
"827 607 OFFCURVE",
"840 624 OFFCURVE",
"866 633 CURVE SMOOTH",
"884 640 LINE",
"887 661 LINE",
"712 661 LINE",
"415 165 LINE",
"285 661 LINE",
"118 661 LINE",
"114 640 LINE",
"121 636 LINE SMOOTH",
"144 625 OFFCURVE",
"154 609 OFFCURVE",
"153 581 CURVE",
"155 574 LINE",
"63 81 LINE SMOOTH",
"58 51 OFFCURVE",
"41 34 OFFCURVE",
"12 26 CURVE SMOOTH",
"-9 21 LINE",
"-13 0 LINE"
);
}
);
width = 843.51424;
},
{
anchors = (
{
name = aboveUC;
position = "{495, 671}";
},
{
name = belowLC;
position = "{340, -22}";
}
);
layerId = "04BF5C93-05E4-4DB8-B59C-EE59F3489DF8";
paths = (
{
closed = 1;
nodes = (
"144 0 LINE",
"148 21 LINE",
"132 25 LINE SMOOTH",
"104 34 OFFCURVE",
"92 53 OFFCURVE",
"98 82 CURVE SMOOTH",
"181 541 LINE",
"322 0 LINE",
"360 0 LINE",
"687 547 LINE",
"601 77 LINE SMOOTH",
"596 48 OFFCURVE",
"581 31 OFFCURVE",
"552 24 CURVE SMOOTH",
"542 21 LINE",
"539 0 LINE",
"771.997 0 LINE",
"776 21 LINE",
"767 23 LINE SMOOTH",
"740 31 OFFCURVE",
"727 48 OFFCURVE",
"732 76 CURVE SMOOTH",
"745 154 OFFCURVE",
"759 231 OFFCURVE",
"774 312 CURVE SMOOTH",
"822 580 LINE SMOOTH",
"827 607 OFFCURVE",
"840 624 OFFCURVE",
"866 633 CURVE SMOOTH",
"884 640 LINE",
"887 661 LINE",
"712 661 LINE",
"415 165 LINE",
"285 661 LINE",
"118 661 LINE",
"114 640 LINE",
"121 636 LINE SMOOTH",
"144 625 OFFCURVE",
"154 609 OFFCURVE",
"153 581 CURVE",
"155 574 LINE",
"63 81 LINE SMOOTH",
"58 51 OFFCURVE",
"41 34 OFFCURVE",
"12 26 CURVE SMOOTH",
"-9 21 LINE",
"-13 0 LINE"
);
}
);
width = 843.51424;
}
);
leftKerningGroup = LAT_M;
rightKerningGroup = LAT_H;
unicode = 004D;
},
{
color = 4;
glyphname = N;
lastChange = "2019-06-06 17:04:15 +0000";
layers = (
{
anchors = (
{
name = aboveUC;
position = "{389, 687}";
},
{
name = belowLC;
position = "{308, -22}";
}
);
associatedMasterId = "04BF5C93-05E4-4DB8-B59C-EE59F3489DF8";
layerId = "70023048-75D4-4F59-8BF9-49EEC6A33CD1";
paths = (
{
closed = 1;
nodes = (
"524 -5 LINE",
"634 583 LINE SMOOTH",
"639 610 OFFCURVE",
"654 626 OFFCURVE",
"680 634 CURVE SMOOTH",
"700 640 LINE",
"704 661 LINE",
"559 661 LINE",
"555 640 LINE",
"570 635 LINE SMOOTH",
"594 627 OFFCURVE",
"605 610 OFFCURVE",
"600 584 CURVE SMOOTH",
"523 175 LINE",
"264 661 LINE",
"113 661 LINE",
"109 640 LINE",
"116 638 LINE",
"135 629 OFFCURVE",
"146 620 OFFCURVE",
"155 602 CURVE SMOOTH",
"164 585 LINE",
"68 80 LINE SMOOTH",
"63 52 OFFCURVE",
"48 36 OFFCURVE",
"21 28 CURVE SMOOTH",
"0 21 LINE",
"-4 0 LINE",
"148 0 LINE",
"152 21 LINE",
"134 26 LINE SMOOTH",
"109 35 OFFCURVE",
"97 54 OFFCURVE",
"102 81 CURVE SMOOTH",
"187 531 LINE",
"470 -5 LINE"
);
}
);
width = 633.03053;
},
{
anchors = (
{
name = aboveUC;
position = "{389, 687}";
},
{
name = belowLC;
position = "{308, -22}";
}
);
layerId = "04BF5C93-05E4-4DB8-B59C-EE59F3489DF8";
paths = (
{
closed = 1;
nodes = (
"524 -5 LINE",
"634 583 LINE SMOOTH",
"639 610 OFFCURVE",
"654 626 OFFCURVE",
"680 634 CURVE SMOOTH",
"700 640 LINE",
"704 661 LINE",
"559 661 LINE",
"555 640 LINE",
"570 635 LINE SMOOTH",
"594 627 OFFCURVE",
"605 610 OFFCURVE",
"600 584 CURVE SMOOTH",
"523 175 LINE",
"264 661 LINE",
"113 661 LINE",
"109 640 LINE",
"116 638 LINE",
"135 629 OFFCURVE",
"146 620 OFFCURVE",
"155 602 CURVE SMOOTH",
"164 585 LINE",
"68 80 LINE SMOOTH",
"63 52 OFFCURVE",
"48 36 OFFCURVE",
"21 28 CURVE SMOOTH",
"0 21 LINE",
"-4 0 LINE",
"148 0 LINE",
"152 21 LINE",
"134 26 LINE SMOOTH",
"109 35 OFFCURVE",
"97 54 OFFCURVE",
"102 81 CURVE SMOOTH",
"187 531 LINE",
"470 -5 LINE"
);
}
);
width = 633.03053;
}
);
leftKerningGroup = LAT_M;
rightKerningGroup = LAT_N;
unicode = 004E;
},
{
color = 4;
glyphname = O;
lastChange = "2019-06-06 17:04:15 +0000";
layers = (
{
anchors = (
{
name = aboveUC;
position = "{421, 686}";
},
{
name = belowLC;
position = "{302, -21}";
},
{
name = hornLC;
position = "{574, 673}";
},
{
name = ogonek;
position = "{402, -1}";
}
);
associatedMasterId = "04BF5C93-05E4-4DB8-B59C-EE59F3489DF8";
layerId = "70023048-75D4-4F59-8BF9-49EEC6A33CD1";
paths = (
{
closed = 1;
nodes = (
"523 -17 OFFCURVE",
"668 178 OFFCURVE",
"668 404 CURVE SMOOTH",
"668 571 OFFCURVE",
"569 678 OFFCURVE",
"420 678 CURVE SMOOTH",
"199 678 OFFCURVE",
"53 480 OFFCURVE",
"53 258 CURVE SMOOTH",
"53 78 OFFCURVE",
"156 -17 OFFCURVE",
"300 -17 CURVE SMOOTH"
);
},
{
closed = 1;
nodes = (
"224 13 OFFCURVE",
"186 94 OFFCURVE",
"186 238 CURVE SMOOTH",
"186 465 OFFCURVE",
"290 648 OFFCURVE",
"413 648 CURVE SMOOTH",
"500 648 OFFCURVE",
"534 568 OFFCURVE",
"534 426 CURVE SMOOTH",
"534 200 OFFCURVE",
"432 13 OFFCURVE",
"310 13 CURVE SMOOTH"
);
}
);
width = 665.98101;
},
{
anchors = (
{
name = aboveUC;
position = "{421, 686}";
},
{
name = belowLC;
position = "{302, -21}";
},
{
name = hornLC;
position = "{574, 673}";
},
{
name = ogonek;
position = "{402, -1}";
}
);
layerId = "04BF5C93-05E4-4DB8-B59C-EE59F3489DF8";
paths = (
{
closed = 1;
nodes = (
"523 -17 OFFCURVE",
"668 178 OFFCURVE",
"668 404 CURVE SMOOTH",
"668 571 OFFCURVE",
"569 678 OFFCURVE",
"420 678 CURVE SMOOTH",
"199 678 OFFCURVE",
"53 480 OFFCURVE",
"53 258 CURVE SMOOTH",
"53 78 OFFCURVE",
"156 -17 OFFCURVE",
"300 -17 CURVE SMOOTH"
);
},
{
closed = 1;
nodes = (
"224 13 OFFCURVE",
"186 94 OFFCURVE",
"186 238 CURVE SMOOTH",
"186 465 OFFCURVE",
"290 648 OFFCURVE",
"413 648 CURVE SMOOTH",
"500 648 OFFCURVE",
"534 568 OFFCURVE",
"534 426 CURVE SMOOTH",
"534 200 OFFCURVE",
"432 13 OFFCURVE",
"310 13 CURVE SMOOTH"
);
}
);
width = 665.98101;
}
);
leftKerningGroup = LAT_O;
rightKerningGroup = LAT_O;
unicode = 004F;
},
{
color = 4;
glyphname = Oslash;
lastChange = "2019-06-06 17:04:15 +0000";
layers = (
{
anchors = (
{
name = aboveUC;
position = "{421, 687}";
}
);
associatedMasterId = "04BF5C93-05E4-4DB8-B59C-EE59F3489DF8";
layerId = "70023048-75D4-4F59-8BF9-49EEC6A33CD1";
paths = (
{
closed = 1;
nodes = (
"659 682 LINE",
"14 3 LINE",
"40 -22 LINE",
"685 657 LINE"
);
},
{
closed = 1;
nodes = (
"523 -17 OFFCURVE",
"668 178 OFFCURVE",
"668 404 CURVE SMOOTH",
"668 571 OFFCURVE",
"569 678 OFFCURVE",
"420 678 CURVE SMOOTH",
"199 678 OFFCURVE",
"53 480 OFFCURVE",
"53 258 CURVE SMOOTH",
"53 78 OFFCURVE",
"156 -17 OFFCURVE",
"300 -17 CURVE SMOOTH"
);
},
{
closed = 1;
nodes = (
"221 13 OFFCURVE",
"179 82 OFFCURVE",
"179 239 CURVE SMOOTH",
"179 464 OFFCURVE",
"285 648 OFFCURVE",
"413 648 CURVE SMOOTH",
"503 648 OFFCURVE",
"541 580 OFFCURVE",
"541 426 CURVE SMOOTH",
"541 202 OFFCURVE",
"436 13 OFFCURVE",
"309 13 CURVE SMOOTH"
);
}
);
width = 665.98101;
},
{
anchors = (
{
name = aboveUC;
position = "{421, 687}";
}
);
layerId = "04BF5C93-05E4-4DB8-B59C-EE59F3489DF8";
paths = (
{
closed = 1;
nodes = (
"659 682 LINE",
"14 3 LINE",
"40 -22 LINE",
"685 657 LINE"
);
},
{
closed = 1;
nodes = (
"523 -17 OFFCURVE",
"668 178 OFFCURVE",
"668 404 CURVE SMOOTH",
"668 571 OFFCURVE",
"569 678 OFFCURVE",
"420 678 CURVE SMOOTH",
"199 678 OFFCURVE",
"53 480 OFFCURVE",
"53 258 CURVE SMOOTH",
"53 78 OFFCURVE",
"156 -17 OFFCURVE",
"300 -17 CURVE SMOOTH"
);
},
{
closed = 1;
nodes = (
"221 13 OFFCURVE",
"179 82 OFFCURVE",
"179 239 CURVE SMOOTH",
"179 464 OFFCURVE",
"285 648 OFFCURVE",
"413 648 CURVE SMOOTH",
"503 648 OFFCURVE",
"541 580 OFFCURVE",
"541 426 CURVE SMOOTH",
"541 202 OFFCURVE",
"436 13 OFFCURVE",
"309 13 CURVE SMOOTH"
);
}
);
width = 665.98101;
}
);
leftKerningGroup = LAT_O;
rightKerningGroup = LAT_O;
unicode = 00D8;
},
{
color = 4;
glyphname = OE;
lastChange = "2019-06-06 17:04:15 +0000";
layers = (
{
anchors = (
{
name = aboveUC;
position = "{582, 687}";
}
);
associatedMasterId = "04BF5C93-05E4-4DB8-B59C-EE59F3489DF8";
layerId = "70023048-75D4-4F59-8BF9-49EEC6A33CD1";
paths = (
{
closed = 1;
nodes = (
"377 -17 OFFCURVE",
"409 -11 OFFCURVE",
"450 0 CURVE",
"818 0 LINE",
"857 174 LINE",
"831 174 LINE",
"768 79 LINE SMOOTH",
"746 45 OFFCURVE",
"718 30 OFFCURVE",
"677 30 CURVE SMOOTH",
"522 30 LINE",
"536 113 OFFCURVE",
"557 235 OFFCURVE",
"574 325 CURVE",
"659 325 LINE SMOOTH",
"689 325 OFFCURVE",
"708 311 OFFCURVE",
"717 282 CURVE SMOOTH",
"728 244 LINE",
"749 244 LINE",
"785 437 LINE",
"764 437 LINE",
"733 390 LINE SMOOTH",
"716 366 OFFCURVE",
"695 354 OFFCURVE",
"665 354 CURVE SMOOTH",
"580 354 LINE",
"632 631 LINE",
"758 631 LINE SMOOTH",
"799 631 OFFCURVE",
"823 611 OFFCURVE",
"831 572 CURVE SMOOTH",
"850 487 LINE",
"876 487 LINE",
"901 661 LINE",
"576 661 LINE",
"532 673 OFFCURVE",
"496 679 OFFCURVE",
"454 679 CURVE SMOOTH",
"216 679 OFFCURVE",
"53 478 OFFCURVE",
"53 262 CURVE SMOOTH",
"53 73 OFFCURVE",
"168 -17 OFFCURVE",
"330 -17 CURVE SMOOTH"
);
},
{
closed = 1;
nodes = (
"256 12 OFFCURVE",
"187 93 OFFCURVE",
"187 250 CURVE SMOOTH",
"187 477 OFFCURVE",
"303 649 OFFCURVE",
"451 649 CURVE SMOOTH",
"486 649 OFFCURVE",
"500 634 OFFCURVE",
"495 604 CURVE SMOOTH",
"482 527 OFFCURVE",
"466 439 OFFCURVE",
"450 351 CURVE SMOOTH",
"394 55 LINE SMOOTH",
"389 25 OFFCURVE",
"371 12 OFFCURVE",
"339 12 CURVE SMOOTH"
);
}
);
width = 887.00949;
},
{
anchors = (
{
name = aboveUC;
position = "{582, 687}";
}
);
layerId = "04BF5C93-05E4-4DB8-B59C-EE59F3489DF8";
paths = (
{
closed = 1;
nodes = (
"377 -17 OFFCURVE",
"409 -11 OFFCURVE",
"450 0 CURVE",
"818 0 LINE",
"857 174 LINE",
"831 174 LINE",
"768 79 LINE SMOOTH",
"746 45 OFFCURVE",
"718 30 OFFCURVE",
"677 30 CURVE SMOOTH",
"522 30 LINE",
"536 113 OFFCURVE",
"557 235 OFFCURVE",
"574 325 CURVE",
"659 325 LINE SMOOTH",
"689 325 OFFCURVE",
"708 311 OFFCURVE",
"717 282 CURVE SMOOTH",
"728 244 LINE",
"749 244 LINE",
"785 437 LINE",
"764 437 LINE",
"733 390 LINE SMOOTH",
"716 366 OFFCURVE",
"695 354 OFFCURVE",
"665 354 CURVE SMOOTH",
"580 354 LINE",
"632 631 LINE",
"758 631 LINE SMOOTH",
"799 631 OFFCURVE",
"823 611 OFFCURVE",
"831 572 CURVE SMOOTH",
"850 487 LINE",
"876 487 LINE",
"901 661 LINE",
"576 661 LINE",
"532 673 OFFCURVE",
"496 679 OFFCURVE",
"454 679 CURVE SMOOTH",
"216 679 OFFCURVE",
"53 478 OFFCURVE",
"53 262 CURVE SMOOTH",
"53 73 OFFCURVE",
"168 -17 OFFCURVE",
"330 -17 CURVE SMOOTH"
);
},
{
closed = 1;
nodes = (
"256 12 OFFCURVE",
"187 93 OFFCURVE",
"187 250 CURVE SMOOTH",
"187 477 OFFCURVE",
"303 649 OFFCURVE",
"451 649 CURVE SMOOTH",
"486 649 OFFCURVE",
"500 634 OFFCURVE",
"495 604 CURVE SMOOTH",
"482 527 OFFCURVE",
"466 439 OFFCURVE",
"450 351 CURVE SMOOTH",
"394 55 LINE SMOOTH",
"389 25 OFFCURVE",
"371 12 OFFCURVE",
"339 12 CURVE SMOOTH"
);
}
);
width = 887.00949;
}
);
leftKerningGroup = LAT_O;
leftMetricsKey = O;
rightKerningGroup = LAT_E;
rightMetricsKey = E;
unicode = 0152;
},
{
color = 4;
glyphname = P;
lastChange = "2019-06-06 17:04:15 +0000";
layers = (
{
anchors = (
{
name = aboveUC;
position = "{342, 687}";
},
{
name = belowLC;
position = "{126, -22}";
}
);
associatedMasterId = "04BF5C93-05E4-4DB8-B59C-EE59F3489DF8";
layerId = "70023048-75D4-4F59-8BF9-49EEC6A33CD1";
paths = (
{
closed = 1;
nodes = (
"245 0 LINE",
"249 21 LINE",
"236 24 LINE SMOOTH",
"208 32 OFFCURVE",
"195 51 OFFCURVE",
"201 81 CURVE SMOOTH",
"211 143 OFFCURVE",
"222 205 OFFCURVE",
"232 258 CURVE",
"279 258 LINE SMOOTH",
"481 258 OFFCURVE",
"581 362 OFFCURVE",
"581 482 CURVE SMOOTH",
"581 589 OFFCURVE",
"507 661 OFFCURVE",
"338 661 CURVE SMOOTH",
"123 661 LINE",
"118 640 LINE",
"128 637 LINE SMOOTH",
"154 629 OFFCURVE",
"166 611 OFFCURVE",
"162 582 CURVE SMOOTH",
"147 496 OFFCURVE",
"134 423 OFFCURVE",
"120 351 CURVE SMOOTH",
"69 79 LINE SMOOTH",
"63 49 OFFCURVE",
"47 32 OFFCURVE",
"19 24 CURVE SMOOTH",
"8 21 LINE",
"4 0 LINE"
);
},
{
closed = 1;
nodes = (
"259 402 OFFCURVE",
"281 517 OFFCURVE",
"302 632 CURVE",
"329 632 LINE SMOOTH",
"406 632 OFFCURVE",
"449 580 OFFCURVE",
"449 484 CURVE SMOOTH",
"449 362 OFFCURVE",
"382 288 OFFCURVE",
"277 288 CURVE SMOOTH",
"238 288 LINE"
);
}
);
width = 554.78776;
},
{
anchors = (
{
name = aboveUC;
position = "{342, 687}";
},
{
name = belowLC;
position = "{126, -22}";
}
);
layerId = "04BF5C93-05E4-4DB8-B59C-EE59F3489DF8";
paths = (
{
closed = 1;
nodes = (
"245 0 LINE",
"249 21 LINE",
"236 24 LINE SMOOTH",
"208 32 OFFCURVE",
"195 51 OFFCURVE",
"201 81 CURVE SMOOTH",
"211 143 OFFCURVE",
"222 205 OFFCURVE",
"232 258 CURVE",
"279 258 LINE SMOOTH",
"481 258 OFFCURVE",
"581 362 OFFCURVE",
"581 482 CURVE SMOOTH",
"581 589 OFFCURVE",
"507 661 OFFCURVE",
"338 661 CURVE SMOOTH",
"123 661 LINE",
"118 640 LINE",
"128 637 LINE SMOOTH",
"154 629 OFFCURVE",
"166 611 OFFCURVE",
"162 582 CURVE SMOOTH",
"147 496 OFFCURVE",
"134 423 OFFCURVE",
"120 351 CURVE SMOOTH",
"69 79 LINE SMOOTH",
"63 49 OFFCURVE",
"47 32 OFFCURVE",
"19 24 CURVE SMOOTH",
"8 21 LINE",
"4 0 LINE"
);
},
{
closed = 1;
nodes = (
"259 402 OFFCURVE",
"281 517 OFFCURVE",
"302 632 CURVE",
"329 632 LINE SMOOTH",
"406 632 OFFCURVE",
"449 580 OFFCURVE",
"449 484 CURVE SMOOTH",
"449 362 OFFCURVE",
"382 288 OFFCURVE",
"277 288 CURVE SMOOTH",
"238 288 LINE"
);
}
);
width = 554.78776;
}
);
leftKerningGroup = LAT_E;
unicode = 0050;
},
{
color = 4;
glyphname = Thorn;
lastChange = "2019-06-06 17:04:15 +0000";
layers = (
{
associatedMasterId = "04BF5C93-05E4-4DB8-B59C-EE59F3489DF8";
layerId = "70023048-75D4-4F59-8BF9-49EEC6A33CD1";
paths = (
{
closed = 1;
nodes = (
"244 0 LINE",
"248 21 LINE",
"227 27 LINE SMOOTH",
"204 35 OFFCURVE",
"195 50 OFFCURVE",
"199 74 CURVE SMOOTH",
"203 96 OFFCURVE",
"206 119 OFFCURVE",
"210 143 CURVE",
"255 143 LINE SMOOTH",
"460 143 OFFCURVE",
"563 238 OFFCURVE",
"563 356 CURVE SMOOTH",
"563 466 OFFCURVE",
"490 535 OFFCURVE",
"320 535 CURVE SMOOTH",
"284 535 LINE",
"294 586 LINE SMOOTH",
"299 613 OFFCURVE",
"313 629 OFFCURVE",
"340 637 CURVE SMOOTH",
"354 640 LINE",
"358 661 LINE",
"123 661 LINE",
"118 640 LINE",
"133 636 LINE",
"156 628 OFFCURVE",
"166 613 OFFCURVE",
"162 588 CURVE SMOOTH",
"149 509 OFFCURVE",
"135 430 OFFCURVE",
"120 351 CURVE SMOOTH",
"68 77 LINE SMOOTH",
"63 49 OFFCURVE",
"48 33 OFFCURVE",
"21 25 CURVE SMOOTH",
"7 21 LINE",
"4 0 LINE"
);
},
{
closed = 1;
nodes = (
"224 218 OFFCURVE",
"233 264 OFFCURVE",
"241 310 CURVE",
"279 506 LINE",
"308 506 LINE SMOOTH",
"392 506 OFFCURVE",
"432 455 OFFCURVE",
"432.003 361.006 CURVE SMOOTH",
"432 243 OFFCURVE",
"369 172 OFFCURVE",
"260 172 CURVE SMOOTH",
"216 172 LINE"
);
}
);
width = 553.89557;
},
{
layerId = "04BF5C93-05E4-4DB8-B59C-EE59F3489DF8";
paths = (
{
closed = 1;
nodes = (
"244 0 LINE",
"248 21 LINE",
"227 27 LINE SMOOTH",
"204 35 OFFCURVE",
"195 50 OFFCURVE",
"199 74 CURVE SMOOTH",
"203 96 OFFCURVE",
"206 119 OFFCURVE",
"210 143 CURVE",
"255 143 LINE SMOOTH",
"460 143 OFFCURVE",
"563 238 OFFCURVE",
"563 356 CURVE SMOOTH",
"563 466 OFFCURVE",
"490 535 OFFCURVE",
"320 535 CURVE SMOOTH",
"284 535 LINE",
"294 586 LINE SMOOTH",
"299 613 OFFCURVE",
"313 629 OFFCURVE",
"340 637 CURVE SMOOTH",
"354 640 LINE",
"358 661 LINE",
"123 661 LINE",
"118 640 LINE",
"133 636 LINE",
"156 628 OFFCURVE",
"166 613 OFFCURVE",
"162 588 CURVE SMOOTH",
"149 509 OFFCURVE",
"135 430 OFFCURVE",
"120 351 CURVE SMOOTH",
"68 77 LINE SMOOTH",
"63 49 OFFCURVE",
"48 33 OFFCURVE",
"21 25 CURVE SMOOTH",
"7 21 LINE",
"4 0 LINE"
);
},
{
closed = 1;
nodes = (
"224 218 OFFCURVE",
"233 264 OFFCURVE",
"241 310 CURVE",
"279 506 LINE",
"308 506 LINE SMOOTH",
"392 506 OFFCURVE",
"432 455 OFFCURVE",
"432.003 361.006 CURVE SMOOTH",
"432 243 OFFCURVE",
"369 172 OFFCURVE",
"260 172 CURVE SMOOTH",
"216 172 LINE"
);
}
);
width = 553.89557;
}
);
leftKerningGroup = LAT_E;
leftMetricsKey = P;
unicode = 00DE;
},
{
color = 4;
glyphname = Q;
lastChange = "2019-06-06 17:04:15 +0000";
layers = (
{
anchors = (
{
name = aboveUC;
position = "{412, 687}";
}
);
associatedMasterId = "04BF5C93-05E4-4DB8-B59C-EE59F3489DF8";
components = (
{
alignment = -1;
name = O;
}
);
layerId = "70023048-75D4-4F59-8BF9-49EEC6A33CD1";
paths = (
{
closed = 1;
nodes = (
"415 -224 OFFCURVE",
"447 -208 OFFCURVE",
"487 -174 CURVE SMOOTH",
"547 -124 LINE",
"535 -106 LINE",
"500 -123 LINE SMOOTH",
"478 -135 OFFCURVE",
"459 -137 OFFCURVE",
"433 -131 CURVE SMOOTH",
"323 -105 OFFCURVE",
"209 -74 OFFCURVE",
"138 -55 CURVE",
"109 -116 LINE",
"233 20 LINE",
"202 35 LINE",
"24 -177 LINE",
"43 -190 LINE",
"57 -180 LINE SMOOTH",
"78 -164 OFFCURVE",
"99 -160 OFFCURVE",
"124 -166 CURVE SMOOTH",
"214 -188 OFFCURVE",
"339 -224 OFFCURVE",
"380 -224 CURVE SMOOTH"
);
}
);
width = 665.98101;
},
{
anchors = (
{
name = aboveUC;
position = "{412, 687}";
}
);
components = (
{
alignment = -1;
name = O;
}
);
layerId = "04BF5C93-05E4-4DB8-B59C-EE59F3489DF8";
paths = (
{
closed = 1;
nodes = (
"415 -224 OFFCURVE",
"447 -208 OFFCURVE",
"487 -174 CURVE SMOOTH",
"547 -124 LINE",
"535 -106 LINE",
"500 -123 LINE SMOOTH",
"478 -135 OFFCURVE",
"459 -137 OFFCURVE",
"433 -131 CURVE SMOOTH",
"323 -105 OFFCURVE",
"209 -74 OFFCURVE",
"138 -55 CURVE",
"109 -116 LINE",
"233 20 LINE",
"202 35 LINE",
"24 -177 LINE",
"43 -190 LINE",
"57 -180 LINE SMOOTH",
"78 -164 OFFCURVE",
"99 -160 OFFCURVE",
"124 -166 CURVE SMOOTH",
"214 -188 OFFCURVE",
"339 -224 OFFCURVE",
"380 -224 CURVE SMOOTH"
);
}
);
width = 665.98101;
}
);
leftKerningGroup = LAT_O;
rightKerningGroup = LAT_O;
unicode = 0051;
},
{
color = 4;
glyphname = R;
lastChange = "2019-06-06 17:04:15 +0000";
layers = (
{
anchors = (
{
name = aboveUC;
position = "{349, 687}";
},
{
name = belowLC;
position = "{340, -22}";
}
);
associatedMasterId = "04BF5C93-05E4-4DB8-B59C-EE59F3489DF8";
layerId = "70023048-75D4-4F59-8BF9-49EEC6A33CD1";
paths = (
{
closed = 1;
nodes = (
"240 0 LINE",
"244 21 LINE",
"232 25 LINE SMOOTH",
"207 34 OFFCURVE",
"195 51 OFFCURVE",
"200 78 CURVE SMOOTH",
"214 159 OFFCURVE",
"227 235 OFFCURVE",
"240 305 CURVE",
"306 305 LINE",
"411 0 LINE",
"583 0 LINE",
"588 21 LINE",
"578 24 LINE SMOOTH",
"553 34 OFFCURVE",
"537 50 OFFCURVE",
"527 76 CURVE SMOOTH",
"420 339 LINE",
"344 314 LINE",
"502 325 OFFCURVE",
"591 405 OFFCURVE",
"591 507 CURVE SMOOTH",
"591 602 OFFCURVE",
"520 661 OFFCURVE",
"372 661 CURVE SMOOTH",
"123 661 LINE",
"118 640 LINE",
"129 637 LINE SMOOTH",
"155 628 OFFCURVE",
"166 610 OFFCURVE",
"161 582 CURVE SMOOTH",
"148 506 OFFCURVE",
"133 425 OFFCURVE",
"120 351 CURVE SMOOTH",
"69 79 LINE SMOOTH",
"64 51 OFFCURVE",
"49 34 OFFCURVE",
"22 26 CURVE SMOOTH",
"8 21 LINE",
"4 0 LINE"
);
},
{
closed = 1;
nodes = (
"302 632 LINE",
"348 632 LINE SMOOTH",
"424 632 OFFCURVE",
"462 589 OFFCURVE",
"462 505 CURVE SMOOTH",
"462 401 OFFCURVE",
"408 335 OFFCURVE",
"299 334 CURVE SMOOTH",
"246 334 LINE"
);
}
);
width = 635.84177;
},
{
anchors = (
{
name = aboveUC;
position = "{349, 687}";
},
{
name = belowLC;
position = "{340, -22}";
}
);
layerId = "04BF5C93-05E4-4DB8-B59C-EE59F3489DF8";
paths = (
{
closed = 1;
nodes = (
"240 0 LINE",
"244 21 LINE",
"232 25 LINE SMOOTH",
"207 34 OFFCURVE",
"195 51 OFFCURVE",
"200 78 CURVE SMOOTH",
"214 159 OFFCURVE",
"227 235 OFFCURVE",
"240 305 CURVE",
"306 305 LINE",
"411 0 LINE",
"583 0 LINE",
"588 21 LINE",
"578 24 LINE SMOOTH",
"553 34 OFFCURVE",
"537 50 OFFCURVE",
"527 76 CURVE SMOOTH",
"420 339 LINE",
"344 314 LINE",
"502 325 OFFCURVE",
"591 405 OFFCURVE",
"591 507 CURVE SMOOTH",
"591 602 OFFCURVE",
"520 661 OFFCURVE",
"372 661 CURVE SMOOTH",
"123 661 LINE",
"118 640 LINE",
"129 637 LINE SMOOTH",
"155 628 OFFCURVE",
"166 610 OFFCURVE",
"161 582 CURVE SMOOTH",
"148 506 OFFCURVE",
"133 425 OFFCURVE",
"120 351 CURVE SMOOTH",
"69 79 LINE SMOOTH",
"64 51 OFFCURVE",
"49 34 OFFCURVE",
"22 26 CURVE SMOOTH",
"8 21 LINE",
"4 0 LINE"
);
},
{
closed = 1;
nodes = (
"302 632 LINE",
"348 632 LINE SMOOTH",
"424 632 OFFCURVE",
"462 589 OFFCURVE",
"462 505 CURVE SMOOTH",
"462 401 OFFCURVE",
"408 335 OFFCURVE",
"299 334 CURVE SMOOTH",
"246 334 LINE"
);
}
);
width = 635.84177;
}
);
leftKerningGroup = LAT_E;
rightKerningGroup = LAT_R;
unicode = 0052;
},
{
color = 4;
glyphname = S;
lastChange = "2019-06-06 17:04:15 +0000";
layers = (
{
anchors = (
{
name = aboveUC;
position = "{350, 687}";
},
{
name = baseLC;
position = "{216, 0}";
},
{
name = belowLC;
position = "{217, -22}";
}
);
associatedMasterId = "04BF5C93-05E4-4DB8-B59C-EE59F3489DF8";
layerId = "70023048-75D4-4F59-8BF9-49EEC6A33CD1";
paths = (
{
closed = 1;
nodes = (
"358 -17 OFFCURVE",
"460 61 OFFCURVE",
"460 185 CURVE SMOOTH",
"460 256 OFFCURVE",
"427 313 OFFCURVE",
"320 390 CURVE SMOOTH",
"243 447 OFFCURVE",
"217 487 OFFCURVE",
"217 542 CURVE SMOOTH",
"217 608 OFFCURVE",
"272 648 OFFCURVE",
"336 648 CURVE",
"401 648 OFFCURVE",
"430 621 OFFCURVE",
"448 554 CURVE SMOOTH",
"464 489 LINE",
"492 489 LINE",
"518 630 LINE",
"472 661 OFFCURVE",
"402 679 OFFCURVE",
"339 679 CURVE SMOOTH",
"202 679 OFFCURVE",
"105 600 OFFCURVE",
"105 484 CURVE SMOOTH",
"105 417 OFFCURVE",
"132 354 OFFCURVE",
"239 278 CURVE SMOOTH",
"325 215 OFFCURVE",
"342 178 OFFCURVE",
"342 128 CURVE SMOOTH",
"342 63 OFFCURVE",
"293 13 OFFCURVE",
"216 13 CURVE SMOOTH",
"151 13 OFFCURVE",
"120 38 OFFCURVE",
"101 101 CURVE SMOOTH",
"76 178 LINE",
"49 178 LINE",
"27 31 LINE",
"73 1 OFFCURVE",
"146 -17 OFFCURVE",
"213 -17 CURVE SMOOTH"
);
}
);
width = 498.48576;
},
{
anchors = (
{
name = aboveUC;
position = "{350, 687}";
},
{
name = baseLC;
position = "{216, 0}";
},
{
name = belowLC;
position = "{217, -22}";
}
);
layerId = "04BF5C93-05E4-4DB8-B59C-EE59F3489DF8";
paths = (
{
closed = 1;
nodes = (
"358 -17 OFFCURVE",
"460 61 OFFCURVE",
"460 185 CURVE SMOOTH",
"460 256 OFFCURVE",
"427 313 OFFCURVE",
"320 390 CURVE SMOOTH",
"243 447 OFFCURVE",
"217 487 OFFCURVE",
"217 542 CURVE SMOOTH",
"217 608 OFFCURVE",
"272 648 OFFCURVE",
"336 648 CURVE",
"401 648 OFFCURVE",
"430 621 OFFCURVE",
"448 554 CURVE SMOOTH",
"464 489 LINE",
"492 489 LINE",
"518 630 LINE",
"472 661 OFFCURVE",
"402 679 OFFCURVE",
"339 679 CURVE SMOOTH",
"202 679 OFFCURVE",
"105 600 OFFCURVE",
"105 484 CURVE SMOOTH",
"105 417 OFFCURVE",
"132 354 OFFCURVE",
"239 278 CURVE SMOOTH",
"325 215 OFFCURVE",
"342 178 OFFCURVE",
"342 128 CURVE SMOOTH",
"342 63 OFFCURVE",
"293 13 OFFCURVE",
"216 13 CURVE SMOOTH",
"151 13 OFFCURVE",
"120 38 OFFCURVE",
"101 101 CURVE SMOOTH",
"76 178 LINE",
"49 178 LINE",
"27 31 LINE",
"73 1 OFFCURVE",
"146 -17 OFFCURVE",
"213 -17 CURVE SMOOTH"
);
}
);
width = 498.48576;
}
);
leftKerningGroup = LAT_S;
rightKerningGroup = LAT_S;
unicode = 0053;
},
{
color = 4;
glyphname = T;
lastChange = "2019-06-06 17:04:15 +0000";
layers = (
{
anchors = (
{
name = aboveUC;
position = "{389, 687}";
},
{
name = baseLC;
position = "{267, 0}";
},
{
name = belowLC;
position = "{266, -22}";
}
);
associatedMasterId = "04BF5C93-05E4-4DB8-B59C-EE59F3489DF8";
layerId = "70023048-75D4-4F59-8BF9-49EEC6A33CD1";
paths = (
{
closed = 1;
nodes = (
"396 0 LINE",
"400 21 LINE",
"385 25 LINE SMOOTH",
"355 36 OFFCURVE",
"341 58 OFFCURVE",
"346 91 CURVE SMOOTH",
"359 163 OFFCURVE",
"373 242 OFFCURVE",
"386 310 CURVE SMOOTH",
"447 631 LINE",
"488 631 LINE SMOOTH",
"532 631 OFFCURVE",
"560 611 OFFCURVE",
"573 569 CURVE SMOOTH",
"603 478 LINE",
"628 478 LINE",
"660 661 LINE",
"111 661 LINE",
"73 478 LINE",
"99 478 LINE",
"168.997 578.004 LINE SMOOTH",
"194 615 OFFCURVE",
"225 631 OFFCURVE",
"270 631 CURVE SMOOTH",
"314 631 LINE",
"300 546 OFFCURVE",
"281 436 OFFCURVE",
"265 351 CURVE SMOOTH",
"216 90 LINE SMOOTH",
"210 58 OFFCURVE",
"193 38 OFFCURVE",
"162 28 CURVE SMOOTH",
"138 21 LINE",
"134 0 LINE"
);
}
);
width = 595.41297;
},
{
anchors = (
{
name = aboveUC;
position = "{389, 687}";
},
{
name = baseLC;
position = "{267, 0}";
},
{
name = belowLC;
position = "{266, -22}";
}
);
layerId = "04BF5C93-05E4-4DB8-B59C-EE59F3489DF8";
paths = (
{
closed = 1;
nodes = (
"396 0 LINE",
"400 21 LINE",
"385 25 LINE SMOOTH",
"355 36 OFFCURVE",
"341 58 OFFCURVE",
"346 91 CURVE SMOOTH",
"359 163 OFFCURVE",
"373 242 OFFCURVE",
"386 310 CURVE SMOOTH",
"447 631 LINE",
"488 631 LINE SMOOTH",
"532 631 OFFCURVE",
"560 611 OFFCURVE",
"573 569 CURVE SMOOTH",
"603 478 LINE",
"628 478 LINE",
"660 661 LINE",
"111 661 LINE",
"73 478 LINE",
"99 478 LINE",
"168.997 578.004 LINE SMOOTH",
"194 615 OFFCURVE",
"225 631 OFFCURVE",
"270 631 CURVE SMOOTH",
"314 631 LINE",
"300 546 OFFCURVE",
"281 436 OFFCURVE",
"265 351 CURVE SMOOTH",
"216 90 LINE SMOOTH",
"210 58 OFFCURVE",
"193 38 OFFCURVE",
"162 28 CURVE SMOOTH",
"138 21 LINE",
"134 0 LINE"
);
}
);
width = 595.41297;
}
);
leftKerningGroup = LAT_T;
rightKerningGroup = LAT_T;
unicode = 0054;
},
{
color = 4;
glyphname = U;
lastChange = "2019-06-06 17:04:15 +0000";
layers = (
{
anchors = (
{
name = aboveUC;
position = "{443, 687}";
},
{
name = belowLC;
position = "{299, -22}";
},
{
name = hornLC;
position = "{657, 680}";
},
{
name = ogonek;
position = "{400, 0}";
}
);
associatedMasterId = "04BF5C93-05E4-4DB8-B59C-EE59F3489DF8";
layerId = "70023048-75D4-4F59-8BF9-49EEC6A33CD1";
paths = (
{
closed = 1;
nodes = (
"450 -17 OFFCURVE",
"541 75 OFFCURVE",
"571 236 CURVE SMOOTH",
"634 579 LINE SMOOTH",
"640 610 OFFCURVE",
"657 629 OFFCURVE",
"687 637 CURVE SMOOTH",
"696 640 LINE",
"700 661 LINE",
"559 661 LINE",
"555 640 LINE",
"562 638 LINE",
"591 629 OFFCURVE",
"604 609 OFFCURVE",
"598 578 CURVE SMOOTH",
"535 246 LINE SMOOTH",
"511 119 OFFCURVE",
"452 49 OFFCURVE",
"347 49 CURVE SMOOTH",
"265 49 OFFCURVE",
"217 100 OFFCURVE",
"217 187 CURVE SMOOTH",
"217 220 OFFCURVE",
"221 251 OFFCURVE",
"227 282 CURVE SMOOTH",
"283 579 LINE SMOOTH",
"289 610 OFFCURVE",
"306 628 OFFCURVE",
"336 637 CURVE SMOOTH",
"347 640 LINE",
"351 661 LINE",
"104 661 LINE",
"100 640 LINE",
"108 638 LINE",
"138 629 OFFCURVE",
"151 609 OFFCURVE",
"146 577 CURVE SMOOTH",
"133 505 OFFCURVE",
"118 425 OFFCURVE",
"106.006 358.006 CURVE SMOOTH",
"91 276 LINE SMOOTH",
"85 242 OFFCURVE",
"81 210 OFFCURVE",
"81 181 CURVE SMOOTH",
"81 49 OFFCURVE",
"170 -17 OFFCURVE",
"304 -17 CURVE SMOOTH"
);
}
);
width = 627.23953;
},
{
anchors = (
{
name = aboveUC;
position = "{443, 687}";
},
{
name = belowLC;
position = "{299, -22}";
},
{
name = hornLC;
position = "{657, 680}";
},
{
name = ogonek;
position = "{400, 0}";
}
);
layerId = "04BF5C93-05E4-4DB8-B59C-EE59F3489DF8";
paths = (
{
closed = 1;
nodes = (
"450 -17 OFFCURVE",
"541 75 OFFCURVE",
"571 236 CURVE SMOOTH",
"634 579 LINE SMOOTH",
"640 610 OFFCURVE",
"657 629 OFFCURVE",
"687 637 CURVE SMOOTH",
"696 640 LINE",
"700 661 LINE",
"559 661 LINE",
"555 640 LINE",
"562 638 LINE",
"591 629 OFFCURVE",
"604 609 OFFCURVE",
"598 578 CURVE SMOOTH",
"535 246 LINE SMOOTH",
"511 119 OFFCURVE",
"452 49 OFFCURVE",
"347 49 CURVE SMOOTH",
"265 49 OFFCURVE",
"217 100 OFFCURVE",
"217 187 CURVE SMOOTH",
"217 220 OFFCURVE",
"221 251 OFFCURVE",
"227 282 CURVE SMOOTH",
"283 579 LINE SMOOTH",
"289 610 OFFCURVE",
"306 628 OFFCURVE",
"336 637 CURVE SMOOTH",
"347 640 LINE",
"351 661 LINE",
"104 661 LINE",
"100 640 LINE",
"108 638 LINE",
"138 629 OFFCURVE",
"151 609 OFFCURVE",
"146 577 CURVE SMOOTH",
"133 505 OFFCURVE",
"118 425 OFFCURVE",
"106.006 358.006 CURVE SMOOTH",
"91 276 LINE SMOOTH",
"85 242 OFFCURVE",
"81 210 OFFCURVE",
"81 181 CURVE SMOOTH",
"81 49 OFFCURVE",
"170 -17 OFFCURVE",
"304 -17 CURVE SMOOTH"
);
}
);
width = 627.23953;
}
);
leftKerningGroup = LAT_U;
rightKerningGroup = LAT_U;
unicode = 0055;
},
{
color = 4;
glyphname = V;
lastChange = "2019-06-06 17:04:15 +0000";
layers = (
{
anchors = (
{
name = aboveUC;
position = "{425, 687}";
},
{
name = belowLC;
position = "{271, -22}";
}
);
associatedMasterId = "04BF5C93-05E4-4DB8-B59C-EE59F3489DF8";
layerId = "70023048-75D4-4F59-8BF9-49EEC6A33CD1";
paths = (
{
closed = 1;
nodes = (
"291 -5 LINE",
"592 582 LINE SMOOTH",
"608 611 OFFCURVE",
"627 627 OFFCURVE",
"659 637 CURVE SMOOTH",
"670 640 LINE",
"674 661 LINE",
"531 661 LINE",
"528 641 LINE",
"536 638 LINE SMOOTH",
"562 630 OFFCURVE",
"570 611 OFFCURVE",
"558 587 CURVE SMOOTH",
"333 141 LINE",
"269 583 LINE SMOOTH",
"265 610 OFFCURVE",
"276 628 OFFCURVE",
"302 637 CURVE",
"314 641 LINE",
"317 661 LINE",
"86 661 LINE",
"82 640 LINE",
"87 639 LINE",
"112 628 OFFCURVE",
"125 611 OFFCURVE",
"130 583 CURVE SMOOTH",
"227 -5 LINE"
);
}
);
width = 603.50475;
},
{
anchors = (
{
name = aboveUC;
position = "{425, 687}";
},
{
name = belowLC;
position = "{271, -22}";
}
);
layerId = "04BF5C93-05E4-4DB8-B59C-EE59F3489DF8";
paths = (
{
closed = 1;
nodes = (
"291 -5 LINE",
"592 582 LINE SMOOTH",
"608 611 OFFCURVE",
"627 627 OFFCURVE",
"659 637 CURVE SMOOTH",
"670 640 LINE",
"674 661 LINE",
"531 661 LINE",
"528 641 LINE",
"536 638 LINE SMOOTH",
"562 630 OFFCURVE",
"570 611 OFFCURVE",
"558 587 CURVE SMOOTH",
"333 141 LINE",
"269 583 LINE SMOOTH",
"265 610 OFFCURVE",
"276 628 OFFCURVE",
"302 637 CURVE",
"314 641 LINE",
"317 661 LINE",
"86 661 LINE",
"82 640 LINE",
"87 639 LINE",
"112 628 OFFCURVE",
"125 611 OFFCURVE",
"130 583 CURVE SMOOTH",
"227 -5 LINE"
);
}
);
width = 603.50475;
}
);
unicode = 0056;
},
{
color = 4;
glyphname = W;
lastChange = "2019-06-06 17:04:15 +0000";
layers = (
{
anchors = (
{
name = aboveUC;
position = "{547, 687}";
},
{
name = belowLC;
position = "{430, -12}";
}
);
associatedMasterId = "04BF5C93-05E4-4DB8-B59C-EE59F3489DF8";
layerId = "70023048-75D4-4F59-8BF9-49EEC6A33CD1";
paths = (
{
closed = 1;
nodes = (
"608 -5 LINE",
"873 586 LINE SMOOTH",
"884 611 OFFCURVE",
"900 626 OFFCURVE",
"926 634 CURVE SMOOTH",
"947 640 LINE",
"952 661 LINE",
"803 661 LINE",
"799 640 LINE",
"816 634 LINE SMOOTH",
"838 626 OFFCURVE",
"845 610 OFFCURVE",
"836 587 CURVE SMOOTH",
"640 149 LINE",
"592 586 LINE SMOOTH",
"589 609 OFFCURVE",
"599 625 OFFCURVE",
"622 633 CURVE SMOOTH",
"647 640 LINE",
"651 661 LINE",
"416 661 LINE",
"412 640 LINE",
"431 634 LINE SMOOTH",
"453 627 OFFCURVE",
"466 612 OFFCURVE",
"469 588 CURVE SMOOTH",
"539 -5 LINE"
);
},
{
closed = 1;
nodes = (
"252 -5 LINE",
"490 476 LINE",
"485 542 LINE",
"289 153 LINE",
"259 588 LINE SMOOTH",
"257 612 OFFCURVE",
"268 628 OFFCURVE",
"290 634 CURVE SMOOTH",
"310 640 LINE",
"315 661 LINE",
"81 661 LINE",
"77 640 LINE",
"88 636 LINE",
"112 628 OFFCURVE",
"125 613 OFFCURVE",
"127 588 CURVE SMOOTH",
"183 -5 LINE"
);
}
);
width = 873.43196;
},
{
anchors = (
{
name = aboveUC;
position = "{547, 687}";
},
{
name = belowLC;
position = "{430, -12}";
}
);
layerId = "04BF5C93-05E4-4DB8-B59C-EE59F3489DF8";
paths = (
{
closed = 1;
nodes = (
"608 -5 LINE",
"873 586 LINE SMOOTH",
"884 611 OFFCURVE",
"900 626 OFFCURVE",
"926 634 CURVE SMOOTH",
"947 640 LINE",
"952 661 LINE",
"803 661 LINE",
"799 640 LINE",
"816 634 LINE SMOOTH",
"838 626 OFFCURVE",
"845 610 OFFCURVE",
"836 587 CURVE SMOOTH",
"640 149 LINE",
"592 586 LINE SMOOTH",
"589 609 OFFCURVE",
"599 625 OFFCURVE",
"622 633 CURVE SMOOTH",
"647 640 LINE",
"651 661 LINE",
"416 661 LINE",
"412 640 LINE",
"431 634 LINE SMOOTH",
"453 627 OFFCURVE",
"466 612 OFFCURVE",
"469 588 CURVE SMOOTH",
"539 -5 LINE"
);
},
{
closed = 1;
nodes = (
"252 -5 LINE",
"490 476 LINE",
"485 542 LINE",
"289 153 LINE",
"259 588 LINE SMOOTH",
"257 612 OFFCURVE",
"268 628 OFFCURVE",
"290 634 CURVE SMOOTH",
"310 640 LINE",
"315 661 LINE",
"81 661 LINE",
"77 640 LINE",
"88 636 LINE",
"112 628 OFFCURVE",
"125 613 OFFCURVE",
"127 588 CURVE SMOOTH",
"183 -5 LINE"
);
}
);
width = 873.43196;
}
);
leftKerningGroup = LAT_W;
rightKerningGroup = LAT_W;
unicode = 0057;
},
{
color = 4;
glyphname = X;
lastChange = "2019-06-06 17:04:15 +0000";
layers = (
{
anchors = (
{
name = aboveUC;
position = "{426, 687}";
},
{
name = belowLC;
position = "{259, -22}";
}
);
associatedMasterId = "04BF5C93-05E4-4DB8-B59C-EE59F3489DF8";
layerId = "70023048-75D4-4F59-8BF9-49EEC6A33CD1";
paths = (
{
closed = 1;
nodes = (
"587 0 LINE",
"591 21 LINE",
"574 27 LINE SMOOTH",
"546 37 OFFCURVE",
"529 53 OFFCURVE",
"517 80 CURVE SMOOTH",
"308 588 LINE SMOOTH",
"299 611 OFFCURVE",
"307 629 OFFCURVE",
"332 635 CURVE SMOOTH",
"348 640 LINE",
"352 661 LINE",
"103 661 LINE",
"99 640 LINE",
"110 637 LINE SMOOTH",
"139 629 OFFCURVE",
"156 613 OFFCURVE",
"167 585 CURVE SMOOTH",
"377 76 LINE SMOOTH",
"387 52 OFFCURVE",
"379 34 OFFCURVE",
"355 25 CURVE SMOOTH",
"346 21 LINE",
"341 0 LINE"
);
},
{
closed = 1;
nodes = (
"170 0 LINE",
"174 21 LINE",
"151 28 LINE SMOOTH",
"127 35 OFFCURVE",
"121 53 OFFCURVE",
"137 73 CURVE SMOOTH",
"339 324 LINE",
"316 342 LINE",
"96 73 LINE SMOOTH",
"78 51 OFFCURVE",
"59 38 OFFCURVE",
"31 30 CURVE SMOOTH",
"1 21 LINE",
"-3 0 LINE"
);
},
{
closed = 1;
nodes = (
"582 591 LINE SMOOTH",
"600 614 OFFCURVE",
"619 626 OFFCURVE",
"647 634 CURVE SMOOTH",
"669 640 LINE",
"673 661 LINE",
"522 661 LINE",
"518 640 LINE",
"531 636 LINE SMOOTH",
"553 628 OFFCURVE",
"558 611 OFFCURVE",
"544 592 CURVE SMOOTH",
"350 351 LINE",
"371 333 LINE"
);
}
);
width = 620.42563;
},
{
anchors = (
{
name = aboveUC;
position = "{426, 687}";
},
{
name = belowLC;
position = "{259, -22}";
}
);
layerId = "04BF5C93-05E4-4DB8-B59C-EE59F3489DF8";
paths = (
{
closed = 1;
nodes = (
"587 0 LINE",
"591 21 LINE",
"574 27 LINE SMOOTH",
"546 37 OFFCURVE",
"529 53 OFFCURVE",
"517 80 CURVE SMOOTH",
"308 588 LINE SMOOTH",
"299 611 OFFCURVE",
"307 629 OFFCURVE",
"332 635 CURVE SMOOTH",
"348 640 LINE",
"352 661 LINE",
"103 661 LINE",
"99 640 LINE",
"110 637 LINE SMOOTH",
"139 629 OFFCURVE",
"156 613 OFFCURVE",
"167 585 CURVE SMOOTH",
"377 76 LINE SMOOTH",
"387 52 OFFCURVE",
"379 34 OFFCURVE",
"355 25 CURVE SMOOTH",
"346 21 LINE",
"341 0 LINE"
);
},
{
closed = 1;
nodes = (
"170 0 LINE",
"174 21 LINE",
"151 28 LINE SMOOTH",
"127 35 OFFCURVE",
"121 53 OFFCURVE",
"137 73 CURVE SMOOTH",
"339 324 LINE",
"316 342 LINE",
"96 73 LINE SMOOTH",
"78 51 OFFCURVE",
"59 38 OFFCURVE",
"31 30 CURVE SMOOTH",
"1 21 LINE",
"-3 0 LINE"
);
},
{
closed = 1;
nodes = (
"582 591 LINE SMOOTH",
"600 614 OFFCURVE",
"619 626 OFFCURVE",
"647 634 CURVE SMOOTH",
"669 640 LINE",
"673 661 LINE",
"522 661 LINE",
"518 640 LINE",
"531 636 LINE SMOOTH",
"553 628 OFFCURVE",
"558 611 OFFCURVE",
"544 592 CURVE SMOOTH",
"350 351 LINE",
"371 333 LINE"
);
}
);
width = 620.42563;
}
);
unicode = 0058;
},
{
color = 4;
glyphname = Y;
lastChange = "2019-06-06 17:04:15 +0000";
layers = (
{
anchors = (
{
name = aboveUC;
position = "{411, 687}";
},
{
name = belowLC;
position = "{254, -22}";
}
);
associatedMasterId = "04BF5C93-05E4-4DB8-B59C-EE59F3489DF8";
layerId = "70023048-75D4-4F59-8BF9-49EEC6A33CD1";
paths = (
{
closed = 1;
nodes = (
"386 0 LINE",
"391 21 LINE",
"369 27 LINE SMOOTH",
"344 35 OFFCURVE",
"333 52 OFFCURVE",
"338 77 CURVE SMOOTH",
"349 144 OFFCURVE",
"364 224 OFFCURVE",
"375 285 CURVE",
"566 592 LINE SMOOTH",
"580 615 OFFCURVE",
"597 627 OFFCURVE",
"622 634 CURVE SMOOTH",
"642 640 LINE",
"646 661 LINE",
"503 661 LINE",
"499 640 LINE",
"516 635 LINE SMOOTH",
"537 629 OFFCURVE",
"543 613 OFFCURVE",
"532 594 CURVE SMOOTH",
"361 318 LINE",
"279 591 LINE SMOOTH",
"273 613 OFFCURVE",
"281 629 OFFCURVE",
"304 635 CURVE",
"322 640 LINE",
"326 661 LINE",
"81 661 LINE",
"77 640 LINE",
"89 636 LINE SMOOTH",
"113 629 OFFCURVE",
"127 614 OFFCURVE",
"135 590 CURVE SMOOTH",
"243 269 LINE",
"206 79 LINE SMOOTH",
"201 51 OFFCURVE",
"186 35 OFFCURVE",
"160 28 CURVE SMOOTH",
"136 21 LINE",
"132 0 LINE"
);
}
);
width = 567.95253;
},
{
anchors = (
{
name = aboveUC;
position = "{411, 687}";
},
{
name = belowLC;
position = "{254, -22}";
}
);
layerId = "04BF5C93-05E4-4DB8-B59C-EE59F3489DF8";
paths = (
{
closed = 1;
nodes = (
"386 0 LINE",
"391 21 LINE",
"369 27 LINE SMOOTH",
"344 35 OFFCURVE",
"333 52 OFFCURVE",
"338 77 CURVE SMOOTH",
"349 144 OFFCURVE",
"364 224 OFFCURVE",
"375 285 CURVE",
"566 592 LINE SMOOTH",
"580 615 OFFCURVE",
"597 627 OFFCURVE",
"622 634 CURVE SMOOTH",
"642 640 LINE",
"646 661 LINE",
"503 661 LINE",
"499 640 LINE",
"516 635 LINE SMOOTH",
"537 629 OFFCURVE",
"543 613 OFFCURVE",
"532 594 CURVE SMOOTH",
"361 318 LINE",
"279 591 LINE SMOOTH",
"273 613 OFFCURVE",
"281 629 OFFCURVE",
"304 635 CURVE",
"322 640 LINE",
"326 661 LINE",
"81 661 LINE",
"77 640 LINE",
"89 636 LINE SMOOTH",
"113 629 OFFCURVE",
"127 614 OFFCURVE",
"135 590 CURVE SMOOTH",
"243 269 LINE",
"206 79 LINE SMOOTH",
"201 51 OFFCURVE",
"186 35 OFFCURVE",
"160 28 CURVE SMOOTH",
"136 21 LINE",
"132 0 LINE"
);
}
);
width = 567.95253;
}
);
leftKerningGroup = LAT_Y;
rightKerningGroup = LAT_Y;
unicode = 0059;
},
{
color = 4;
glyphname = Z;
lastChange = "2019-06-06 17:04:15 +0000";
layers = (
{
anchors = (
{
name = aboveUC;
position = "{359, 687}";
},
{
name = belowLC;
position = "{252, -22}";
}
);
associatedMasterId = "04BF5C93-05E4-4DB8-B59C-EE59F3489DF8";
layerId = "70023048-75D4-4F59-8BF9-49EEC6A33CD1";
paths = (
{
closed = 1;
nodes = (
"490 0 LINE",
"529 183 LINE",
"502 183 LINE",
"432 92 LINE SMOOTH",
"400 48 OFFCURVE",
"363 30 OFFCURVE",
"308 30 CURVE SMOOTH",
"148 30 LINE",
"590 635 LINE",
"595 661 LINE",
"116 661 LINE",
"77 478 LINE",
"103 478 LINE",
"182 579 LINE SMOOTH",
"210 616 OFFCURVE",
"243 631 OFFCURVE",
"289 631 CURVE SMOOTH",
"442 631 LINE",
"1 25 LINE",
"-4 0 LINE"
);
}
);
width = 541.98418;
},
{
anchors = (
{
name = aboveUC;
position = "{359, 687}";
},
{
name = belowLC;
position = "{252, -22}";
}
);
layerId = "04BF5C93-05E4-4DB8-B59C-EE59F3489DF8";
paths = (
{
closed = 1;
nodes = (
"490 0 LINE",
"529 183 LINE",
"502 183 LINE",
"432 92 LINE SMOOTH",
"400 48 OFFCURVE",
"363 30 OFFCURVE",
"308 30 CURVE SMOOTH",
"148 30 LINE",
"590 635 LINE",
"595 661 LINE",
"116 661 LINE",
"77 478 LINE",
"103 478 LINE",
"182 579 LINE SMOOTH",
"210 616 OFFCURVE",
"243 631 OFFCURVE",
"289 631 CURVE SMOOTH",
"442 631 LINE",
"1 25 LINE",
"-4 0 LINE"
);
}
);
width = 541.98418;
}
);
leftKerningGroup = LAT_Z;
rightKerningGroup = LAT_Z;
unicode = 005A;
},
{
color = 4;
glyphname = a;
lastChange = "2019-06-06 20:59:30 +0000";
layers = (
{
anchors = (
{
name = aboveLC;
position = "{374, 513}";
},
{
name = belowLC;
position = "{255, -22}";
},
{
name = ogonek;
position = "{437, 0}";
}
);
associatedMasterId = "04BF5C93-05E4-4DB8-B59C-EE59F3489DF8";
layerId = "70023048-75D4-4F59-8BF9-49EEC6A33CD1";
paths = (
{
closed = 1;
nodes = (
"218 -14 OFFCURVE",
"297 60 OFFCURVE",
"359 139 CURVE",
"356 160 LINE",
"301 98 OFFCURVE",
"262 68 OFFCURVE",
"223 68 CURVE SMOOTH",
"186 68 OFFCURVE",
"162 96 OFFCURVE",
"162 164 CURVE SMOOTH",
"162 255 OFFCURVE",
"194 350 OFFCURVE",
"241 401 CURVE SMOOTH",
"273 434 OFFCURVE",
"304 452 OFFCURVE",
"331 452 CURVE SMOOTH",
"361 452 OFFCURVE",
"402 436 OFFCURVE",
"415 391 CURVE",
"473 433 LINE",
"446 470 OFFCURVE",
"415 495 OFFCURVE",
"374 495 CURVE SMOOTH",
"236 495 OFFCURVE",
"46 295 OFFCURVE",
"46 118 CURVE SMOOTH",
"46 22 OFFCURVE",
"97 -14 OFFCURVE",
"152 -14 CURVE SMOOTH"
);
},
{
closed = 1;
nodes = (
"454 -14 OFFCURVE",
"508 36 OFFCURVE",
"538 82 CURVE",
"526 94 LINE",
"498 67 OFFCURVE",
"476 51 OFFCURVE",
"457 51 CURVE SMOOTH",
"445 51 OFFCURVE",
"437 58 OFFCURVE",
"437 72 CURVE SMOOTH",
"437 83 OFFCURVE",
"440 99 OFFCURVE",
"445 119 CURVE SMOOTH",
"530 492 LINE",
"519 499 LINE",
"397 445 LINE",
"331 146 LINE SMOOTH",
"325 115 OFFCURVE",
"321 92 OFFCURVE",
"321 66 CURVE SMOOTH",
"321 11 OFFCURVE",
"352 -14 OFFCURVE",
"394 -14 CURVE SMOOTH"
);
}
);
width = 554.39399;
},
{
anchors = (
{
name = aboveLC;
position = "{374, 513}";
},
{
name = belowLC;
position = "{255, -22}";
},
{
name = ogonek;
position = "{434, 0}";
}
);
layerId = "04BF5C93-05E4-4DB8-B59C-EE59F3489DF8";
paths = (
{
closed = 1;
nodes = (
"218 -14 OFFCURVE",
"297 60 OFFCURVE",
"359 139 CURVE",
"356 160 LINE",
"301 98 OFFCURVE",
"262 68 OFFCURVE",
"223 68 CURVE SMOOTH",
"186 68 OFFCURVE",
"162 96 OFFCURVE",
"162 164 CURVE SMOOTH",
"162 255 OFFCURVE",
"194 350 OFFCURVE",
"241 401 CURVE SMOOTH",
"273 434 OFFCURVE",
"304 452 OFFCURVE",
"331 452 CURVE SMOOTH",
"361 452 OFFCURVE",
"402 436 OFFCURVE",
"415 391 CURVE",
"473 433 LINE",
"446 470 OFFCURVE",
"415 495 OFFCURVE",
"374 495 CURVE SMOOTH",
"236 495 OFFCURVE",
"46 295 OFFCURVE",
"46 118 CURVE SMOOTH",
"46 22 OFFCURVE",
"97 -14 OFFCURVE",
"152 -14 CURVE SMOOTH"
);
},
{
closed = 1;
nodes = (
"454 -14 OFFCURVE",
"508 36 OFFCURVE",
"538 82 CURVE",
"526 94 LINE",
"498 67 OFFCURVE",
"476 51 OFFCURVE",
"457 51 CURVE SMOOTH",
"445 51 OFFCURVE",
"437 58 OFFCURVE",
"437 72 CURVE SMOOTH",
"437 83 OFFCURVE",
"440 99 OFFCURVE",
"445 119 CURVE SMOOTH",
"530 492 LINE",
"519 499 LINE",
"397 445 LINE",
"331 146 LINE SMOOTH",
"325 115 OFFCURVE",
"321 92 OFFCURVE",
"321 66 CURVE SMOOTH",
"321 11 OFFCURVE",
"352 -14 OFFCURVE",
"394 -14 CURVE SMOOTH"
);
}
);
width = 554.39399;
}
);
leftKerningGroup = LAT_a;
rightKerningGroup = LAT_a;
unicode = 0061;
},
{
color = 4;
glyphname = ae;
lastChange = "2019-06-06 17:04:15 +0000";
layers = (
{
anchors = (
{
name = aboveLC;
position = "{482, 513}";
},
{
name = belowLC;
position = "{341, -22}";
}
);
associatedMasterId = "04BF5C93-05E4-4DB8-B59C-EE59F3489DF8";
components = (
{
alignment = -1;
name = e;
transform = "{1, 0, 0, 1, 278, 0}";
}
);
layerId = "70023048-75D4-4F59-8BF9-49EEC6A33CD1";
paths = (
{
closed = 1;
nodes = (
"219 -14 OFFCURVE",
"298 60 OFFCURVE",
"362 137 CURVE",
"358 163 LINE",
"303 101 OFFCURVE",
"263 68 OFFCURVE",
"223 68 CURVE SMOOTH",
"186 68 OFFCURVE",
"162 96 OFFCURVE",
"162 164 CURVE SMOOTH",
"162 255 OFFCURVE",
"194 350 OFFCURVE",
"241 401 CURVE SMOOTH",
"273 434 OFFCURVE",
"304 452 OFFCURVE",
"331 452 CURVE SMOOTH",
"361 452 OFFCURVE",
"405 434 OFFCURVE",
"421 381 CURVE",
"480 428 LINE",
"449 468 OFFCURVE",
"416 495 OFFCURVE",
"374 495 CURVE SMOOTH",
"236 495 OFFCURVE",
"46 295 OFFCURVE",
"46 118 CURVE SMOOTH",
"46 22 OFFCURVE",
"97 -14 OFFCURVE",
"152 -14 CURVE SMOOTH"
);
}
);
width = 728.29905;
},
{
anchors = (
{
name = aboveLC;
position = "{482, 513}";
},
{
name = belowLC;
position = "{341, -22}";
}
);
components = (
{
alignment = -1;
name = e;
transform = "{1, 0, 0, 1, 278, 0}";
}
);
layerId = "04BF5C93-05E4-4DB8-B59C-EE59F3489DF8";
paths = (
{
closed = 1;
nodes = (
"219 -14 OFFCURVE",
"298 60 OFFCURVE",
"362 137 CURVE",
"358 163 LINE",
"303 101 OFFCURVE",
"263 68 OFFCURVE",
"223 68 CURVE SMOOTH",
"186 68 OFFCURVE",
"162 96 OFFCURVE",
"162 164 CURVE SMOOTH",
"162 255 OFFCURVE",
"194 350 OFFCURVE",
"241 401 CURVE SMOOTH",
"273 434 OFFCURVE",
"304 452 OFFCURVE",
"331 452 CURVE SMOOTH",
"361 452 OFFCURVE",
"405 434 OFFCURVE",
"421 381 CURVE",
"480 428 LINE",
"449 468 OFFCURVE",
"416 495 OFFCURVE",
"374 495 CURVE SMOOTH",
"236 495 OFFCURVE",
"46 295 OFFCURVE",
"46 118 CURVE SMOOTH",
"46 22 OFFCURVE",
"97 -14 OFFCURVE",
"152 -14 CURVE SMOOTH"
);
}
);
width = 728.29905;
}
);
leftKerningGroup = LAT_a;
leftMetricsKey = a;
rightKerningGroup = LAT_e;
rightMetricsKey = e;
unicode = 00E6;
},
{
color = 4;
glyphname = b;
lastChange = "2019-06-06 17:04:15 +0000";
layers = (
{
anchors = (
{
name = aboveLC;
position = "{223, 697}";
},
{
name = belowLC;
position = "{190, -22}";
}
);
associatedMasterId = "04BF5C93-05E4-4DB8-B59C-EE59F3489DF8";
layerId = "70023048-75D4-4F59-8BF9-49EEC6A33CD1";
paths = (
{
closed = 1;
nodes = (
"331 -14 OFFCURVE",
"511 176 OFFCURVE",
"511 362 CURVE SMOOTH",
"511 458 OFFCURVE",
"469 495 OFFCURVE",
"411 495 CURVE SMOOTH",
"342 495 OFFCURVE",
"255 433 OFFCURVE",
"198 343 CURVE",
"203 327 LINE",
"253 385 OFFCURVE",
"296 420 OFFCURVE",
"334 420 CURVE SMOOTH",
"369 420 OFFCURVE",
"390 386 OFFCURVE",
"390 318 CURVE SMOOTH",
"390 237 OFFCURVE",
"358 140 OFFCURVE",
"317 89 CURVE SMOOTH",
"284 48 OFFCURVE",
"251 28 OFFCURVE",
"215 28 CURVE SMOOTH",
"185 28 OFFCURVE",
"170 52 OFFCURVE",
"170 85 CURVE SMOOTH",
"170 113 OFFCURVE",
"179 158 OFFCURVE",
"195 232 CURVE SMOOTH",
"222 356 LINE",
"222 368 LINE",
"291 689 LINE",
"282 697 LINE",
"96 643 LINE",
"93 626 LINE",
"110 620 LINE SMOOTH",
"137 612 OFFCURVE",
"148 593 OFFCURVE",
"143 565 CURVE SMOOTH",
"81 256 LINE SMOOTH",
"69 196 OFFCURVE",
"56 137 OFFCURVE",
"56 89 CURVE SMOOTH",
"56 20 OFFCURVE",
"99 -14 OFFCURVE",
"162 -14 CURVE SMOOTH"
);
}
);
width = 505.34019;
},
{
anchors = (
{
name = aboveLC;
position = "{223, 697}";
},
{
name = belowLC;
position = "{190, -22}";
}
);
layerId = "04BF5C93-05E4-4DB8-B59C-EE59F3489DF8";
paths = (
{
closed = 1;
nodes = (
"331 -14 OFFCURVE",
"511 176 OFFCURVE",
"511 362 CURVE SMOOTH",
"511 458 OFFCURVE",
"469 495 OFFCURVE",
"411 495 CURVE SMOOTH",
"342 495 OFFCURVE",
"255 433 OFFCURVE",
"198 343 CURVE",
"203 327 LINE",
"253 385 OFFCURVE",
"296 420 OFFCURVE",
"334 420 CURVE SMOOTH",
"369 420 OFFCURVE",
"390 386 OFFCURVE",
"390 318 CURVE SMOOTH",
"390 237 OFFCURVE",
"358 140 OFFCURVE",
"317 89 CURVE SMOOTH",
"284 48 OFFCURVE",
"251 28 OFFCURVE",
"215 28 CURVE SMOOTH",
"185 28 OFFCURVE",
"170 52 OFFCURVE",
"170 85 CURVE SMOOTH",
"170 113 OFFCURVE",
"179 158 OFFCURVE",
"195 232 CURVE SMOOTH",
"222 356 LINE",
"222 368 LINE",
"291 689 LINE",
"282 697 LINE",
"96 643 LINE",
"93 626 LINE",
"110 620 LINE SMOOTH",
"137 612 OFFCURVE",
"148 593 OFFCURVE",
"143 565 CURVE SMOOTH",
"81 256 LINE SMOOTH",
"69 196 OFFCURVE",
"56 137 OFFCURVE",
"56 89 CURVE SMOOTH",
"56 20 OFFCURVE",
"99 -14 OFFCURVE",
"162 -14 CURVE SMOOTH"
);
}
);
width = 505.34019;
}
);
leftKerningGroup = LAT_h;
rightKerningGroup = LAT_b;
unicode = 0062;
},
{
color = 4;
glyphname = c;
lastChange = "2019-06-06 17:04:15 +0000";
layers = (
{
anchors = (
{
name = aboveLC;
position = "{344, 512}";
},
{
name = baseLC;
position = "{197, 0}";
},
{
name = belowLC;
position = "{204, -22}";
}
);
associatedMasterId = "04BF5C93-05E4-4DB8-B59C-EE59F3489DF8";
layerId = "70023048-75D4-4F59-8BF9-49EEC6A33CD1";
paths = (
{
closed = 1;
nodes = (
"310 -14 OFFCURVE",
"391 54 OFFCURVE",
"432 131 CURVE",
"416 144 LINE",
"377 93 OFFCURVE",
"331 61 OFFCURVE",
"283 61 CURVE SMOOTH",
"212 61 OFFCURVE",
"166 105 OFFCURVE",
"166 200 CURVE SMOOTH",
"166 297 OFFCURVE",
"214 393 OFFCURVE",
"267 439 CURVE SMOOTH",
"297 464 OFFCURVE",
"310 459 OFFCURVE",
"327 421 CURVE SMOOTH",
"334 405 LINE SMOOTH",
"348 376 OFFCURVE",
"369 353 OFFCURVE",
"405 353 CURVE SMOOTH",
"437 353 OFFCURVE",
"461 374 OFFCURVE",
"462 409 CURVE SMOOTH",
"463 460 OFFCURVE",
"402 495 OFFCURVE",
"333 495 CURVE SMOOTH",
"180 495 OFFCURVE",
"51.009 344.994 OFFCURVE",
"51 174 CURVE SMOOTH",
"51 54 OFFCURVE",
"119 -14 OFFCURVE",
"217 -14 CURVE SMOOTH"
);
}
);
width = 448.86076;
},
{
anchors = (
{
name = aboveLC;
position = "{344, 512}";
},
{
name = baseLC;
position = "{197, 0}";
},
{
name = belowLC;
position = "{204, -22}";
}
);
layerId = "04BF5C93-05E4-4DB8-B59C-EE59F3489DF8";
paths = (
{
closed = 1;
nodes = (
"310 -14 OFFCURVE",
"391 54 OFFCURVE",
"432 131 CURVE",
"416 144 LINE",
"377 93 OFFCURVE",
"331 61 OFFCURVE",
"283 61 CURVE SMOOTH",
"212 61 OFFCURVE",
"166 105 OFFCURVE",
"166 200 CURVE SMOOTH",
"166 297 OFFCURVE",
"214 393 OFFCURVE",
"267 439 CURVE SMOOTH",
"297 464 OFFCURVE",
"310 459 OFFCURVE",
"327 421 CURVE SMOOTH",
"334 405 LINE SMOOTH",
"348 376 OFFCURVE",
"369 353 OFFCURVE",
"405 353 CURVE SMOOTH",
"437 353 OFFCURVE",
"461 374 OFFCURVE",
"462 409 CURVE SMOOTH",
"463 460 OFFCURVE",
"402 495 OFFCURVE",
"333 495 CURVE SMOOTH",
"180 495 OFFCURVE",
"51.009 344.994 OFFCURVE",
"51 174 CURVE SMOOTH",
"51 54 OFFCURVE",
"119 -14 OFFCURVE",
"217 -14 CURVE SMOOTH"
);
}
);
width = 448.86076;
}
);
leftKerningGroup = LAT_o;
rightKerningGroup = LAT_c;
unicode = 0063;
},
{
color = 4;
glyphname = d;
lastChange = "2019-06-06 17:04:15 +0000";
layers = (
{
anchors = (
{
name = aboveLC;
position = "{501, 702}";
},
{
name = belowLC;
position = "{271, -22}";
}
);
associatedMasterId = "04BF5C93-05E4-4DB8-B59C-EE59F3489DF8";
layerId = "70023048-75D4-4F59-8BF9-49EEC6A33CD1";
paths = (
{
closed = 1;
nodes = (
"214 -14 OFFCURVE",
"300 52 OFFCURVE",
"359 143 CURVE",
"357 166 LINE",
"302 95 OFFCURVE",
"261 64 OFFCURVE",
"224 64 CURVE SMOOTH",
"189 64 OFFCURVE",
"165 91 OFFCURVE",
"165 158 CURVE SMOOTH",
"165 246 OFFCURVE",
"198 354 OFFCURVE",
"245 405 CURVE SMOOTH",
"270 433 OFFCURVE",
"301 450 OFFCURVE",
"334 450 CURVE SMOOTH",
"366 450 OFFCURVE",
"390 436 OFFCURVE",
"415 406 CURVE",
"470 445 LINE",
"439 480 OFFCURVE",
"409 495 OFFCURVE",
"372 495 CURVE SMOOTH",
"227 495 OFFCURVE",
"47 295 OFFCURVE",
"47 122 CURVE SMOOTH",
"47 22 OFFCURVE",
"94 -14 OFFCURVE",
"146 -14 CURVE SMOOTH"
);
},
{
closed = 1;
nodes = (
"454 -14 OFFCURVE",
"511 31 OFFCURVE",
"543 81 CURVE",
"529 96 LINE",
"502 66 OFFCURVE",
"475 50 OFFCURVE",
"460 50 CURVE SMOOTH",
"448 50 OFFCURVE",
"441 58 OFFCURVE",
"441 71 CURVE SMOOTH",
"441 84 OFFCURVE",
"444 97 OFFCURVE",
"448 119 CURVE SMOOTH",
"569 694 LINE",
"560 702 LINE",
"376 648 LINE",
"373 631 LINE",
"393 624 LINE SMOOTH",
"421 615 OFFCURVE",
"432 594 OFFCURVE",
"426 565 CURVE SMOOTH",
"406 463 LINE",
"396 441 LINE",
"334 139 LINE SMOOTH",
"327 105 OFFCURVE",
"324 79 OFFCURVE",
"325 59 CURVE",
"325 15 OFFCURVE",
"351 -14 OFFCURVE",
"394 -14 CURVE SMOOTH"
);
}
);
width = 547.86392;
},
{
anchors = (
{
name = aboveLC;
position = "{501, 702}";
},
{
name = belowLC;
position = "{271, -22}";
}
);
layerId = "04BF5C93-05E4-4DB8-B59C-EE59F3489DF8";
paths = (
{
closed = 1;
nodes = (
"214 -14 OFFCURVE",
"300 52 OFFCURVE",
"359 143 CURVE",
"357 166 LINE",
"302 95 OFFCURVE",
"261 64 OFFCURVE",
"224 64 CURVE SMOOTH",
"189 64 OFFCURVE",
"165 91 OFFCURVE",
"165 158 CURVE SMOOTH",
"165 246 OFFCURVE",
"198 354 OFFCURVE",
"245 405 CURVE SMOOTH",
"270 433 OFFCURVE",
"301 450 OFFCURVE",
"334 450 CURVE SMOOTH",
"366 450 OFFCURVE",
"390 436 OFFCURVE",
"415 406 CURVE",
"470 445 LINE",
"439 480 OFFCURVE",
"409 495 OFFCURVE",
"372 495 CURVE SMOOTH",
"227 495 OFFCURVE",
"47 295 OFFCURVE",
"47 122 CURVE SMOOTH",
"47 22 OFFCURVE",
"94 -14 OFFCURVE",
"146 -14 CURVE SMOOTH"
);
},
{
closed = 1;
nodes = (
"454 -14 OFFCURVE",
"511 31 OFFCURVE",
"543 81 CURVE",
"529 96 LINE",
"502 66 OFFCURVE",
"475 50 OFFCURVE",
"460 50 CURVE SMOOTH",
"448 50 OFFCURVE",
"441 58 OFFCURVE",
"441 71 CURVE SMOOTH",
"441 84 OFFCURVE",
"444 97 OFFCURVE",
"448 119 CURVE SMOOTH",
"569 694 LINE",
"560 702 LINE",
"376 648 LINE",
"373 631 LINE",
"393 624 LINE SMOOTH",
"421 615 OFFCURVE",
"432 594 OFFCURVE",
"426 565 CURVE SMOOTH",
"406 463 LINE",
"396 441 LINE",
"334 139 LINE SMOOTH",
"327 105 OFFCURVE",
"324 79 OFFCURVE",
"325 59 CURVE",
"325 15 OFFCURVE",
"351 -14 OFFCURVE",
"394 -14 CURVE SMOOTH"
);
}
);
width = 547.86392;
}
);
leftKerningGroup = LAT_a;
rightKerningGroup = LAT_l;
unicode = 0064;
},
{
color = 4;
glyphname = eth;
lastChange = "2019-06-06 17:04:15 +0000";
layers = (
{
associatedMasterId = "04BF5C93-05E4-4DB8-B59C-EE59F3489DF8";
layerId = "70023048-75D4-4F59-8BF9-49EEC6A33CD1";
paths = (
{
closed = 1;
nodes = (
"389 -14 OFFCURVE",
"509 126 OFFCURVE",
"509 332 CURVE SMOOTH",
"509 530 OFFCURVE",
"405 676 OFFCURVE",
"236 740 CURVE",
"221 716 LINE",
"344 641 OFFCURVE",
"390 551 OFFCURVE",
"403 370 CURVE",
"429 387 LINE",
"410 451 OFFCURVE",
"376 485 OFFCURVE",
"312 485 CURVE SMOOTH",
"169 485 OFFCURVE",
"49 352 OFFCURVE",
"49 176 CURVE SMOOTH",
"49 49 OFFCURVE",
"127 -14 OFFCURVE",
"235 -14 CURVE SMOOTH"
);
},
{
closed = 1;
nodes = (
"203 14 OFFCURVE",
"174 52 OFFCURVE",
"174 164 CURVE SMOOTH",
"174 323 OFFCURVE",
"238 456 OFFCURVE",
"320 456 CURVE SMOOTH",
"363 456 OFFCURVE",
"390 426 OFFCURVE",
"390 328 CURVE SMOOTH",
"390 162 OFFCURVE",
"327 14 OFFCURVE",
"245 14 CURVE SMOOTH"
);
},
{
closed = 1;
nodes = (
"503 696 LINE",
"489 725 LINE",
"189 569 LINE",
"201 543 LINE"
);
}
);
width = 512.4193;
},
{
layerId = "04BF5C93-05E4-4DB8-B59C-EE59F3489DF8";
paths = (
{
closed = 1;
nodes = (
"389 -14 OFFCURVE",
"509 126 OFFCURVE",
"509 332 CURVE SMOOTH",
"509 530 OFFCURVE",
"405 676 OFFCURVE",
"236 740 CURVE",
"221 716 LINE",
"344 641 OFFCURVE",
"390 551 OFFCURVE",
"403 370 CURVE",
"429 387 LINE",
"410 451 OFFCURVE",
"376 485 OFFCURVE",
"312 485 CURVE SMOOTH",
"169 485 OFFCURVE",
"49 352 OFFCURVE",
"49 176 CURVE SMOOTH",
"49 49 OFFCURVE",
"127 -14 OFFCURVE",
"235 -14 CURVE SMOOTH"
);
},
{
closed = 1;
nodes = (
"203 14 OFFCURVE",
"174 52 OFFCURVE",
"174 164 CURVE SMOOTH",
"174 323 OFFCURVE",
"238 456 OFFCURVE",
"320 456 CURVE SMOOTH",
"363 456 OFFCURVE",
"390 426 OFFCURVE",
"390 328 CURVE SMOOTH",
"390 162 OFFCURVE",
"327 14 OFFCURVE",
"245 14 CURVE SMOOTH"
);
},
{
closed = 1;
nodes = (
"503 696 LINE",
"489 725 LINE",
"189 569 LINE",
"201 543 LINE"
);
}
);
width = 512.4193;
}
);
leftKerningGroup = LAT_o;
unicode = 00F0;
},
{
glyphname = dcaron;
lastChange = "2019-06-06 17:04:15 +0000";
layers = (
{
associatedMasterId = "04BF5C93-05E4-4DB8-B59C-EE59F3489DF8";
components = (
{
alignment = -1;
name = d;
}
);
layerId = "70023048-75D4-4F59-8BF9-49EEC6A33CD1";
paths = (
{
closed = 1;
nodes = (
"682 745 OFFCURVE",
"670 743 OFFCURVE",
"652 735 CURVE",
"606 512 LINE",
"648 508 LINE",
"690 581 LINE SMOOTH",
"715 628 OFFCURVE",
"742 677 OFFCURVE",
"742 711 CURVE SMOOTH",
"742 727 OFFCURVE",
"732 745 OFFCURVE",
"700 745 CURVE SMOOTH"
);
}
);
width = 593.34019;
},
{
components = (
{
alignment = -1;
name = d;
}
);
layerId = "04BF5C93-05E4-4DB8-B59C-EE59F3489DF8";
paths = (
{
closed = 1;
nodes = (
"682 745 OFFCURVE",
"670 743 OFFCURVE",
"652 735 CURVE",
"606 512 LINE",
"648 508 LINE",
"690 581 LINE SMOOTH",
"715 628 OFFCURVE",
"742 677 OFFCURVE",
"742 711 CURVE SMOOTH",
"742 727 OFFCURVE",
"732 745 OFFCURVE",
"700 745 CURVE SMOOTH"
);
}
);
width = 593.34019;
}
);
leftKerningGroup = LAT_a;
rightKerningGroup = LAT_dcaron;
unicode = 010F;
},
{
color = 4;
glyphname = dcroat;
lastChange = "2019-06-06 17:04:15 +0000";
layers = (
{
associatedMasterId = "04BF5C93-05E4-4DB8-B59C-EE59F3489DF8";
layerId = "70023048-75D4-4F59-8BF9-49EEC6A33CD1";
paths = (
{
closed = 1;
nodes = (
"215 -15 OFFCURVE",
"300 51 OFFCURVE",
"358 140 CURVE",
"357 164 LINE",
"304 97 OFFCURVE",
"264 66 OFFCURVE",
"227 66 CURVE SMOOTH",
"192 66 OFFCURVE",
"169 93 OFFCURVE",
"169 160 CURVE SMOOTH",
"169 241 OFFCURVE",
"202 341 OFFCURVE",
"249 389 CURVE SMOOTH",
"273 415 OFFCURVE",
"303 430 OFFCURVE",
"336 430 CURVE SMOOTH",
"368 430 OFFCURVE",
"391 417 OFFCURVE",
"416 388 CURVE",
"473 426 LINE",
"442 461 OFFCURVE",
"412 475 OFFCURVE",
"375 475 CURVE SMOOTH",
"229 475 OFFCURVE",
"47 287 OFFCURVE",
"47 123 CURVE SMOOTH",
"47 21 OFFCURVE",
"94 -15 OFFCURVE",
"147 -15 CURVE SMOOTH"
);
},
{
closed = 1;
nodes = (
"457 -15 OFFCURVE",
"516 32 OFFCURVE",
"547 83 CURVE",
"533 98 LINE",
"506 67 OFFCURVE",
"479 52 OFFCURVE",
"464 52 CURVE SMOOTH",
"453 52 OFFCURVE",
"446 59 OFFCURVE",
"446 72 CURVE SMOOTH",
"446 85 OFFCURVE",
"449 97 OFFCURVE",
"453 120 CURVE SMOOTH",
"574 693 LINE",
"565 702 LINE",
"376 646 LINE",
"374 629 LINE",
"394 622 LINE SMOOTH",
"421 613 OFFCURVE",
"433 593 OFFCURVE",
"427 563 CURVE SMOOTH",
"407 464 LINE",
"397 442 LINE",
"335 142 LINE SMOOTH",
"329 109 OFFCURVE",
"325 81 OFFCURVE",
"326 61 CURVE SMOOTH",
"326 17 OFFCURVE",
"353 -15 OFFCURVE",
"396 -15 CURVE SMOOTH"
);
},
{
closed = 1;
nodes = (
"633 535 LINE",
"639 562 LINE",
"285 562 LINE",
"279 535 LINE"
);
}
);
width = 560.09078;
},
{
layerId = "04BF5C93-05E4-4DB8-B59C-EE59F3489DF8";
paths = (
{
closed = 1;
nodes = (
"215 -15 OFFCURVE",
"300 51 OFFCURVE",
"358 140 CURVE",
"357 164 LINE",
"304 97 OFFCURVE",
"264 66 OFFCURVE",
"227 66 CURVE SMOOTH",
"192 66 OFFCURVE",
"169 93 OFFCURVE",
"169 160 CURVE SMOOTH",
"169 241 OFFCURVE",
"202 341 OFFCURVE",
"249 389 CURVE SMOOTH",
"273 415 OFFCURVE",
"303 430 OFFCURVE",
"336 430 CURVE SMOOTH",
"368 430 OFFCURVE",
"391 417 OFFCURVE",
"416 388 CURVE",
"473 426 LINE",
"442 461 OFFCURVE",
"412 475 OFFCURVE",
"375 475 CURVE SMOOTH",
"229 475 OFFCURVE",
"47 287 OFFCURVE",
"47 123 CURVE SMOOTH",
"47 21 OFFCURVE",
"94 -15 OFFCURVE",
"147 -15 CURVE SMOOTH"
);
},
{
closed = 1;
nodes = (
"457 -15 OFFCURVE",
"516 32 OFFCURVE",
"547 83 CURVE",
"533 98 LINE",
"506 67 OFFCURVE",
"479 52 OFFCURVE",
"464 52 CURVE SMOOTH",
"453 52 OFFCURVE",
"446 59 OFFCURVE",
"446 72 CURVE SMOOTH",
"446 85 OFFCURVE",
"449 97 OFFCURVE",
"453 120 CURVE SMOOTH",
"574 693 LINE",
"565 702 LINE",
"376 646 LINE",
"374 629 LINE",
"394 622 LINE SMOOTH",
"421 613 OFFCURVE",
"433 593 OFFCURVE",
"427 563 CURVE SMOOTH",
"407 464 LINE",
"397 442 LINE",
"335 142 LINE SMOOTH",
"329 109 OFFCURVE",
"325 81 OFFCURVE",
"326 61 CURVE SMOOTH",
"326 17 OFFCURVE",
"353 -15 OFFCURVE",
"396 -15 CURVE SMOOTH"
);
},
{
closed = 1;
nodes = (
"633 535 LINE",
"639 562 LINE",
"285 562 LINE",
"279 535 LINE"
);
}
);
width = 560.09078;
}
);
leftKerningGroup = LAT_a;
rightKerningGroup = LAT_l;
unicode = 0111;
},
{
color = 4;
glyphname = e;
lastChange = "2019-06-06 17:04:15 +0000";
layers = (
{
anchors = (
{
name = aboveLC;
position = "{345, 513}";
},
{
name = belowLC;
position = "{216, -22}";
},
{
name = ogonek;
position = "{279, 0}";
}
);
associatedMasterId = "04BF5C93-05E4-4DB8-B59C-EE59F3489DF8";
layerId = "70023048-75D4-4F59-8BF9-49EEC6A33CD1";
paths = (
{
closed = 1;
nodes = (
"315 -14 OFFCURVE",
"389 58 OFFCURVE",
"430 134 CURVE",
"415 145 LINE",
"383 104 OFFCURVE",
"335 68 OFFCURVE",
"277 68 CURVE SMOOTH",
"209 68 OFFCURVE",
"169 110 OFFCURVE",
"169 204 CURVE SMOOTH",
"169 340 OFFCURVE",
"262 461 OFFCURVE",
"326 461 CURVE SMOOTH",
"352 461 OFFCURVE",
"372 443 OFFCURVE",
"372 405 CURVE SMOOTH",
"372 325 OFFCURVE",
"309 252 OFFCURVE",
"131 209 CURVE",
"133 186 LINE",
"346 224 OFFCURVE",
"463 311 OFFCURVE",
"463 392 CURVE SMOOTH",
"463 455 OFFCURVE",
"418 495 OFFCURVE",
"336 495 CURVE SMOOTH",
"176 495 OFFCURVE",
"51 342 OFFCURVE",
"51.009 173 CURVE SMOOTH",
"51 52 OFFCURVE",
"119 -14 OFFCURVE",
"218 -14 CURVE SMOOTH"
);
}
);
width = 450.35601;
},
{
anchors = (
{
name = aboveLC;
position = "{345, 513}";
},
{
name = belowLC;
position = "{216, -22}";
},
{
name = ogonek;
position = "{279, 0}";
}
);
layerId = "04BF5C93-05E4-4DB8-B59C-EE59F3489DF8";
paths = (
{
closed = 1;
nodes = (
"315 -14 OFFCURVE",
"389 58 OFFCURVE",
"430 134 CURVE",
"415 145 LINE",
"383 104 OFFCURVE",
"335 68 OFFCURVE",
"277 68 CURVE SMOOTH",
"209 68 OFFCURVE",
"169 110 OFFCURVE",
"169 204 CURVE SMOOTH",
"169 340 OFFCURVE",
"262 461 OFFCURVE",
"326 461 CURVE SMOOTH",
"352 461 OFFCURVE",
"372 443 OFFCURVE",
"372 405 CURVE SMOOTH",
"372 325 OFFCURVE",
"309 252 OFFCURVE",
"131 209 CURVE",
"133 186 LINE",
"346 224 OFFCURVE",
"463 311 OFFCURVE",
"463 392 CURVE SMOOTH",
"463 455 OFFCURVE",
"418 495 OFFCURVE",
"336 495 CURVE SMOOTH",
"176 495 OFFCURVE",
"51 342 OFFCURVE",
"51.009 173 CURVE SMOOTH",
"51 52 OFFCURVE",
"119 -14 OFFCURVE",
"218 -14 CURVE SMOOTH"
);
}
);
width = 450.35601;
}
);
leftKerningGroup = LAT_o;
rightKerningGroup = LAT_e;
unicode = 0065;
},
{
color = 4;
glyphname = f;
lastChange = "2019-06-06 17:04:15 +0000";
layers = (
{
anchors = (
{
name = aboveLC;
position = "{373, 745}";
},
{
name = belowLC;
position = "{-19, -244}";
}
);
associatedMasterId = "04BF5C93-05E4-4DB8-B59C-EE59F3489DF8";
layerId = "70023048-75D4-4F59-8BF9-49EEC6A33CD1";
paths = (
{
closed = 1;
nodes = (
"4 -241 OFFCURVE",
"56 -222 OFFCURVE",
"97 -180 CURVE SMOOTH",
"148 -130 OFFCURVE",
"176 -57 OFFCURVE",
"195 43 CURVE SMOOTH",
"219 171 OFFCURVE",
"239 313 OFFCURVE",
"259 450 CURVE",
"380 448 LINE",
"386 480 LINE",
"264 480 LINE",
"280 573 OFFCURVE",
"298 626 OFFCURVE",
"323 656 CURVE SMOOTH",
"334 674 OFFCURVE",
"352 675 OFFCURVE",
"364 651 CURVE SMOOTH",
"368 640 LINE SMOOTH",
"391 599 OFFCURVE",
"416 580 OFFCURVE",
"446 580 CURVE SMOOTH",
"477 580 OFFCURVE",
"502 602 OFFCURVE",
"502 636 CURVE SMOOTH",
"502 680 OFFCURVE",
"458 710 OFFCURVE",
"393 710 CURVE SMOOTH",
"277 710 OFFCURVE",
"195 647 OFFCURVE",
"159 531 CURVE SMOOTH",
"149 497 OFFCURVE",
"136 479 OFFCURVE",
"104 476 CURVE SMOOTH",
"63 471 LINE",
"59 451 LINE",
"142 451 LINE",
"121 307 OFFCURVE",
"102 174 OFFCURVE",
"82 43 CURVE SMOOTH",
"68 -38 OFFCURVE",
"54 -103 OFFCURVE",
"35 -147 CURVE SMOOTH",
"28 -165 OFFCURVE",
"23 -176 OFFCURVE",
"18 -186 CURVE SMOOTH",
"8 -202 OFFCURVE",
"-5 -201 OFFCURVE",
"-15 -185 CURVE SMOOTH",
"-22 -169 LINE SMOOTH",
"-44 -132 OFFCURVE",
"-69 -117 OFFCURVE",
"-99 -117 CURVE SMOOTH",
"-129 -117 OFFCURVE",
"-154 -138 OFFCURVE",
"-154 -171 CURVE SMOOTH",
"-154 -216 OFFCURVE",
"-103 -241 OFFCURVE",
"-49 -241 CURVE SMOOTH"
);
}
);
width = 327.39082;
},
{
anchors = (
{
name = aboveLC;
position = "{373, 745}";
},
{
name = belowLC;
position = "{-19, -244}";
}
);
layerId = "04BF5C93-05E4-4DB8-B59C-EE59F3489DF8";
paths = (
{
closed = 1;
nodes = (
"4 -241 OFFCURVE",
"56 -222 OFFCURVE",
"97 -180 CURVE SMOOTH",
"148 -130 OFFCURVE",
"176 -57 OFFCURVE",
"195 43 CURVE SMOOTH",
"219 171 OFFCURVE",
"239 313 OFFCURVE",
"259 450 CURVE",
"380 448 LINE",
"386 480 LINE",
"264 480 LINE",
"280 573 OFFCURVE",
"298 626 OFFCURVE",
"323 656 CURVE SMOOTH",
"334 674 OFFCURVE",
"352 675 OFFCURVE",
"364 651 CURVE SMOOTH",
"368 640 LINE SMOOTH",
"391 599 OFFCURVE",
"416 580 OFFCURVE",
"446 580 CURVE SMOOTH",
"477 580 OFFCURVE",
"502 602 OFFCURVE",
"502 636 CURVE SMOOTH",
"502 680 OFFCURVE",
"458 710 OFFCURVE",
"393 710 CURVE SMOOTH",
"277 710 OFFCURVE",
"195 647 OFFCURVE",
"159 531 CURVE SMOOTH",
"149 497 OFFCURVE",
"136 479 OFFCURVE",
"104 476 CURVE SMOOTH",
"63 471 LINE",
"59 451 LINE",
"142 451 LINE",
"121 307 OFFCURVE",
"102 174 OFFCURVE",
"82 43 CURVE SMOOTH",
"68 -38 OFFCURVE",
"54 -103 OFFCURVE",
"35 -147 CURVE SMOOTH",
"28 -165 OFFCURVE",
"23 -176 OFFCURVE",
"18 -186 CURVE SMOOTH",
"8 -202 OFFCURVE",
"-5 -201 OFFCURVE",
"-15 -185 CURVE SMOOTH",
"-22 -169 LINE SMOOTH",
"-44 -132 OFFCURVE",
"-69 -117 OFFCURVE",
"-99 -117 CURVE SMOOTH",
"-129 -117 OFFCURVE",
"-154 -138 OFFCURVE",
"-154 -171 CURVE SMOOTH",
"-154 -216 OFFCURVE",
"-103 -241 OFFCURVE",
"-49 -241 CURVE SMOOTH"
);
}
);
width = 327.39082;
}
);
leftKerningGroup = LAT_f;
rightKerningGroup = LAT_f;
unicode = 0066;
},
{
color = 4;
glyphname = g;
lastChange = "2019-06-06 17:04:15 +0000";
layers = (
{
anchors = (
{
name = aboveLC;
position = "{305, 513}";
},
{
name = belowLC;
position = "{179, -237}";
}
);
associatedMasterId = "04BF5C93-05E4-4DB8-B59C-EE59F3489DF8";
layerId = "70023048-75D4-4F59-8BF9-49EEC6A33CD1";
paths = (
{
closed = 1;
nodes = (
"332 -237 OFFCURVE",
"467 -156 OFFCURVE",
"467 -46 CURVE SMOOTH",
"467 16 OFFCURVE",
"428 48 OFFCURVE",
"317 71 CURVE SMOOTH",
"159 103 LINE SMOOTH",
"135 108 OFFCURVE",
"130 126 OFFCURVE",
"142 144 CURVE SMOOTH",
"173 193 LINE",
"164 201 LINE",
"101 156 OFFCURVE",
"45 103 OFFCURVE",
"45 65 CURVE SMOOTH",
"45 29 OFFCURVE",
"79 6 OFFCURVE",
"132 -5 CURVE SMOOTH",
"253 -27 LINE SMOOTH",
"338 -44 OFFCURVE",
"367 -64 OFFCURVE",
"367 -102 CURVE SMOOTH",
"367 -164 OFFCURVE",
"305 -200 OFFCURVE",
"203 -200 CURVE SMOOTH",
"122 -200 OFFCURVE",
"71 -162 OFFCURVE",
"71 -100 CURVE SMOOTH",
"71 -59 OFFCURVE",
"96 -27 OFFCURVE",
"135 -3 CURVE",
"124 5 LINE",
"53 -19 OFFCURVE",
"-28 -70 OFFCURVE",
"-27.991 -134.003 CURVE SMOOTH",
"-28 -202 OFFCURVE",
"42 -237 OFFCURVE",
"151 -237 CURVE SMOOTH"
);
},
{
closed = 1;
nodes = (
"365 152 OFFCURVE",
"448 238 OFFCURVE",
"448 362 CURVE SMOOTH",
"448 446 OFFCURVE",
"379 495 OFFCURVE",
"286 495 CURVE SMOOTH",
"172 495 OFFCURVE",
"80.009 401.991 OFFCURVE",
"80.009 292.991 CURVE SMOOTH",
"80 217 OFFCURVE",
"136 152 OFFCURVE",
"241 152 CURVE SMOOTH"
);
},
{
closed = 1;
nodes = (
"213 176 OFFCURVE",
"194 235 OFFCURVE",
"194 307 CURVE SMOOTH",
"194 404 OFFCURVE",
"222 469 OFFCURVE",
"278 470 CURVE SMOOTH",
"314 470 OFFCURVE",
"341 423 OFFCURVE",
"341 342 CURVE SMOOTH",
"341 223 OFFCURVE",
"304 177 OFFCURVE",
"258 177 CURVE SMOOTH"
);
},
{
closed = 1;
nodes = (
"522 434 LINE",
"532 486 LINE",
"523 495 LINE",
"482 472 OFFCURVE",
"439 459 OFFCURVE",
"392 455 CURVE",
"399 434 LINE"
);
}
);
width = 517.39715;
},
{
anchors = (
{
name = aboveLC;
position = "{305, 513}";
},
{
name = belowLC;
position = "{179, -237}";
}
);
layerId = "04BF5C93-05E4-4DB8-B59C-EE59F3489DF8";
paths = (
{
closed = 1;
nodes = (
"332 -237 OFFCURVE",
"467 -156 OFFCURVE",
"467 -46 CURVE SMOOTH",
"467 16 OFFCURVE",
"428 48 OFFCURVE",
"317 71 CURVE SMOOTH",
"159 103 LINE SMOOTH",
"135 108 OFFCURVE",
"130 126 OFFCURVE",
"142 144 CURVE SMOOTH",
"173 193 LINE",
"164 201 LINE",
"101 156 OFFCURVE",
"45 103 OFFCURVE",
"45 65 CURVE SMOOTH",
"45 29 OFFCURVE",
"79 6 OFFCURVE",
"132 -5 CURVE SMOOTH",
"253 -27 LINE SMOOTH",
"338 -44 OFFCURVE",
"367 -64 OFFCURVE",
"367 -102 CURVE SMOOTH",
"367 -164 OFFCURVE",
"305 -200 OFFCURVE",
"203 -200 CURVE SMOOTH",
"122 -200 OFFCURVE",
"71 -162 OFFCURVE",
"71 -100 CURVE SMOOTH",
"71 -59 OFFCURVE",
"96 -27 OFFCURVE",
"135 -3 CURVE",
"124 5 LINE",
"53 -19 OFFCURVE",
"-28 -70 OFFCURVE",
"-27.991 -134.003 CURVE SMOOTH",
"-28 -202 OFFCURVE",
"42 -237 OFFCURVE",
"151 -237 CURVE SMOOTH"
);
},
{
closed = 1;
nodes = (
"365 152 OFFCURVE",
"448 238 OFFCURVE",
"448 362 CURVE SMOOTH",
"448 446 OFFCURVE",
"379 495 OFFCURVE",
"286 495 CURVE SMOOTH",
"172 495 OFFCURVE",
"80.009 401.991 OFFCURVE",
"80.009 292.991 CURVE SMOOTH",
"80 217 OFFCURVE",
"136 152 OFFCURVE",
"241 152 CURVE SMOOTH"
);
},
{
closed = 1;
nodes = (
"213 176 OFFCURVE",
"194 235 OFFCURVE",
"194 307 CURVE SMOOTH",
"194 404 OFFCURVE",
"222 469 OFFCURVE",
"278 470 CURVE SMOOTH",
"314 470 OFFCURVE",
"341 423 OFFCURVE",
"341 342 CURVE SMOOTH",
"341 223 OFFCURVE",
"304 177 OFFCURVE",
"258 177 CURVE SMOOTH"
);
},
{
closed = 1;
nodes = (
"522 434 LINE",
"532 486 LINE",
"523 495 LINE",
"482 472 OFFCURVE",
"439 459 OFFCURVE",
"392 455 CURVE",
"399 434 LINE"
);
}
);
width = 517.39715;
}
);
leftKerningGroup = LAT_g;
rightKerningGroup = LAT_g;
unicode = 0067;
},
{
color = 4;
glyphname = gcommaaccent;
lastChange = "2019-06-06 17:04:15 +0000";
layers = (
{
associatedMasterId = "04BF5C93-05E4-4DB8-B59C-EE59F3489DF8";
components = (
{
alignment = -1;
name = g;
}
);
layerId = "70023048-75D4-4F59-8BF9-49EEC6A33CD1";
paths = (
{
closed = 1;
nodes = (
"308 739 OFFCURVE",
"260 699 OFFCURVE",
"260 636 CURVE SMOOTH",
"260 617 OFFCURVE",
"263 606 OFFCURVE",
"271 588 CURVE",
"289 574 OFFCURVE",
"305 569 OFFCURVE",
"322 569 CURVE SMOOTH",
"355 569 OFFCURVE",
"381 592 OFFCURVE",
"381 627 CURVE SMOOTH",
"381 658 OFFCURVE",
"358 682 OFFCURVE",
"320 708 CURVE",
"312 649 LINE",
"333 701 OFFCURVE",
"356 718 OFFCURVE",
"401 746 CURVE",
"381 777 LINE"
);
}
);
width = 517.39715;
},
{
components = (
{
alignment = -1;
name = g;
}
);
layerId = "04BF5C93-05E4-4DB8-B59C-EE59F3489DF8";
paths = (
{
closed = 1;
nodes = (
"308 739 OFFCURVE",
"260 699 OFFCURVE",
"260 636 CURVE SMOOTH",
"260 617 OFFCURVE",
"263 606 OFFCURVE",
"271 588 CURVE",
"289 574 OFFCURVE",
"305 569 OFFCURVE",
"322 569 CURVE SMOOTH",
"355 569 OFFCURVE",
"381 592 OFFCURVE",
"381 627 CURVE SMOOTH",
"381 658 OFFCURVE",
"358 682 OFFCURVE",
"320 708 CURVE",
"312 649 LINE",
"333 701 OFFCURVE",
"356 718 OFFCURVE",
"401 746 CURVE",
"381 777 LINE"
);
}
);
width = 517.39715;
}
);
leftKerningGroup = LAT_g;
rightKerningGroup = LAT_g;
unicode = 0123;
},
{
color = 4;
glyphname = h;
lastChange = "2019-06-06 17:04:15 +0000";
layers = (
{
anchors = (
{
name = aboveLC;
position = "{233, 702}";
},
{
name = belowLC;
position = "{222, -17}";
}
);
associatedMasterId = "04BF5C93-05E4-4DB8-B59C-EE59F3489DF8";
layerId = "70023048-75D4-4F59-8BF9-49EEC6A33CD1";
paths = (
{
closed = 1;
nodes = (
"150 0 LINE",
"161 71 OFFCURVE",
"173 133 OFFCURVE",
"190 213 CURVE SMOOTH",
"221 356 LINE",
"222 372 LINE",
"290 694 LINE",
"281 702 LINE",
"98 648 LINE",
"95 631 LINE",
"109 626 LINE SMOOTH",
"137 618 OFFCURVE",
"149 599 OFFCURVE",
"144 571 CURVE SMOOTH",
"135 523 OFFCURVE",
"128 488 OFFCURVE",
"119 441 CURVE SMOOTH",
"27 1 LINE",
"35 -7 LINE"
);
},
{
closed = 1;
nodes = (
"440 -14 OFFCURVE",
"496 33 OFFCURVE",
"528 80 CURVE",
"515 93 LINE",
"487 66 OFFCURVE",
"465 52 OFFCURVE",
"447 52 CURVE SMOOTH",
"437 52 OFFCURVE",
"430 59 OFFCURVE",
"430 73 CURVE SMOOTH",
"430 84 OFFCURVE",
"435 101 OFFCURVE",
"441 127 CURVE SMOOTH",
"490 325 LINE SMOOTH",
"498 357 OFFCURVE",
"504 387 OFFCURVE",
"504 416 CURVE SMOOTH",
"504 469 OFFCURVE",
"475 495 OFFCURVE",
"432 495 CURVE SMOOTH",
"363 495 OFFCURVE",
"274 436 OFFCURVE",
"205 358 CURVE",
"204 332 LINE",
"267 396 OFFCURVE",
"316 426 OFFCURVE",
"352 426 CURVE SMOOTH",
"373 426 OFFCURVE",
"384 414 OFFCURVE",
"384 390 CURVE SMOOTH",
"384 369 OFFCURVE",
"376 338 OFFCURVE",
"367 304 CURVE SMOOTH",
"323 131 LINE SMOOTH",
"315 98 OFFCURVE",
"307 70 OFFCURVE",
"307 42 CURVE SMOOTH",
"307 7 OFFCURVE",
"331 -14 OFFCURVE",
"374 -14 CURVE SMOOTH"
);
}
);
width = 538.32753;
},
{
anchors = (
{
name = aboveLC;
position = "{233, 702}";
},
{
name = belowLC;
position = "{222, -17}";
}
);
layerId = "04BF5C93-05E4-4DB8-B59C-EE59F3489DF8";
paths = (
{
closed = 1;
nodes = (
"150 0 LINE",
"161 71 OFFCURVE",
"173 133 OFFCURVE",
"190 213 CURVE SMOOTH",
"221 356 LINE",
"222 372 LINE",
"290 694 LINE",
"281 702 LINE",
"98 648 LINE",
"95 631 LINE",
"109 626 LINE SMOOTH",
"137 618 OFFCURVE",
"149 599 OFFCURVE",
"144 571 CURVE SMOOTH",
"135 523 OFFCURVE",
"128 488 OFFCURVE",
"119 441 CURVE SMOOTH",
"27 1 LINE",
"35 -7 LINE"
);
},
{
closed = 1;
nodes = (
"440 -14 OFFCURVE",
"496 33 OFFCURVE",
"528 80 CURVE",
"515 93 LINE",
"487 66 OFFCURVE",
"465 52 OFFCURVE",
"447 52 CURVE SMOOTH",
"437 52 OFFCURVE",
"430 59 OFFCURVE",
"430 73 CURVE SMOOTH",
"430 84 OFFCURVE",
"435 101 OFFCURVE",
"441 127 CURVE SMOOTH",
"490 325 LINE SMOOTH",
"498 357 OFFCURVE",
"504 387 OFFCURVE",
"504 416 CURVE SMOOTH",
"504 469 OFFCURVE",
"475 495 OFFCURVE",
"432 495 CURVE SMOOTH",
"363 495 OFFCURVE",
"274 436 OFFCURVE",
"205 358 CURVE",
"204 332 LINE",
"267 396 OFFCURVE",
"316 426 OFFCURVE",
"352 426 CURVE SMOOTH",
"373 426 OFFCURVE",
"384 414 OFFCURVE",
"384 390 CURVE SMOOTH",
"384 369 OFFCURVE",
"376 338 OFFCURVE",
"367 304 CURVE SMOOTH",
"323 131 LINE SMOOTH",
"315 98 OFFCURVE",
"307 70 OFFCURVE",
"307 42 CURVE SMOOTH",
"307 7 OFFCURVE",
"331 -14 OFFCURVE",
"374 -14 CURVE SMOOTH"
);
}
);
width = 538.32753;
}
);
leftKerningGroup = LAT_h;
rightKerningGroup = LAT_h;
unicode = 0068;
},
{
color = 4;
glyphname = i;
lastChange = "2019-06-06 17:04:15 +0000";
layers = (
{
anchors = (
{
name = aboveLC;
position = "{233, 737}";
},
{
name = belowLC;
position = "{122, -22}";
},
{
name = ogonek;
position = "{168, 0}";
}
);
associatedMasterId = "04BF5C93-05E4-4DB8-B59C-EE59F3489DF8";
layerId = "70023048-75D4-4F59-8BF9-49EEC6A33CD1";
paths = (
{
closed = 1;
nodes = (
"188 -14 OFFCURVE",
"238 30 OFFCURVE",
"271 79 CURVE",
"258 92 LINE",
"230 65 OFFCURVE",
"212 54 OFFCURVE",
"195 54 CURVE SMOOTH",
"182 54 OFFCURVE",
"175 62 OFFCURVE",
"175 76 CURVE SMOOTH",
"175 90 OFFCURVE",
"178 106 OFFCURVE",
"183 129 CURVE SMOOTH",
"259 486 LINE",
"249 496 LINE",
"69 444 LINE",
"67 426 LINE",
"81 420 LINE SMOOTH",
"107 410 OFFCURVE",
"118 391 OFFCURVE",
"112 363 CURVE SMOOTH",
"65 137 LINE SMOOTH",
"58 104 OFFCURVE",
"52 70 OFFCURVE",
"52 47 CURVE SMOOTH",
"52 7 OFFCURVE",
"81 -14 OFFCURVE",
"121 -14 CURVE SMOOTH"
);
},
{
closed = 1;
nodes = (
"253 554 OFFCURVE",
"290 589 OFFCURVE",
"290 632 CURVE SMOOTH",
"290 671 OFFCURVE",
"262 698 OFFCURVE",
"223 698 CURVE SMOOTH",
"183 698 OFFCURVE",
"145 665 OFFCURVE",
"145 621 CURVE SMOOTH",
"145 579 OFFCURVE",
"176 554 OFFCURVE",
"213 554 CURVE SMOOTH"
);
}
);
width = 279.35601;
},
{
anchors = (
{
name = aboveLC;
position = "{233, 737}";
},
{
name = belowLC;
position = "{122, -22}";
},
{
name = ogonek;
position = "{168, 0}";
}
);
layerId = "04BF5C93-05E4-4DB8-B59C-EE59F3489DF8";
paths = (
{
closed = 1;
nodes = (
"188 -14 OFFCURVE",
"238 30 OFFCURVE",
"271 79 CURVE",
"258 92 LINE",
"230 65 OFFCURVE",
"212 54 OFFCURVE",
"195 54 CURVE SMOOTH",
"182 54 OFFCURVE",
"175 62 OFFCURVE",
"175 76 CURVE SMOOTH",
"175 90 OFFCURVE",
"178 106 OFFCURVE",
"183 129 CURVE SMOOTH",
"259 486 LINE",
"249 496 LINE",
"69 444 LINE",
"67 426 LINE",
"81 420 LINE SMOOTH",
"107 410 OFFCURVE",
"118 391 OFFCURVE",
"112 363 CURVE SMOOTH",
"65 137 LINE SMOOTH",
"58 104 OFFCURVE",
"52 70 OFFCURVE",
"52 47 CURVE SMOOTH",
"52 7 OFFCURVE",
"81 -14 OFFCURVE",
"121 -14 CURVE SMOOTH"
);
},
{
closed = 1;
nodes = (
"253 554 OFFCURVE",
"290 589 OFFCURVE",
"290 632 CURVE SMOOTH",
"290 671 OFFCURVE",
"262 698 OFFCURVE",
"223 698 CURVE SMOOTH",
"183 698 OFFCURVE",
"145 665 OFFCURVE",
"145 621 CURVE SMOOTH",
"145 579 OFFCURVE",
"176 554 OFFCURVE",
"213 554 CURVE SMOOTH"
);
}
);
width = 279.35601;
}
);
leftKerningGroup = LAT_i;
rightKerningGroup = LAT_i;
unicode = 0069;
},
{
color = 4;
glyphname = idotless;
lastChange = "2019-06-06 17:04:15 +0000";
layers = (
{
anchors = (
{
name = aboveLC;
position = "{197, 513}";
},
{
name = belowLC;
position = "{122, -22}";
},
{
name = ogonek;
position = "{168, 0}";
}
);
associatedMasterId = "04BF5C93-05E4-4DB8-B59C-EE59F3489DF8";
layerId = "70023048-75D4-4F59-8BF9-49EEC6A33CD1";
paths = (
{
closed = 1;
nodes = (
"195 -14 OFFCURVE",
"250 39 OFFCURVE",
"287 96 CURVE",
"272 107 LINE",
"237 69 OFFCURVE",
"216 54 OFFCURVE",
"195 54 CURVE SMOOTH",
"182 54 OFFCURVE",
"175 62 OFFCURVE",
"175 76 CURVE SMOOTH",
"175 90 OFFCURVE",
"178 106 OFFCURVE",
"183 129 CURVE SMOOTH",
"259 486 LINE",
"249 496 LINE",
"69 444 LINE",
"67 426 LINE",
"81 420 LINE SMOOTH",
"107 410 OFFCURVE",
"118 391 OFFCURVE",
"112 363 CURVE SMOOTH",
"65 137 LINE SMOOTH",
"58 104 OFFCURVE",
"52 70 OFFCURVE",
"52 47 CURVE SMOOTH",
"52 7 OFFCURVE",
"81 -14 OFFCURVE",
"121 -14 CURVE SMOOTH"
);
}
);
width = 279.35601;
},
{
anchors = (
{
name = aboveLC;
position = "{197, 513}";
},
{
name = belowLC;
position = "{122, -22}";
},
{
name = ogonek;
position = "{168, 0}";
}
);
layerId = "04BF5C93-05E4-4DB8-B59C-EE59F3489DF8";
paths = (
{
closed = 1;
nodes = (
"195 -14 OFFCURVE",
"250 39 OFFCURVE",
"287 96 CURVE",
"272 107 LINE",
"237 69 OFFCURVE",
"216 54 OFFCURVE",
"195 54 CURVE SMOOTH",
"182 54 OFFCURVE",
"175 62 OFFCURVE",
"175 76 CURVE SMOOTH",
"175 90 OFFCURVE",
"178 106 OFFCURVE",
"183 129 CURVE SMOOTH",
"259 486 LINE",
"249 496 LINE",
"69 444 LINE",
"67 426 LINE",
"81 420 LINE SMOOTH",
"107 410 OFFCURVE",
"118 391 OFFCURVE",
"112 363 CURVE SMOOTH",
"65 137 LINE SMOOTH",
"58 104 OFFCURVE",
"52 70 OFFCURVE",
"52 47 CURVE SMOOTH",
"52 7 OFFCURVE",
"81 -14 OFFCURVE",
"121 -14 CURVE SMOOTH"
);
}
);
width = 279.35601;
}
);
leftKerningGroup = LAT_m;
rightKerningGroup = LAT_i;
unicode = 0131;
},
{
color = 4;
glyphname = j;
lastChange = "2019-06-06 17:04:15 +0000";
layers = (
{
anchors = (
{
name = aboveLC;
position = "{255, 737}";
},
{
name = belowLC;
position = "{5, -245}";
}
);
associatedMasterId = "04BF5C93-05E4-4DB8-B59C-EE59F3489DF8";
layerId = "70023048-75D4-4F59-8BF9-49EEC6A33CD1";
paths = (
{
closed = 1;
nodes = (
"3 -235 OFFCURVE",
"54 -209 OFFCURVE",
"91 -168 CURVE SMOOTH",
"140 -120 OFFCURVE",
"172 -50 OFFCURVE",
"192 50 CURVE SMOOTH",
"278 486 LINE",
"267 496 LINE",
"90 444 LINE",
"88 426 LINE",
"101 421 LINE SMOOTH",
"128 410 OFFCURVE",
"139 391 OFFCURVE",
"134 362 CURVE SMOOTH",
"75 50 LINE SMOOTH",
"55 -61 OFFCURVE",
"36 -123 OFFCURVE",
"11 -163 CURVE SMOOTH",
"-8 -195 OFFCURVE",
"-33 -208 OFFCURVE",
"-65 -221 CURVE",
"-61 -240 LINE"
);
},
{
closed = 1;
nodes = (
"274 554 OFFCURVE",
"311 589 OFFCURVE",
"311 632 CURVE SMOOTH",
"311 671 OFFCURVE",
"283 698 OFFCURVE",
"244 698 CURVE SMOOTH",
"204 698 OFFCURVE",
"167 665 OFFCURVE",
"167 621 CURVE SMOOTH",
"167 579 OFFCURVE",
"197 554 OFFCURVE",
"234 554 CURVE SMOOTH"
);
}
);
width = 279.92405;
},
{
anchors = (
{
name = aboveLC;
position = "{255, 737}";
},
{
name = belowLC;
position = "{5, -245}";
}
);
layerId = "04BF5C93-05E4-4DB8-B59C-EE59F3489DF8";
paths = (
{
closed = 1;
nodes = (
"3 -235 OFFCURVE",
"54 -209 OFFCURVE",
"91 -168 CURVE SMOOTH",
"140 -120 OFFCURVE",
"172 -50 OFFCURVE",
"192 50 CURVE SMOOTH",
"278 486 LINE",
"267 496 LINE",
"90 444 LINE",
"88 426 LINE",
"101 421 LINE SMOOTH",
"128 410 OFFCURVE",
"139 391 OFFCURVE",
"134 362 CURVE SMOOTH",
"75 50 LINE SMOOTH",
"55 -61 OFFCURVE",
"36 -123 OFFCURVE",
"11 -163 CURVE SMOOTH",
"-8 -195 OFFCURVE",
"-33 -208 OFFCURVE",
"-65 -221 CURVE",
"-61 -240 LINE"
);
},
{
closed = 1;
nodes = (
"274 554 OFFCURVE",
"311 589 OFFCURVE",
"311 632 CURVE SMOOTH",
"311 671 OFFCURVE",
"283 698 OFFCURVE",
"244 698 CURVE SMOOTH",
"204 698 OFFCURVE",
"167 665 OFFCURVE",
"167 621 CURVE SMOOTH",
"167 579 OFFCURVE",
"197 554 OFFCURVE",
"234 554 CURVE SMOOTH"
);
}
);
width = 279.92405;
}
);
leftKerningGroup = LAT_j;
rightKerningGroup = LAT_j;
unicode = 006A;
},
{
color = 4;
glyphname = k;
lastChange = "2019-06-06 17:04:15 +0000";
layers = (
{
anchors = (
{
name = aboveLC;
position = "{232, 702}";
},
{
name = belowLC;
position = "{231, -22}";
}
);
associatedMasterId = "04BF5C93-05E4-4DB8-B59C-EE59F3489DF8";
layerId = "70023048-75D4-4F59-8BF9-49EEC6A33CD1";
paths = (
{
closed = 1;
nodes = (
"149 0 LINE",
"161 71 OFFCURVE",
"172 133 OFFCURVE",
"189 213 CURVE SMOOTH",
"289 693 LINE",
"281 702 LINE",
"97 648 LINE",
"94 630 LINE",
"110 625 LINE SMOOTH",
"136 617 OFFCURVE",
"147 599 OFFCURVE",
"143 571 CURVE SMOOTH",
"135 527 OFFCURVE",
"127 486 OFFCURVE",
"118 441 CURVE SMOOTH",
"26 2 LINE",
"39 -8 LINE"
);
},
{
closed = 1;
nodes = (
"462 0 LINE",
"465 17 LINE",
"457 21 LINE SMOOTH",
"439 30 OFFCURVE",
"426 40 OFFCURVE",
"414 56 CURVE SMOOTH",
"249 259 LINE",
"442 356 LINE SMOOTH",
"483 375 OFFCURVE",
"512 396 OFFCURVE",
"512 430 CURVE SMOOTH",
"512 467 OFFCURVE",
"485 488 OFFCURVE",
"450 489 CURVE",
"198 252 LINE",
"263 90 LINE SMOOTH",
"274 57 OFFCURVE",
"292 18 OFFCURVE",
"310 0 CURVE"
);
}
);
width = 481.28323;
},
{
anchors = (
{
name = aboveLC;
position = "{232, 702}";
},
{
name = belowLC;
position = "{231, -22}";
}
);
layerId = "04BF5C93-05E4-4DB8-B59C-EE59F3489DF8";
paths = (
{
closed = 1;
nodes = (
"149 0 LINE",
"161 71 OFFCURVE",
"172 133 OFFCURVE",
"189 213 CURVE SMOOTH",
"289 693 LINE",
"281 702 LINE",
"97 648 LINE",
"94 630 LINE",
"110 625 LINE SMOOTH",
"136 617 OFFCURVE",
"147 599 OFFCURVE",
"143 571 CURVE SMOOTH",
"135 527 OFFCURVE",
"127 486 OFFCURVE",
"118 441 CURVE SMOOTH",
"26 2 LINE",
"39 -8 LINE"
);
},
{
closed = 1;
nodes = (
"462 0 LINE",
"465 17 LINE",
"457 21 LINE SMOOTH",
"439 30 OFFCURVE",
"426 40 OFFCURVE",
"414 56 CURVE SMOOTH",
"249 259 LINE",
"442 356 LINE SMOOTH",
"483 375 OFFCURVE",
"512 396 OFFCURVE",
"512 430 CURVE SMOOTH",
"512 467 OFFCURVE",
"485 488 OFFCURVE",
"450 489 CURVE",
"198 252 LINE",
"263 90 LINE SMOOTH",
"274 57 OFFCURVE",
"292 18 OFFCURVE",
"310 0 CURVE"
);
}
);
width = 481.28323;
}
);
leftKerningGroup = LAT_h;
rightKerningGroup = LAT_k;
unicode = 006B;
},
{
color = 4;
glyphname = l;
lastChange = "2019-06-06 17:04:15 +0000";
layers = (
{
anchors = (
{
name = aboveLC;
position = "{227, 702}";
},
{
name = belowLC;
position = "{114, -22}";
}
);
associatedMasterId = "04BF5C93-05E4-4DB8-B59C-EE59F3489DF8";
layerId = "70023048-75D4-4F59-8BF9-49EEC6A33CD1";
paths = (
{
closed = 1;
nodes = (
"183 -14 OFFCURVE",
"232 33 OFFCURVE",
"265 80 CURVE",
"251 94 LINE",
"221 65 OFFCURVE",
"199 51 OFFCURVE",
"184 51 CURVE SMOOTH",
"173 51 OFFCURVE",
"165 59 OFFCURVE",
"165 73 CURVE SMOOTH",
"165 83 OFFCURVE",
"167 100 OFFCURVE",
"172 121 CURVE SMOOTH",
"293 694 LINE",
"284 702 LINE",
"98 648 LINE",
"95 631 LINE",
"110 626 LINE SMOOTH",
"137 618 OFFCURVE",
"148 599 OFFCURVE",
"144 572 CURVE SMOOTH",
"135 523 OFFCURVE",
"129 489 OFFCURVE",
"119 441 CURVE SMOOTH",
"60 154 LINE SMOOTH",
"50 103 OFFCURVE",
"44 73 OFFCURVE",
"44 50 CURVE SMOOTH",
"44 8 OFFCURVE",
"72 -14 OFFCURVE",
"115 -14 CURVE SMOOTH"
);
}
);
width = 268.84494;
},
{
anchors = (
{
name = aboveLC;
position = "{227, 702}";
},
{
name = belowLC;
position = "{114, -22}";
}
);
layerId = "04BF5C93-05E4-4DB8-B59C-EE59F3489DF8";
paths = (
{
closed = 1;
nodes = (
"183 -14 OFFCURVE",
"232 33 OFFCURVE",
"265 80 CURVE",
"251 94 LINE",
"221 65 OFFCURVE",
"199 51 OFFCURVE",
"184 51 CURVE SMOOTH",
"173 51 OFFCURVE",
"165 59 OFFCURVE",
"165 73 CURVE SMOOTH",
"165 83 OFFCURVE",
"167 100 OFFCURVE",
"172 121 CURVE SMOOTH",
"293 694 LINE",
"284 702 LINE",
"98 648 LINE",
"95 631 LINE",
"110 626 LINE SMOOTH",
"137 618 OFFCURVE",
"148 599 OFFCURVE",
"144 572 CURVE SMOOTH",
"135 523 OFFCURVE",
"129 489 OFFCURVE",
"119 441 CURVE SMOOTH",
"60 154 LINE SMOOTH",
"50 103 OFFCURVE",
"44 73 OFFCURVE",
"44 50 CURVE SMOOTH",
"44 8 OFFCURVE",
"72 -14 OFFCURVE",
"115 -14 CURVE SMOOTH"
);
}
);
width = 268.84494;
}
);
leftKerningGroup = LAT_h;
rightKerningGroup = LAT_l;
unicode = 006C;
},
{
glyphname = lcaron;
lastChange = "2019-06-06 17:04:15 +0000";
layers = (
{
associatedMasterId = "04BF5C93-05E4-4DB8-B59C-EE59F3489DF8";
components = (
{
alignment = -1;
name = l;
}
);
layerId = "70023048-75D4-4F59-8BF9-49EEC6A33CD1";
paths = (
{
closed = 1;
nodes = (
"423 745 OFFCURVE",
"411 743 OFFCURVE",
"393 735 CURVE",
"347 512 LINE",
"389 508 LINE",
"431 581 LINE SMOOTH",
"456 628 OFFCURVE",
"483 677 OFFCURVE",
"483 711 CURVE SMOOTH",
"483 727 OFFCURVE",
"473 745 OFFCURVE",
"441 745 CURVE SMOOTH"
);
}
);
width = 334.39715;
},
{
components = (
{
alignment = -1;
name = l;
}
);
layerId = "04BF5C93-05E4-4DB8-B59C-EE59F3489DF8";
paths = (
{
closed = 1;
nodes = (
"423 745 OFFCURVE",
"411 743 OFFCURVE",
"393 735 CURVE",
"347 512 LINE",
"389 508 LINE",
"431 581 LINE SMOOTH",
"456 628 OFFCURVE",
"483 677 OFFCURVE",
"483 711 CURVE SMOOTH",
"483 727 OFFCURVE",
"473 745 OFFCURVE",
"441 745 CURVE SMOOTH"
);
}
);
width = 334.39715;
}
);
leftKerningGroup = LAT_h;
rightKerningGroup = LAT_dcaron;
unicode = 013E;
},
{
color = 4;
glyphname = lslash;
lastChange = "2019-06-06 17:04:15 +0000";
layers = (
{
associatedMasterId = "04BF5C93-05E4-4DB8-B59C-EE59F3489DF8";
components = (
{
alignment = -1;
name = l;
}
);
layerId = "70023048-75D4-4F59-8BF9-49EEC6A33CD1";
paths = (
{
closed = 1;
nodes = (
"21 325 LINE",
"11 282 LINE",
"187 368 LINE",
"197 412 LINE"
);
},
{
closed = 1;
nodes = (
"147 376 LINE",
"137 332 LINE",
"317 421 LINE",
"327 465 LINE"
);
}
);
width = 268.84494;
},
{
components = (
{
alignment = -1;
name = l;
}
);
layerId = "04BF5C93-05E4-4DB8-B59C-EE59F3489DF8";
paths = (
{
closed = 1;
nodes = (
"21 325 LINE",
"11 282 LINE",
"187 368 LINE",
"197 412 LINE"
);
},
{
closed = 1;
nodes = (
"147 376 LINE",
"137 332 LINE",
"317 421 LINE",
"327 465 LINE"
);
}
);
width = 268.84494;
}
);
leftKerningGroup = LAT_h;
rightKerningGroup = LAT_l;
unicode = 0142;
},
{
color = 4;
glyphname = m;
lastChange = "2019-06-06 17:04:15 +0000";
layers = (
{
anchors = (
{
name = aboveLC;
position = "{463, 513}";
},
{
name = belowLC;
position = "{377, -22}";
}
);
associatedMasterId = "04BF5C93-05E4-4DB8-B59C-EE59F3489DF8";
layerId = "70023048-75D4-4F59-8BF9-49EEC6A33CD1";
paths = (
{
closed = 1;
nodes = (
"723 -14 OFFCURVE",
"777 36 OFFCURVE",
"806 80 CURVE",
"792 94 LINE",
"765 67 OFFCURVE",
"742 51 OFFCURVE",
"723 51 CURVE SMOOTH",
"713 51 OFFCURVE",
"706 58 OFFCURVE",
"706 72 CURVE SMOOTH",
"706 82 OFFCURVE",
"711 98 OFFCURVE",
"716 120 CURVE SMOOTH",
"767 325 LINE SMOOTH",
"775 357 OFFCURVE",
"781 387 OFFCURVE",
"781 416 CURVE SMOOTH",
"781 469 OFFCURVE",
"751 495 OFFCURVE",
"709 495 CURVE SMOOTH",
"641 495 OFFCURVE",
"560 439 OFFCURVE",
"487 357 CURVE",
"487 332 LINE",
"543 389 OFFCURVE",
"591 418 OFFCURVE",
"624 418 CURVE SMOOTH",
"645 418 OFFCURVE",
"656 408 OFFCURVE",
"656 382 CURVE SMOOTH",
"656 363 OFFCURVE",
"649 332 OFFCURVE",
"641 299 CURVE SMOOTH",
"600 131 LINE SMOOTH",
"591 98 OFFCURVE",
"583 70 OFFCURVE",
"583 42 CURVE SMOOTH",
"583 7 OFFCURVE",
"608 -14 OFFCURVE",
"650 -14 CURVE SMOOTH"
);
},
{
closed = 1;
nodes = (
"172 72 OFFCURVE",
"185 142 OFFCURVE",
"200 213 CURVE SMOOTH",
"232 358 LINE",
"257 486 LINE",
"245 496 LINE",
"69 443 LINE",
"66 426 LINE",
"82 419 LINE SMOOTH",
"108 410 OFFCURVE",
"118 391 OFFCURVE",
"112 364 CURVE SMOOTH",
"36 1 LINE",
"45 -7 LINE",
"159 0 LINE"
);
},
{
closed = 1;
nodes = (
"446 72 OFFCURVE",
"459 142 OFFCURVE",
"474 213 CURVE SMOOTH",
"502 345 LINE SMOOTH",
"508 370 OFFCURVE",
"512 394 OFFCURVE",
"512 416 CURVE SMOOTH",
"512 469 OFFCURVE",
"483 495 OFFCURVE",
"440 495 CURVE SMOOTH",
"371 495 OFFCURVE",
"287 439 OFFCURVE",
"214 358 CURVE",
"214 333 LINE",
"271 388 OFFCURVE",
"317 415 OFFCURVE",
"356 415 CURVE SMOOTH",
"374 415 OFFCURVE",
"386 405 OFFCURVE",
"386 381 CURVE SMOOTH",
"386 364 OFFCURVE",
"381 340 OFFCURVE",
"377 316 CURVE SMOOTH",
"310 1 LINE",
"319 -7 LINE",
"432 0 LINE"
);
}
);
width = 814.7943;
},
{
anchors = (
{
name = aboveLC;
position = "{463, 513}";
},
{
name = belowLC;
position = "{377, -22}";
}
);
layerId = "04BF5C93-05E4-4DB8-B59C-EE59F3489DF8";
paths = (
{
closed = 1;
nodes = (
"723 -14 OFFCURVE",
"777 36 OFFCURVE",
"806 80 CURVE",
"792 94 LINE",
"765 67 OFFCURVE",
"742 51 OFFCURVE",
"723 51 CURVE SMOOTH",
"713 51 OFFCURVE",
"706 58 OFFCURVE",
"706 72 CURVE SMOOTH",
"706 82 OFFCURVE",
"711 98 OFFCURVE",
"716 120 CURVE SMOOTH",
"767 325 LINE SMOOTH",
"775 357 OFFCURVE",
"781 387 OFFCURVE",
"781 416 CURVE SMOOTH",
"781 469 OFFCURVE",
"751 495 OFFCURVE",
"709 495 CURVE SMOOTH",
"641 495 OFFCURVE",
"560 439 OFFCURVE",
"487 357 CURVE",
"487 332 LINE",
"543 389 OFFCURVE",
"591 418 OFFCURVE",
"624 418 CURVE SMOOTH",
"645 418 OFFCURVE",
"656 408 OFFCURVE",
"656 382 CURVE SMOOTH",
"656 363 OFFCURVE",
"649 332 OFFCURVE",
"641 299 CURVE SMOOTH",
"600 131 LINE SMOOTH",
"591 98 OFFCURVE",
"583 70 OFFCURVE",
"583 42 CURVE SMOOTH",
"583 7 OFFCURVE",
"608 -14 OFFCURVE",
"650 -14 CURVE SMOOTH"
);
},
{
closed = 1;
nodes = (
"172 72 OFFCURVE",
"185 142 OFFCURVE",
"200 213 CURVE SMOOTH",
"232 358 LINE",
"257 486 LINE",
"245 496 LINE",
"69 443 LINE",
"66 426 LINE",
"82 419 LINE SMOOTH",
"108 410 OFFCURVE",
"118 391 OFFCURVE",
"112 364 CURVE SMOOTH",
"36 1 LINE",
"45 -7 LINE",
"159 0 LINE"
);
},
{
closed = 1;
nodes = (
"446 72 OFFCURVE",
"459 142 OFFCURVE",
"474 213 CURVE SMOOTH",
"502 345 LINE SMOOTH",
"508 370 OFFCURVE",
"512 394 OFFCURVE",
"512 416 CURVE SMOOTH",
"512 469 OFFCURVE",
"483 495 OFFCURVE",
"440 495 CURVE SMOOTH",
"371 495 OFFCURVE",
"287 439 OFFCURVE",
"214 358 CURVE",
"214 333 LINE",
"271 388 OFFCURVE",
"317 415 OFFCURVE",
"356 415 CURVE SMOOTH",
"374 415 OFFCURVE",
"386 405 OFFCURVE",
"386 381 CURVE SMOOTH",
"386 364 OFFCURVE",
"381 340 OFFCURVE",
"377 316 CURVE SMOOTH",
"310 1 LINE",
"319 -7 LINE",
"432 0 LINE"
);
}
);
width = 814.7943;
}
);
leftKerningGroup = LAT_m;
rightKerningGroup = LAT_h;
unicode = 006D;
},
{
color = 4;
glyphname = n;
lastChange = "2019-06-06 17:04:15 +0000";
layers = (
{
anchors = (
{
name = aboveLC;
position = "{328, 513}";
},
{
name = belowLC;
position = "{233, -17}";
}
);
associatedMasterId = "04BF5C93-05E4-4DB8-B59C-EE59F3489DF8";
layerId = "70023048-75D4-4F59-8BF9-49EEC6A33CD1";
paths = (
{
closed = 1;
nodes = (
"449 -14 OFFCURVE",
"505 31 OFFCURVE",
"538 80 CURVE",
"524 94 LINE",
"498 67 OFFCURVE",
"474 52 OFFCURVE",
"458 52 CURVE SMOOTH",
"448 52 OFFCURVE",
"441 59 OFFCURVE",
"441 73 CURVE SMOOTH",
"441 83 OFFCURVE",
"445 98 OFFCURVE",
"450 120 CURVE SMOOTH",
"501 325 LINE SMOOTH",
"509 357 OFFCURVE",
"515 387 OFFCURVE",
"515 416 CURVE SMOOTH",
"515 469 OFFCURVE",
"485 495 OFFCURVE",
"442 495 CURVE SMOOTH",
"372 495 OFFCURVE",
"287 435 OFFCURVE",
"212 347 CURVE",
"214 322 LINE",
"276 390 OFFCURVE",
"326 421 OFFCURVE",
"360 421 CURVE SMOOTH",
"378 421 OFFCURVE",
"391 412 OFFCURVE",
"391 386 CURVE SMOOTH",
"391 361 OFFCURVE",
"383 329 OFFCURVE",
"373 289 CURVE SMOOTH",
"334 131 LINE SMOOTH",
"325 98 OFFCURVE",
"317 70 OFFCURVE",
"317 42 CURVE SMOOTH",
"317 7 OFFCURVE",
"342 -14 OFFCURVE",
"384 -14 CURVE SMOOTH"
);
},
{
closed = 1;
nodes = (
"159 0 LINE",
"172 72 OFFCURVE",
"185 142 OFFCURVE",
"200 213 CURVE SMOOTH",
"232 358 LINE",
"257 486 LINE",
"246 496 LINE",
"69 443 LINE",
"67 426 LINE",
"82 420 LINE SMOOTH",
"107 410 OFFCURVE",
"118 391 OFFCURVE",
"112 364 CURVE SMOOTH",
"36 1 LINE",
"46 -8 LINE"
);
}
);
width = 545.81962;
},
{
anchors = (
{
name = aboveLC;
position = "{328, 513}";
},
{
name = belowLC;
position = "{233, -17}";
}
);
layerId = "04BF5C93-05E4-4DB8-B59C-EE59F3489DF8";
paths = (
{
closed = 1;
nodes = (
"449 -14 OFFCURVE",
"505 31 OFFCURVE",
"538 80 CURVE",
"524 94 LINE",
"498 67 OFFCURVE",
"474 52 OFFCURVE",
"458 52 CURVE SMOOTH",
"448 52 OFFCURVE",
"441 59 OFFCURVE",
"441 73 CURVE SMOOTH",
"441 83 OFFCURVE",
"445 98 OFFCURVE",
"450 120 CURVE SMOOTH",
"501 325 LINE SMOOTH",
"509 357 OFFCURVE",
"515 387 OFFCURVE",
"515 416 CURVE SMOOTH",
"515 469 OFFCURVE",
"485 495 OFFCURVE",
"442 495 CURVE SMOOTH",
"372 495 OFFCURVE",
"287 435 OFFCURVE",
"212 347 CURVE",
"214 322 LINE",
"276 390 OFFCURVE",
"326 421 OFFCURVE",
"360 421 CURVE SMOOTH",
"378 421 OFFCURVE",
"391 412 OFFCURVE",
"391 386 CURVE SMOOTH",
"391 361 OFFCURVE",
"383 329 OFFCURVE",
"373 289 CURVE SMOOTH",
"334 131 LINE SMOOTH",
"325 98 OFFCURVE",
"317 70 OFFCURVE",
"317 42 CURVE SMOOTH",
"317 7 OFFCURVE",
"342 -14 OFFCURVE",
"384 -14 CURVE SMOOTH"
);
},
{
closed = 1;
nodes = (
"159 0 LINE",
"172 72 OFFCURVE",
"185 142 OFFCURVE",
"200 213 CURVE SMOOTH",
"232 358 LINE",
"257 486 LINE",
"246 496 LINE",
"69 443 LINE",
"67 426 LINE",
"82 420 LINE SMOOTH",
"107 410 OFFCURVE",
"118 391 OFFCURVE",
"112 364 CURVE SMOOTH",
"36 1 LINE",
"46 -8 LINE"
);
}
);
width = 545.81962;
}
);
leftKerningGroup = LAT_m;
rightKerningGroup = LAT_h;
unicode = 006E;
},
{
color = 4;
glyphname = o;
lastChange = "2019-06-06 17:04:15 +0000";
layers = (
{
anchors = (
{
name = aboveLC;
position = "{335, 513}";
},
{
name = belowLC;
position = "{224, -22}";
},
{
name = hornLC;
position = "{407, 484}";
},
{
name = ogonek;
position = "{303, 0}";
}
);
associatedMasterId = "04BF5C93-05E4-4DB8-B59C-EE59F3489DF8";
layerId = "70023048-75D4-4F59-8BF9-49EEC6A33CD1";
paths = (
{
closed = 1;
nodes = (
"392 -14 OFFCURVE",
"514 140 OFFCURVE",
"514 309 CURVE SMOOTH",
"514 435 OFFCURVE",
"436 495 OFFCURVE",
"331 495 CURVE SMOOTH",
"173 495 OFFCURVE",
"49 343 OFFCURVE",
"49 172 CURVE SMOOTH",
"49 46 OFFCURVE",
"131 -14 OFFCURVE",
"234 -14 CURVE SMOOTH"
);
},
{
closed = 1;
nodes = (
"205 14 OFFCURVE",
"174 50 OFFCURVE",
"174 158 CURVE SMOOTH",
"174 307 OFFCURVE",
"237 466 OFFCURVE",
"323 466 CURVE SMOOTH",
"362 466 OFFCURVE",
"389 430 OFFCURVE",
"389 325 CURVE SMOOTH",
"389 177 OFFCURVE",
"331 14 OFFCURVE",
"246 14 CURVE SMOOTH"
);
}
);
width = 518.89873;
},
{
anchors = (
{
name = aboveLC;
position = "{335, 513}";
},
{
name = belowLC;
position = "{224, -22}";
},
{
name = hornLC;
position = "{407, 484}";
},
{
name = ogonek;
position = "{303, 0}";
}
);
layerId = "04BF5C93-05E4-4DB8-B59C-EE59F3489DF8";
paths = (
{
closed = 1;
nodes = (
"392 -14 OFFCURVE",
"514 140 OFFCURVE",
"514 309 CURVE SMOOTH",
"514 435 OFFCURVE",
"436 495 OFFCURVE",
"331 495 CURVE SMOOTH",
"173 495 OFFCURVE",
"49 343 OFFCURVE",
"49 172 CURVE SMOOTH",
"49 46 OFFCURVE",
"131 -14 OFFCURVE",
"234 -14 CURVE SMOOTH"
);
},
{
closed = 1;
nodes = (
"205 14 OFFCURVE",
"174 50 OFFCURVE",
"174 158 CURVE SMOOTH",
"174 307 OFFCURVE",
"237 466 OFFCURVE",
"323 466 CURVE SMOOTH",
"362 466 OFFCURVE",
"389 430 OFFCURVE",
"389 325 CURVE SMOOTH",
"389 177 OFFCURVE",
"331 14 OFFCURVE",
"246 14 CURVE SMOOTH"
);
}
);
width = 518.89873;
}
);
leftKerningGroup = LAT_o;
rightKerningGroup = LAT_o;
unicode = 006F;
},
{
color = 4;
glyphname = oslash;
lastChange = "2019-06-06 17:04:15 +0000";
layers = (
{
anchors = (
{
name = aboveLC;
position = "{335, 513}";
}
);
associatedMasterId = "04BF5C93-05E4-4DB8-B59C-EE59F3489DF8";
layerId = "70023048-75D4-4F59-8BF9-49EEC6A33CD1";
paths = (
{
closed = 1;
nodes = (
"519 509 LINE",
"11 -4 LINE",
"34 -25 LINE",
"542 488 LINE"
);
},
{
closed = 1;
nodes = (
"392 -14 OFFCURVE",
"514 140 OFFCURVE",
"514 309 CURVE SMOOTH",
"514 435 OFFCURVE",
"436 495 OFFCURVE",
"331 495 CURVE SMOOTH",
"173 495 OFFCURVE",
"49 343 OFFCURVE",
"49 172 CURVE SMOOTH",
"49 46 OFFCURVE",
"131 -14 OFFCURVE",
"234 -14 CURVE SMOOTH"
);
},
{
closed = 1;
nodes = (
"201 14 OFFCURVE",
"167 44 OFFCURVE",
"167 158 CURVE SMOOTH",
"167 307 OFFCURVE",
"231 466 OFFCURVE",
"319 466 CURVE SMOOTH",
"364 466 OFFCURVE",
"396 436 OFFCURVE",
"396 325 CURVE SMOOTH",
"396 177 OFFCURVE",
"335 14 OFFCURVE",
"246 14 CURVE SMOOTH"
);
}
);
width = 518.89873;
},
{
anchors = (
{
name = aboveLC;
position = "{335, 513}";
}
);
layerId = "04BF5C93-05E4-4DB8-B59C-EE59F3489DF8";
paths = (
{
closed = 1;
nodes = (
"519 509 LINE",
"11 -4 LINE",
"34 -25 LINE",
"542 488 LINE"
);
},
{
closed = 1;
nodes = (
"392 -14 OFFCURVE",
"514 140 OFFCURVE",
"514 309 CURVE SMOOTH",
"514 435 OFFCURVE",
"436 495 OFFCURVE",
"331 495 CURVE SMOOTH",
"173 495 OFFCURVE",
"49 343 OFFCURVE",
"49 172 CURVE SMOOTH",
"49 46 OFFCURVE",
"131 -14 OFFCURVE",
"234 -14 CURVE SMOOTH"
);
},
{
closed = 1;
nodes = (
"201 14 OFFCURVE",
"167 44 OFFCURVE",
"167 158 CURVE SMOOTH",
"167 307 OFFCURVE",
"231 466 OFFCURVE",
"319 466 CURVE SMOOTH",
"364 466 OFFCURVE",
"396 436 OFFCURVE",
"396 325 CURVE SMOOTH",
"396 177 OFFCURVE",
"335 14 OFFCURVE",
"246 14 CURVE SMOOTH"
);
}
);
width = 518.89873;
}
);
leftKerningGroup = LAT_o;
rightKerningGroup = LAT_o;
unicode = 00F8;
},
{
color = 4;
glyphname = oe;
lastChange = "2019-06-06 17:04:15 +0000";
layers = (
{
anchors = (
{
name = aboveLC;
position = "{491, 513}";
}
);
associatedMasterId = "04BF5C93-05E4-4DB8-B59C-EE59F3489DF8";
components = (
{
alignment = -1;
name = e;
transform = "{1, 0, 0, 1, 328, 0}";
}
);
layerId = "70023048-75D4-4F59-8BF9-49EEC6A33CD1";
paths = (
{
closed = 1;
nodes = (
"325 -14 OFFCURVE",
"404 36 OFFCURVE",
"455 112 CURVE",
"507 362 LINE",
"489 451 OFFCURVE",
"420 495 OFFCURVE",
"331 495 CURVE SMOOTH",
"173 495 OFFCURVE",
"49 343 OFFCURVE",
"49 172 CURVE SMOOTH",
"49 46 OFFCURVE",
"131 -14 OFFCURVE",
"234 -14 CURVE SMOOTH"
);
},
{
closed = 1;
nodes = (
"205 14 OFFCURVE",
"174 50 OFFCURVE",
"174 158 CURVE SMOOTH",
"174 307 OFFCURVE",
"237 466 OFFCURVE",
"323 466 CURVE SMOOTH",
"362 466 OFFCURVE",
"388 430 OFFCURVE",
"388 325 CURVE SMOOTH",
"388 177 OFFCURVE",
"331 14 OFFCURVE",
"246 14 CURVE SMOOTH"
);
}
);
width = 778.38449;
},
{
anchors = (
{
name = aboveLC;
position = "{491, 513}";
}
);
components = (
{
alignment = -1;
name = e;
transform = "{1, 0, 0, 1, 328, 0}";
}
);
layerId = "04BF5C93-05E4-4DB8-B59C-EE59F3489DF8";
paths = (
{
closed = 1;
nodes = (
"325 -14 OFFCURVE",
"404 36 OFFCURVE",
"455 112 CURVE",
"507 362 LINE",
"489 451 OFFCURVE",
"420 495 OFFCURVE",
"331 495 CURVE SMOOTH",
"173 495 OFFCURVE",
"49 343 OFFCURVE",
"49 172 CURVE SMOOTH",
"49 46 OFFCURVE",
"131 -14 OFFCURVE",
"234 -14 CURVE SMOOTH"
);
},
{
closed = 1;
nodes = (
"205 14 OFFCURVE",
"174 50 OFFCURVE",
"174 158 CURVE SMOOTH",
"174 307 OFFCURVE",
"237 466 OFFCURVE",
"323 466 CURVE SMOOTH",
"362 466 OFFCURVE",
"388 430 OFFCURVE",
"388 325 CURVE SMOOTH",
"388 177 OFFCURVE",
"331 14 OFFCURVE",
"246 14 CURVE SMOOTH"
);
}
);
width = 778.38449;
}
);
leftKerningGroup = LAT_o;
leftMetricsKey = o;
rightKerningGroup = LAT_e;
rightMetricsKey = e;
unicode = 0153;
},
{
color = 4;
glyphname = p;
lastChange = "2019-06-06 17:04:15 +0000";
layers = (
{
anchors = (
{
name = aboveLC;
position = "{315, 513}";
},
{
name = belowLC;
position = "{52, -246}";
}
);
associatedMasterId = "04BF5C93-05E4-4DB8-B59C-EE59F3489DF8";
layerId = "70023048-75D4-4F59-8BF9-49EEC6A33CD1";
paths = (
{
closed = 1;
nodes = (
"171 -231 LINE",
"175 -213 LINE",
"150 -207 LINE SMOOTH",
"129 -201 OFFCURVE",
"119 -186 OFFCURVE",
"123 -164 CURVE SMOOTH",
"132 -113 OFFCURVE",
"143 -58 OFFCURVE",
"158 16 CURVE",
"164 34 LINE",
"257 487 LINE",
"245 496 LINE",
"69 444 LINE",
"67 426 LINE",
"83 420 LINE SMOOTH",
"108 410 OFFCURVE",
"118 392 OFFCURVE",
"113 365 CURVE SMOOTH",
"2 -164 LINE SMOOTH",
"-3 -189 OFFCURVE",
"-17 -202 OFFCURVE",
"-41 -209 CURVE",
"-59 -213 LINE",
"-63 -231 LINE"
);
},
{
closed = 1;
nodes = (
"351 -14 OFFCURVE",
"521 181 OFFCURVE",
"521 362 CURVE SMOOTH",
"521 462 OFFCURVE",
"476 495 OFFCURVE",
"421 495 CURVE SMOOTH",
"351 495 OFFCURVE",
"258 428 OFFCURVE",
"204 338 CURVE",
"210 326 LINE",
"255 383 OFFCURVE",
"303 418 OFFCURVE",
"339 418 CURVE SMOOTH",
"381 418 OFFCURVE",
"403 382 OFFCURVE",
"403 317 CURVE SMOOTH",
"403 240 OFFCURVE",
"378 150 OFFCURVE",
"348 102 CURVE SMOOTH",
"320 58 OFFCURVE",
"287 37 OFFCURVE",
"246 37 CURVE SMOOTH",
"207 37 OFFCURVE",
"166 66 OFFCURVE",
"137 114 CURVE",
"100 39 LINE",
"131 4 OFFCURVE",
"164 -14 OFFCURVE",
"205 -14 CURVE SMOOTH"
);
}
);
width = 516.83544;
},
{
anchors = (
{
name = aboveLC;
position = "{315, 513}";
},
{
name = belowLC;
position = "{52, -246}";
}
);
layerId = "04BF5C93-05E4-4DB8-B59C-EE59F3489DF8";
paths = (
{
closed = 1;
nodes = (
"171 -231 LINE",
"175 -213 LINE",
"150 -207 LINE SMOOTH",
"129 -201 OFFCURVE",
"119 -186 OFFCURVE",
"123 -164 CURVE SMOOTH",
"132 -113 OFFCURVE",
"143 -58 OFFCURVE",
"158 16 CURVE",
"164 34 LINE",
"257 487 LINE",
"245 496 LINE",
"69 444 LINE",
"67 426 LINE",
"83 420 LINE SMOOTH",
"108 410 OFFCURVE",
"118 392 OFFCURVE",
"113 365 CURVE SMOOTH",
"2 -164 LINE SMOOTH",
"-3 -189 OFFCURVE",
"-17 -202 OFFCURVE",
"-41 -209 CURVE",
"-59 -213 LINE",
"-63 -231 LINE"
);
},
{
closed = 1;
nodes = (
"351 -14 OFFCURVE",
"521 181 OFFCURVE",
"521 362 CURVE SMOOTH",
"521 462 OFFCURVE",
"476 495 OFFCURVE",
"421 495 CURVE SMOOTH",
"351 495 OFFCURVE",
"258 428 OFFCURVE",
"204 338 CURVE",
"210 326 LINE",
"255 383 OFFCURVE",
"303 418 OFFCURVE",
"339 418 CURVE SMOOTH",
"381 418 OFFCURVE",
"403 382 OFFCURVE",
"403 317 CURVE SMOOTH",
"403 240 OFFCURVE",
"378 150 OFFCURVE",
"348 102 CURVE SMOOTH",
"320 58 OFFCURVE",
"287 37 OFFCURVE",
"246 37 CURVE SMOOTH",
"207 37 OFFCURVE",
"166 66 OFFCURVE",
"137 114 CURVE",
"100 39 LINE",
"131 4 OFFCURVE",
"164 -14 OFFCURVE",
"205 -14 CURVE SMOOTH"
);
}
);
width = 516.83544;
}
);
rightKerningGroup = LAT_b;
unicode = 0070;
},
{
color = 4;
glyphname = thorn;
lastChange = "2019-06-06 17:04:15 +0000";
layers = (
{
anchors = (
{
name = aboveLC;
position = "{244, 725}";
},
{
name = belowLC;
position = "{333, -13}";
}
);
associatedMasterId = "04BF5C93-05E4-4DB8-B59C-EE59F3489DF8";
layerId = "70023048-75D4-4F59-8BF9-49EEC6A33CD1";
paths = (
{
closed = 1;
nodes = (
"162 -231 LINE",
"165 -213 LINE",
"146 -208 LINE SMOOTH",
"124 -201 OFFCURVE",
"114 -186 OFFCURVE",
"118 -164 CURVE SMOOTH",
"129 -105 OFFCURVE",
"141 -42 OFFCURVE",
"153 18 CURVE",
"163 34 LINE",
"229 353 LINE",
"230 366 LINE",
"299 694 LINE",
"291 702 LINE",
"105 648 LINE",
"102 631 LINE",
"119 625 LINE SMOOTH",
"146 617 OFFCURVE",
"158 599 OFFCURVE",
"153 572 CURVE SMOOTH",
"146 528 OFFCURVE",
"136 480 OFFCURVE",
"124 424 CURVE",
"1 -164 LINE SMOOTH",
"-4 -189 OFFCURVE",
"-19 -204 OFFCURVE",
"-44 -210 CURVE SMOOTH",
"-59 -213 LINE",
"-63 -231 LINE"
);
},
{
closed = 1;
nodes = (
"351 -14 OFFCURVE",
"521 181 OFFCURVE",
"521 362 CURVE SMOOTH",
"521 462 OFFCURVE",
"476 495 OFFCURVE",
"421 495 CURVE SMOOTH",
"351 495 OFFCURVE",
"258 428 OFFCURVE",
"204 338 CURVE",
"210 326 LINE",
"255 383 OFFCURVE",
"303 418 OFFCURVE",
"339 418 CURVE SMOOTH",
"381 418 OFFCURVE",
"403 382 OFFCURVE",
"403 317 CURVE SMOOTH",
"403 240 OFFCURVE",
"378 150 OFFCURVE",
"348 102 CURVE SMOOTH",
"320 58 OFFCURVE",
"287 37 OFFCURVE",
"246 37 CURVE SMOOTH",
"207 37 OFFCURVE",
"166 66 OFFCURVE",
"137 114 CURVE",
"100 39 LINE",
"131 4 OFFCURVE",
"164 -14 OFFCURVE",
"205 -14 CURVE SMOOTH"
);
}
);
width = 516.83544;
},
{
anchors = (
{
name = aboveLC;
position = "{244, 725}";
},
{
name = belowLC;
position = "{333, -13}";
}
);
layerId = "04BF5C93-05E4-4DB8-B59C-EE59F3489DF8";
paths = (
{
closed = 1;
nodes = (
"162 -231 LINE",
"165 -213 LINE",
"146 -208 LINE SMOOTH",
"124 -201 OFFCURVE",
"114 -186 OFFCURVE",
"118 -164 CURVE SMOOTH",
"129 -105 OFFCURVE",
"141 -42 OFFCURVE",
"153 18 CURVE",
"163 34 LINE",
"229 353 LINE",
"230 366 LINE",
"299 694 LINE",
"291 702 LINE",
"105 648 LINE",
"102 631 LINE",
"119 625 LINE SMOOTH",
"146 617 OFFCURVE",
"158 599 OFFCURVE",
"153 572 CURVE SMOOTH",
"146 528 OFFCURVE",
"136 480 OFFCURVE",
"124 424 CURVE",
"1 -164 LINE SMOOTH",
"-4 -189 OFFCURVE",
"-19 -204 OFFCURVE",
"-44 -210 CURVE SMOOTH",
"-59 -213 LINE",
"-63 -231 LINE"
);
},
{
closed = 1;
nodes = (
"351 -14 OFFCURVE",
"521 181 OFFCURVE",
"521 362 CURVE SMOOTH",
"521 462 OFFCURVE",
"476 495 OFFCURVE",
"421 495 CURVE SMOOTH",
"351 495 OFFCURVE",
"258 428 OFFCURVE",
"204 338 CURVE",
"210 326 LINE",
"255 383 OFFCURVE",
"303 418 OFFCURVE",
"339 418 CURVE SMOOTH",
"381 418 OFFCURVE",
"403 382 OFFCURVE",
"403 317 CURVE SMOOTH",
"403 240 OFFCURVE",
"378 150 OFFCURVE",
"348 102 CURVE SMOOTH",
"320 58 OFFCURVE",
"287 37 OFFCURVE",
"246 37 CURVE SMOOTH",
"207 37 OFFCURVE",
"166 66 OFFCURVE",
"137 114 CURVE",
"100 39 LINE",
"131 4 OFFCURVE",
"164 -14 OFFCURVE",
"205 -14 CURVE SMOOTH"
);
}
);
width = 516.83544;
}
);
widthMetricsKey = p;
rightKerningGroup = LAT_b;
rightMetricsKey = p;
unicode = 00FE;
},
{
color = 4;
glyphname = q;
lastChange = "2019-06-06 17:04:15 +0000";
layers = (
{
anchors = (
{
name = aboveLC;
position = "{387, 513}";
},
{
name = belowLC;
position = "{317, -246}";
}
);
associatedMasterId = "04BF5C93-05E4-4DB8-B59C-EE59F3489DF8";
layerId = "70023048-75D4-4F59-8BF9-49EEC6A33CD1";
paths = (
{
closed = 1;
nodes = (
"446 -231 LINE",
"450 -213 LINE",
"425 -207 LINE SMOOTH",
"404 -201 OFFCURVE",
"394 -187 OFFCURVE",
"398 -165 CURVE SMOOTH",
"406 -119 OFFCURVE",
"415 -70 OFFCURVE",
"425 -23 CURVE SMOOTH",
"532 493 LINE",
"521 501 LINE",
"404 445 LINE",
"334 116 LINE",
"334 104 LINE",
"278 -161 LINE SMOOTH",
"273 -186 OFFCURVE",
"259 -201 OFFCURVE",
"234 -207 CURVE SMOOTH",
"208 -213 LINE",
"205 -231 LINE"
);
},
{
closed = 1;
nodes = (
"215 -14 OFFCURVE",
"311 55 OFFCURVE",
"371 144 CURVE",
"368 164 LINE",
"315 97 OFFCURVE",
"268 67 OFFCURVE",
"230 67 CURVE SMOOTH",
"190 67 OFFCURVE",
"167 97 OFFCURVE",
"167 165 CURVE SMOOTH",
"167 251 OFFCURVE",
"196 340 OFFCURVE",
"238 391 CURVE SMOOTH",
"263 422 OFFCURVE",
"299 446 OFFCURVE",
"337 446 CURVE SMOOTH",
"369 446 OFFCURVE",
"398 430 OFFCURVE",
"423 397 CURVE",
"476 444 LINE",
"445 479 OFFCURVE",
"416 495 OFFCURVE",
"377 495 CURVE SMOOTH",
"230 495 OFFCURVE",
"47 295 OFFCURVE",
"47 122 CURVE SMOOTH",
"47 22 OFFCURVE",
"93 -15 OFFCURVE",
"146 -14 CURVE SMOOTH"
);
}
);
width = 517.8038;
},
{
anchors = (
{
name = aboveLC;
position = "{387, 513}";
},
{
name = belowLC;
position = "{317, -246}";
}
);
layerId = "04BF5C93-05E4-4DB8-B59C-EE59F3489DF8";
paths = (
{
closed = 1;
nodes = (
"446 -231 LINE",
"450 -213 LINE",
"425 -207 LINE SMOOTH",
"404 -201 OFFCURVE",
"394 -187 OFFCURVE",
"398 -165 CURVE SMOOTH",
"406 -119 OFFCURVE",
"415 -70 OFFCURVE",
"425 -23 CURVE SMOOTH",
"532 493 LINE",
"521 501 LINE",
"404 445 LINE",
"334 116 LINE",
"334 104 LINE",
"278 -161 LINE SMOOTH",
"273 -186 OFFCURVE",
"259 -201 OFFCURVE",
"234 -207 CURVE SMOOTH",
"208 -213 LINE",
"205 -231 LINE"
);
},
{
closed = 1;
nodes = (
"215 -14 OFFCURVE",
"311 55 OFFCURVE",
"371 144 CURVE",
"368 164 LINE",
"315 97 OFFCURVE",
"268 67 OFFCURVE",
"230 67 CURVE SMOOTH",
"190 67 OFFCURVE",
"167 97 OFFCURVE",
"167 165 CURVE SMOOTH",
"167 251 OFFCURVE",
"196 340 OFFCURVE",
"238 391 CURVE SMOOTH",
"263 422 OFFCURVE",
"299 446 OFFCURVE",
"337 446 CURVE SMOOTH",
"369 446 OFFCURVE",
"398 430 OFFCURVE",
"423 397 CURVE",
"476 444 LINE",
"445 479 OFFCURVE",
"416 495 OFFCURVE",
"377 495 CURVE SMOOTH",
"230 495 OFFCURVE",
"47 295 OFFCURVE",
"47 122 CURVE SMOOTH",
"47 22 OFFCURVE",
"93 -15 OFFCURVE",
"146 -14 CURVE SMOOTH"
);
}
);
width = 517.8038;
}
);
leftKerningGroup = LAT_a;
unicode = 0071;
},
{
color = 4;
glyphname = r;
lastChange = "2019-06-06 17:04:15 +0000";
layers = (
{
anchors = (
{
name = aboveLC;
position = "{290, 513}";
},
{
name = belowLC;
position = "{97, -22}";
}
);
associatedMasterId = "04BF5C93-05E4-4DB8-B59C-EE59F3489DF8";
layerId = "70023048-75D4-4F59-8BF9-49EEC6A33CD1";
paths = (
{
closed = 1;
nodes = (
"159 0 LINE",
"172 72 OFFCURVE",
"186 142 OFFCURVE",
"200 213 CURVE SMOOTH",
"219 305 LINE",
"218 316 LINE",
"247 485 LINE",
"235 496 LINE",
"69 443 LINE",
"66 426 LINE",
"80 421 LINE SMOOTH",
"106 411 OFFCURVE",
"118 395 OFFCURVE",
"111 363 CURVE SMOOTH",
"36 1 LINE",
"46 -8 LINE"
);
},
{
closed = 1;
nodes = (
"241 328 OFFCURVE",
"282 399 OFFCURVE",
"348 437 CURVE",
"303 435 LINE",
"316 420 LINE SMOOTH",
"342 390 OFFCURVE",
"368 375 OFFCURVE",
"397 375 CURVE SMOOTH",
"433 375 OFFCURVE",
"456 400 OFFCURVE",
"456 437 CURVE SMOOTH",
"456 471 OFFCURVE",
"429 495 OFFCURVE",
"389 495 CURVE SMOOTH",
"319 495 OFFCURVE",
"244 394 OFFCURVE",
"201 284 CURVE",
"205 246 LINE"
);
}
);
width = 417.79114;
},
{
anchors = (
{
name = aboveLC;
position = "{290, 513}";
},
{
name = belowLC;
position = "{97, -22}";
}
);
layerId = "04BF5C93-05E4-4DB8-B59C-EE59F3489DF8";
paths = (
{
closed = 1;
nodes = (
"159 0 LINE",
"172 72 OFFCURVE",
"186 142 OFFCURVE",
"200 213 CURVE SMOOTH",
"219 305 LINE",
"218 316 LINE",
"247 485 LINE",
"235 496 LINE",
"69 443 LINE",
"66 426 LINE",
"80 421 LINE SMOOTH",
"106 411 OFFCURVE",
"118 395 OFFCURVE",
"111 363 CURVE SMOOTH",
"36 1 LINE",
"46 -8 LINE"
);
},
{
closed = 1;
nodes = (
"241 328 OFFCURVE",
"282 399 OFFCURVE",
"348 437 CURVE",
"303 435 LINE",
"316 420 LINE SMOOTH",
"342 390 OFFCURVE",
"368 375 OFFCURVE",
"397 375 CURVE SMOOTH",
"433 375 OFFCURVE",
"456 400 OFFCURVE",
"456 437 CURVE SMOOTH",
"456 471 OFFCURVE",
"429 495 OFFCURVE",
"389 495 CURVE SMOOTH",
"319 495 OFFCURVE",
"244 394 OFFCURVE",
"201 284 CURVE",
"205 246 LINE"
);
}
);
width = 417.79114;
}
);
leftKerningGroup = LAT_m;
rightKerningGroup = LAT_r;
unicode = 0072;
},
{
color = 4;
glyphname = s;
lastChange = "2019-06-06 17:04:15 +0000";
layers = (
{
anchors = (
{
name = aboveLC;
position = "{280, 513}";
},
{
name = baseLC;
position = "{190, 0}";
},
{
name = belowLC;
position = "{154, -22}";
}
);
associatedMasterId = "04BF5C93-05E4-4DB8-B59C-EE59F3489DF8";
layerId = "70023048-75D4-4F59-8BF9-49EEC6A33CD1";
paths = (
{
closed = 1;
nodes = (
"298 -14 OFFCURVE",
"372 52 OFFCURVE",
"372 134 CURVE SMOOTH",
"372 193 OFFCURVE",
"347 228 OFFCURVE",
"287 272 CURVE SMOOTH",
"231 315 OFFCURVE",
"204 349 OFFCURVE",
"204 396 CURVE SMOOTH",
"204 444 OFFCURVE",
"232 468 OFFCURVE",
"257 468 CURVE SMOOTH",
"257 468 OFFCURVE",
"257 468 OFFCURVE",
"257 468 CURVE SMOOTH",
"276 468 OFFCURVE",
"285 459 OFFCURVE",
"292 434 CURVE SMOOTH",
"299 410 LINE SMOOTH",
"311 372 OFFCURVE",
"333 354 OFFCURVE",
"362 354 CURVE SMOOTH",
"395 354 OFFCURVE",
"414 375 OFFCURVE",
"414 404 CURVE SMOOTH",
"414 456 OFFCURVE",
"362 495 OFFCURVE",
"276 495 CURVE SMOOTH",
"166 495 OFFCURVE",
"98 427 OFFCURVE",
"98 345 CURVE SMOOTH",
"98 281 OFFCURVE",
"134 240 OFFCURVE",
"188 197 CURVE SMOOTH",
"242 155 OFFCURVE",
"262 125 OFFCURVE",
"262 89 CURVE SMOOTH",
"262 40 OFFCURVE",
"231 11 OFFCURVE",
"197 11 CURVE SMOOTH",
"197 11 OFFCURVE",
"197 11 OFFCURVE",
"197 11 CURVE SMOOTH",
"169 11 OFFCURVE",
"160 27 OFFCURVE",
"155 56 CURVE SMOOTH",
"150 79 LINE SMOOTH",
"142 118 OFFCURVE",
"122 138 OFFCURVE",
"89 138 CURVE SMOOTH",
"54 138 OFFCURVE",
"31 111 OFFCURVE",
"31 79 CURVE SMOOTH",
"31 20 OFFCURVE",
"86 -14 OFFCURVE",
"169 -14 CURVE SMOOTH"
);
}
);
width = 401.36234;
},
{
anchors = (
{
name = aboveLC;
position = "{280, 513}";
},
{
name = baseLC;
position = "{190, 0}";
},
{
name = belowLC;
position = "{154, -22}";
}
);
layerId = "04BF5C93-05E4-4DB8-B59C-EE59F3489DF8";
paths = (
{
closed = 1;
nodes = (
"298 -14 OFFCURVE",
"372 52 OFFCURVE",
"372 134 CURVE SMOOTH",
"372 193 OFFCURVE",
"347 228 OFFCURVE",
"287 272 CURVE SMOOTH",
"231 315 OFFCURVE",
"204 349 OFFCURVE",
"204 396 CURVE SMOOTH",
"204 444 OFFCURVE",
"232 468 OFFCURVE",
"257 468 CURVE SMOOTH",
"257 468 OFFCURVE",
"257 468 OFFCURVE",
"257 468 CURVE SMOOTH",
"276 468 OFFCURVE",
"285 459 OFFCURVE",
"292 434 CURVE SMOOTH",
"299 410 LINE SMOOTH",
"311 372 OFFCURVE",
"333 354 OFFCURVE",
"362 354 CURVE SMOOTH",
"395 354 OFFCURVE",
"414 375 OFFCURVE",
"414 404 CURVE SMOOTH",
"414 456 OFFCURVE",
"362 495 OFFCURVE",
"276 495 CURVE SMOOTH",
"166 495 OFFCURVE",
"98 427 OFFCURVE",
"98 345 CURVE SMOOTH",
"98 281 OFFCURVE",
"134 240 OFFCURVE",
"188 197 CURVE SMOOTH",
"242 155 OFFCURVE",
"262 125 OFFCURVE",
"262 89 CURVE SMOOTH",
"262 40 OFFCURVE",
"231 11 OFFCURVE",
"197 11 CURVE SMOOTH",
"197 11 OFFCURVE",
"197 11 OFFCURVE",
"197 11 CURVE SMOOTH",
"169 11 OFFCURVE",
"160 27 OFFCURVE",
"155 56 CURVE SMOOTH",
"150 79 LINE SMOOTH",
"142 118 OFFCURVE",
"122 138 OFFCURVE",
"89 138 CURVE SMOOTH",
"54 138 OFFCURVE",
"31 111 OFFCURVE",
"31 79 CURVE SMOOTH",
"31 20 OFFCURVE",
"86 -14 OFFCURVE",
"169 -14 CURVE SMOOTH"
);
}
);
width = 401.36234;
}
);
leftKerningGroup = LAT_s;
rightKerningGroup = LAT_s;
unicode = 0073;
},
{
color = 4;
glyphname = germandbls;
lastChange = "2019-06-06 17:04:15 +0000";
layers = (
{
associatedMasterId = "04BF5C93-05E4-4DB8-B59C-EE59F3489DF8";
layerId = "70023048-75D4-4F59-8BF9-49EEC6A33CD1";
paths = (
{
closed = 1;
nodes = (
"5 -241 OFFCURVE",
"51 -223 OFFCURVE",
"95 -180 CURVE SMOOTH",
"145 -130 OFFCURVE",
"173 -57 OFFCURVE",
"192 43 CURVE SMOOTH",
"219 183 OFFCURVE",
"240 336 OFFCURVE",
"264 489 CURVE SMOOTH",
"286 621 OFFCURVE",
"332 686 OFFCURVE",
"410 686 CURVE SMOOTH",
"449 686 OFFCURVE",
"477 658 OFFCURVE",
"477 609 CURVE SMOOTH",
"477 565 OFFCURVE",
"465 521 OFFCURVE",
"415 479 CURVE SMOOTH",
"353 429 OFFCURVE",
"307 390 OFFCURVE",
"307 331 CURVE SMOOTH",
"307 275 OFFCURVE",
"335 235 OFFCURVE",
"387 196 CURVE SMOOTH",
"440 157 OFFCURVE",
"456 128 OFFCURVE",
"456 87 CURVE SMOOTH",
"456 43 OFFCURVE",
"428 11 OFFCURVE",
"392 11 CURVE SMOOTH",
"372 11 OFFCURVE",
"360 19 OFFCURVE",
"354 45 CURVE SMOOTH",
"348 69 LINE SMOOTH",
"340 107 OFFCURVE",
"320 123 OFFCURVE",
"292 123 CURVE SMOOTH",
"264 123 OFFCURVE",
"240 103 OFFCURVE",
"240 70 CURVE SMOOTH",
"240 13 OFFCURVE",
"298 -14 OFFCURVE",
"380 -14 CURVE SMOOTH",
"485 -14 OFFCURVE",
"557 49 OFFCURVE",
"557 130 CURVE SMOOTH",
"557 194 OFFCURVE",
"535 230 OFFCURVE",
"477 275 CURVE SMOOTH",
"421 314 OFFCURVE",
"392 341 OFFCURVE",
"392 381 CURVE SMOOTH",
"392 416 OFFCURVE",
"413 440 OFFCURVE",
"454 470 CURVE SMOOTH",
"520 518 OFFCURVE",
"580 549 OFFCURVE",
"580 609 CURVE SMOOTH",
"580 666 OFFCURVE",
"517 710 OFFCURVE",
"414 710 CURVE SMOOTH",
"283 710 OFFCURVE",
"171 638 OFFCURVE",
"142 453 CURVE SMOOTH",
"120 312 OFFCURVE",
"102 179 OFFCURVE",
"79 43 CURVE SMOOTH",
"65 -38 OFFCURVE",
"51 -99 OFFCURVE",
"32 -145 CURVE SMOOTH",
"24 -166 OFFCURVE",
"15 -186 OFFCURVE",
"8 -198 CURVE SMOOTH",
"2 -209 OFFCURVE",
"-10 -207 OFFCURVE",
"-17 -196 CURVE SMOOTH",
"-26 -169 LINE SMOOTH",
"-46 -135 OFFCURVE",
"-71 -117 OFFCURVE",
"-101 -117 CURVE SMOOTH",
"-133 -117 OFFCURVE",
"-157 -140 OFFCURVE",
"-157 -173 CURVE SMOOTH",
"-157 -215 OFFCURVE",
"-115 -241 OFFCURVE",
"-46 -241 CURVE SMOOTH"
);
}
);
width = 559.3212;
},
{
layerId = "04BF5C93-05E4-4DB8-B59C-EE59F3489DF8";
paths = (
{
closed = 1;
nodes = (
"5 -241 OFFCURVE",
"51 -223 OFFCURVE",
"95 -180 CURVE SMOOTH",
"145 -130 OFFCURVE",
"173 -57 OFFCURVE",
"192 43 CURVE SMOOTH",
"219 183 OFFCURVE",
"240 336 OFFCURVE",
"264 489 CURVE SMOOTH",
"286 621 OFFCURVE",
"332 686 OFFCURVE",
"410 686 CURVE SMOOTH",
"449 686 OFFCURVE",
"477 658 OFFCURVE",
"477 609 CURVE SMOOTH",
"477 565 OFFCURVE",
"465 521 OFFCURVE",
"415 479 CURVE SMOOTH",
"353 429 OFFCURVE",
"307 390 OFFCURVE",
"307 331 CURVE SMOOTH",
"307 275 OFFCURVE",
"335 235 OFFCURVE",
"387 196 CURVE SMOOTH",
"440 157 OFFCURVE",
"456 128 OFFCURVE",
"456 87 CURVE SMOOTH",
"456 43 OFFCURVE",
"428 11 OFFCURVE",
"392 11 CURVE SMOOTH",
"372 11 OFFCURVE",
"360 19 OFFCURVE",
"354 45 CURVE SMOOTH",
"348 69 LINE SMOOTH",
"340 107 OFFCURVE",
"320 123 OFFCURVE",
"292 123 CURVE SMOOTH",
"264 123 OFFCURVE",
"240 103 OFFCURVE",
"240 70 CURVE SMOOTH",
"240 13 OFFCURVE",
"298 -14 OFFCURVE",
"380 -14 CURVE SMOOTH",
"485 -14 OFFCURVE",
"557 49 OFFCURVE",
"557 130 CURVE SMOOTH",
"557 194 OFFCURVE",
"535 230 OFFCURVE",
"477 275 CURVE SMOOTH",
"421 314 OFFCURVE",
"392 341 OFFCURVE",
"392 381 CURVE SMOOTH",
"392 416 OFFCURVE",
"413 440 OFFCURVE",
"454 470 CURVE SMOOTH",
"520 518 OFFCURVE",
"580 549 OFFCURVE",
"580 609 CURVE SMOOTH",
"580 666 OFFCURVE",
"517 710 OFFCURVE",
"414 710 CURVE SMOOTH",
"283 710 OFFCURVE",
"171 638 OFFCURVE",
"142 453 CURVE SMOOTH",
"120 312 OFFCURVE",
"102 179 OFFCURVE",
"79 43 CURVE SMOOTH",
"65 -38 OFFCURVE",
"51 -99 OFFCURVE",
"32 -145 CURVE SMOOTH",
"24 -166 OFFCURVE",
"15 -186 OFFCURVE",
"8 -198 CURVE SMOOTH",
"2 -209 OFFCURVE",
"-10 -207 OFFCURVE",
"-17 -196 CURVE SMOOTH",
"-26 -169 LINE SMOOTH",
"-46 -135 OFFCURVE",
"-71 -117 OFFCURVE",
"-101 -117 CURVE SMOOTH",
"-133 -117 OFFCURVE",
"-157 -140 OFFCURVE",
"-157 -173 CURVE SMOOTH",
"-157 -215 OFFCURVE",
"-115 -241 OFFCURVE",
"-46 -241 CURVE SMOOTH"
);
}
);
width = 559.3212;
}
);
leftKerningGroup = LAT_germandbls;
unicode = 00DF;
},
{
color = 4;
glyphname = t;
lastChange = "2019-06-06 17:04:15 +0000";
layers = (
{
anchors = (
{
name = aboveLC;
position = "{267, 635}";
},
{
name = baseLC;
position = "{142, 0}";
},
{
name = belowLC;
position = "{140, -22}";
}
);
associatedMasterId = "04BF5C93-05E4-4DB8-B59C-EE59F3489DF8";
layerId = "70023048-75D4-4F59-8BF9-49EEC6A33CD1";
paths = (
{
closed = 1;
nodes = (
"211 -14 OFFCURVE",
"264 35 OFFCURVE",
"297 84 CURVE",
"281 97 LINE",
"252 68 OFFCURVE",
"233 54 OFFCURVE",
"217 54 CURVE SMOOTH",
"206 54 OFFCURVE",
"197 62 OFFCURVE",
"197 76 CURVE SMOOTH",
"197 88 OFFCURVE",
"200 106 OFFCURVE",
"205 130 CURVE SMOOTH",
"271 450 LINE",
"383 448 LINE",
"389 480 LINE",
"278 480 LINE",
"306 617 LINE",
"275 617 LINE",
"197 523 LINE SMOOTH",
"174 494 OFFCURVE",
"150 480 OFFCURVE",
"113 475 CURVE SMOOTH",
"73 471 LINE",
"69 450 LINE",
"154 450 LINE",
"87 140 LINE SMOOTH",
"79 104 OFFCURVE",
"75 73 OFFCURVE",
"75 48 CURVE SMOOTH",
"75 7 OFFCURVE",
"104 -14 OFFCURVE",
"145 -14 CURVE SMOOTH"
);
}
);
width = 340.46361;
},
{
anchors = (
{
name = aboveLC;
position = "{267, 635}";
},
{
name = baseLC;
position = "{142, 0}";
},
{
name = belowLC;
position = "{140, -22}";
}
);
layerId = "04BF5C93-05E4-4DB8-B59C-EE59F3489DF8";
paths = (
{
closed = 1;
nodes = (
"211 -14 OFFCURVE",
"264 35 OFFCURVE",
"297 84 CURVE",
"281 97 LINE",
"252 68 OFFCURVE",
"233 54 OFFCURVE",
"217 54 CURVE SMOOTH",
"206 54 OFFCURVE",
"197 62 OFFCURVE",
"197 76 CURVE SMOOTH",
"197 88 OFFCURVE",
"200 106 OFFCURVE",
"205 130 CURVE SMOOTH",
"271 450 LINE",
"383 448 LINE",
"389 480 LINE",
"278 480 LINE",
"306 617 LINE",
"275 617 LINE",
"197 523 LINE SMOOTH",
"174 494 OFFCURVE",
"150 480 OFFCURVE",
"113 475 CURVE SMOOTH",
"73 471 LINE",
"69 450 LINE",
"154 450 LINE",
"87 140 LINE SMOOTH",
"79 104 OFFCURVE",
"75 73 OFFCURVE",
"75 48 CURVE SMOOTH",
"75 7 OFFCURVE",
"104 -14 OFFCURVE",
"145 -14 CURVE SMOOTH"
);
}
);
width = 340.46361;
}
);
leftKerningGroup = LAT_t;
rightKerningGroup = LAT_t;
unicode = 0074;
},
{
glyphname = tcaron;
lastChange = "2019-06-06 17:04:15 +0000";
layers = (
{
associatedMasterId = "04BF5C93-05E4-4DB8-B59C-EE59F3489DF8";
components = (
{
alignment = -1;
name = t;
}
);
layerId = "70023048-75D4-4F59-8BF9-49EEC6A33CD1";
paths = (
{
closed = 1;
nodes = (
"429 755 OFFCURVE",
"417 753 OFFCURVE",
"399 745 CURVE",
"353 522 LINE",
"395 518 LINE",
"437 592 LINE SMOOTH",
"462 638 OFFCURVE",
"489 687 OFFCURVE",
"489 721 CURVE SMOOTH",
"489 737 OFFCURVE",
"479 755 OFFCURVE",
"447 755 CURVE SMOOTH"
);
}
);
width = 342.9557;
},
{
components = (
{
alignment = -1;
name = t;
}
);
layerId = "04BF5C93-05E4-4DB8-B59C-EE59F3489DF8";
paths = (
{
closed = 1;
nodes = (
"429 755 OFFCURVE",
"417 753 OFFCURVE",
"399 745 CURVE",
"353 522 LINE",
"395 518 LINE",
"437 592 LINE SMOOTH",
"462 638 OFFCURVE",
"489 687 OFFCURVE",
"489 721 CURVE SMOOTH",
"489 737 OFFCURVE",
"479 755 OFFCURVE",
"447 755 CURVE SMOOTH"
);
}
);
width = 342.9557;
}
);
leftKerningGroup = LAT_t;
rightKerningGroup = LAT_dcaron;
unicode = 0165;
},
{
color = 4;
glyphname = u;
lastChange = "2019-06-06 17:04:15 +0000";
layers = (
{
anchors = (
{
name = aboveLC;
position = "{334, 513}";
},
{
name = belowLC;
position = "{262, -22}";
},
{
name = hornLC;
position = "{497, 469}";
},
{
name = ogonek;
position = "{441, 0}";
}
);
associatedMasterId = "04BF5C93-05E4-4DB8-B59C-EE59F3489DF8";
layerId = "70023048-75D4-4F59-8BF9-49EEC6A33CD1";
paths = (
{
closed = 1;
nodes = (
"206 -14 OFFCURVE",
"285 43 OFFCURVE",
"369 138 CURVE",
"366 161 LINE",
"296 92 OFFCURVE",
"253 63 OFFCURVE",
"215 63 CURVE SMOOTH",
"194 63 OFFCURVE",
"179 75 OFFCURVE",
"179 104 CURVE SMOOTH",
"179 126 OFFCURVE",
"185 153 OFFCURVE",
"193 186 CURVE SMOOTH",
"262 486 LINE",
"250 496 LINE",
"70 444 LINE",
"68 426 LINE",
"85 419 LINE SMOOTH",
"110 409 OFFCURVE",
"120 390 OFFCURVE",
"114 363 CURVE SMOOTH",
"71 172 LINE SMOOTH",
"63 136 OFFCURVE",
"55 97 OFFCURVE",
"55 66 CURVE SMOOTH",
"55 11 OFFCURVE",
"92 -14 OFFCURVE",
"136 -14 CURVE SMOOTH"
);
},
{
closed = 1;
nodes = (
"461 -14 OFFCURVE",
"512 34 OFFCURVE",
"545 81 CURVE",
"530 96 LINE",
"501 68 OFFCURVE",
"483 54 OFFCURVE",
"465 54 CURVE SMOOTH",
"455 54 OFFCURVE",
"446 61 OFFCURVE",
"446 75 CURVE SMOOTH",
"446 87 OFFCURVE",
"450 106 OFFCURVE",
"454 129 CURVE SMOOTH",
"532 486 LINE",
"519 496 LINE",
"402 461 LINE",
"392 406 OFFCURVE",
"382 352 OFFCURVE",
"371 298 CURVE SMOOTH",
"337 137 LINE SMOOTH",
"330 105 OFFCURVE",
"327 86 OFFCURVE",
"327 64 CURVE SMOOTH",
"327 13 OFFCURVE",
"358 -14 OFFCURVE",
"397 -14 CURVE SMOOTH"
);
}
);
width = 548.34335;
},
{
anchors = (
{
name = aboveLC;
position = "{334, 513}";
},
{
name = belowLC;
position = "{262, -22}";
},
{
name = hornLC;
position = "{497, 469}";
},
{
name = ogonek;
position = "{441, 0}";
}
);
layerId = "04BF5C93-05E4-4DB8-B59C-EE59F3489DF8";
paths = (
{
closed = 1;
nodes = (
"206 -14 OFFCURVE",
"285 43 OFFCURVE",
"369 138 CURVE",
"366 161 LINE",
"296 92 OFFCURVE",
"253 63 OFFCURVE",
"215 63 CURVE SMOOTH",
"194 63 OFFCURVE",
"179 75 OFFCURVE",
"179 104 CURVE SMOOTH",
"179 126 OFFCURVE",
"185 153 OFFCURVE",
"193 186 CURVE SMOOTH",
"262 486 LINE",
"250 496 LINE",
"70 444 LINE",
"68 426 LINE",
"85 419 LINE SMOOTH",
"110 409 OFFCURVE",
"120 390 OFFCURVE",
"114 363 CURVE SMOOTH",
"71 172 LINE SMOOTH",
"63 136 OFFCURVE",
"55 97 OFFCURVE",
"55 66 CURVE SMOOTH",
"55 11 OFFCURVE",
"92 -14 OFFCURVE",
"136 -14 CURVE SMOOTH"
);
},
{
closed = 1;
nodes = (
"461 -14 OFFCURVE",
"512 34 OFFCURVE",
"545 81 CURVE",
"530 96 LINE",
"501 68 OFFCURVE",
"483 54 OFFCURVE",
"465 54 CURVE SMOOTH",
"455 54 OFFCURVE",
"446 61 OFFCURVE",
"446 75 CURVE SMOOTH",
"446 87 OFFCURVE",
"450 106 OFFCURVE",
"454 129 CURVE SMOOTH",
"532 486 LINE",
"519 496 LINE",
"402 461 LINE",
"392 406 OFFCURVE",
"382 352 OFFCURVE",
"371 298 CURVE SMOOTH",
"337 137 LINE SMOOTH",
"330 105 OFFCURVE",
"327 86 OFFCURVE",
"327 64 CURVE SMOOTH",
"327 13 OFFCURVE",
"358 -14 OFFCURVE",
"397 -14 CURVE SMOOTH"
);
}
);
width = 548.34335;
}
);
leftKerningGroup = LAT_u;
rightKerningGroup = LAT_u;
unicode = 0075;
},
{
color = 4;
glyphname = v;
lastChange = "2019-06-06 17:04:15 +0000";
layers = (
{
anchors = (
{
name = aboveLC;
position = "{330, 508}";
},
{
name = belowLC;
position = "{213, -22}";
}
);
associatedMasterId = "04BF5C93-05E4-4DB8-B59C-EE59F3489DF8";
layerId = "70023048-75D4-4F59-8BF9-49EEC6A33CD1";
paths = (
{
closed = 1;
nodes = (
"245 -2 LINE",
"347 101 OFFCURVE",
"432 215 OFFCURVE",
"486 308 CURVE SMOOTH",
"524 373 OFFCURVE",
"533 405 OFFCURVE",
"533 430 CURVE SMOOTH",
"533 468 OFFCURVE",
"516 497 OFFCURVE",
"472 497 CURVE SMOOTH",
"427 497 OFFCURVE",
"399 453 OFFCURVE",
"416 402 CURVE SMOOTH",
"431 363 LINE SMOOTH",
"443 327 OFFCURVE",
"441 299 OFFCURVE",
"421 266 CURVE SMOOTH",
"377 196 OFFCURVE",
"335 141 OFFCURVE",
"284 80 CURVE",
"276 200 OFFCURVE",
"268 309 OFFCURVE",
"259 404 CURVE SMOOTH",
"254 466 OFFCURVE",
"230 495 OFFCURVE",
"182 495 CURVE SMOOTH",
"138 495 OFFCURVE",
"95 463 OFFCURVE",
"52 401 CURVE",
"66 385 LINE",
"85 407 OFFCURVE",
"102 420 OFFCURVE",
"114 420 CURVE SMOOTH",
"127 420 OFFCURVE",
"136 415 OFFCURVE",
"140 382 CURVE SMOOTH",
"152 264 OFFCURVE",
"165 144 OFFCURVE",
"177.003 -1.003 CURVE",
"186 -8 LINE"
);
}
);
width = 508.40032;
},
{
anchors = (
{
name = aboveLC;
position = "{330, 508}";
},
{
name = belowLC;
position = "{213, -22}";
}
);
layerId = "04BF5C93-05E4-4DB8-B59C-EE59F3489DF8";
paths = (
{
closed = 1;
nodes = (
"245 -2 LINE",
"347 101 OFFCURVE",
"432 215 OFFCURVE",
"486 308 CURVE SMOOTH",
"524 373 OFFCURVE",
"533 405 OFFCURVE",
"533 430 CURVE SMOOTH",
"533 468 OFFCURVE",
"516 497 OFFCURVE",
"472 497 CURVE SMOOTH",
"427 497 OFFCURVE",
"399 453 OFFCURVE",
"416 402 CURVE SMOOTH",
"431 363 LINE SMOOTH",
"443 327 OFFCURVE",
"441 299 OFFCURVE",
"421 266 CURVE SMOOTH",
"377 196 OFFCURVE",
"335 141 OFFCURVE",
"284 80 CURVE",
"276 200 OFFCURVE",
"268 309 OFFCURVE",
"259 404 CURVE SMOOTH",
"254 466 OFFCURVE",
"230 495 OFFCURVE",
"182 495 CURVE SMOOTH",
"138 495 OFFCURVE",
"95 463 OFFCURVE",
"52 401 CURVE",
"66 385 LINE",
"85 407 OFFCURVE",
"102 420 OFFCURVE",
"114 420 CURVE SMOOTH",
"127 420 OFFCURVE",
"136 415 OFFCURVE",
"140 382 CURVE SMOOTH",
"152 264 OFFCURVE",
"165 144 OFFCURVE",
"177.003 -1.003 CURVE",
"186 -8 LINE"
);
}
);
width = 508.40032;
}
);
leftKerningGroup = LAT_v;
rightKerningGroup = LAT_v;
unicode = 0076;
},
{
color = 4;
glyphname = w;
lastChange = "2019-06-06 17:04:15 +0000";
layers = (
{
anchors = (
{
name = aboveLC;
position = "{489, 513}";
},
{
name = belowLC;
position = "{352, -22}";
}
);
associatedMasterId = "04BF5C93-05E4-4DB8-B59C-EE59F3489DF8";
layerId = "70023048-75D4-4F59-8BF9-49EEC6A33CD1";
paths = (
{
closed = 1;
nodes = (
"246 -2 LINE",
"308 91 OFFCURVE",
"371 209 OFFCURVE",
"420 310 CURVE",
"432 196 OFFCURVE",
"441 102 OFFCURVE",
"450 -1 CURVE",
"460 -8 LINE",
"516 -2 LINE",
"616 103 OFFCURVE",
"698 214 OFFCURVE",
"748 303 CURVE SMOOTH",
"785 368 OFFCURVE",
"796 398 OFFCURVE",
"796 428 CURVE SMOOTH",
"796 470 OFFCURVE",
"776 497 OFFCURVE",
"735 497 CURVE SMOOTH",
"693 497 OFFCURVE",
"662 454 OFFCURVE",
"682 400 CURVE SMOOTH",
"696 363 LINE SMOOTH",
"708 329 OFFCURVE",
"701 298 OFFCURVE",
"682 265 CURVE SMOOTH",
"643 200 OFFCURVE",
"609 154 OFFCURVE",
"559 90 CURVE",
"549 193 OFFCURVE",
"535 406 OFFCURVE",
"525 476 CURVE",
"464 476 LINE",
"401 345 OFFCURVE",
"340 223 OFFCURVE",
"278 113 CURVE",
"272 215 OFFCURVE",
"265 326 OFFCURVE",
"258 410 CURVE SMOOTH",
"253 468 OFFCURVE",
"229 495 OFFCURVE",
"180 495 CURVE SMOOTH",
"136 495 OFFCURVE",
"94 462 OFFCURVE",
"49 397 CURVE",
"64 382 LINE",
"83 401 OFFCURVE",
"99 412 OFFCURVE",
"112 412 CURVE SMOOTH",
"125 412 OFFCURVE",
"135 406 OFFCURVE",
"138 376 CURVE SMOOTH",
"151 263 OFFCURVE",
"164 144 OFFCURVE",
"176 -1 CURVE",
"186 -8 LINE"
);
}
);
width = 774.34968;
},
{
anchors = (
{
name = aboveLC;
position = "{489, 513}";
},
{
name = belowLC;
position = "{352, -22}";
}
);
layerId = "04BF5C93-05E4-4DB8-B59C-EE59F3489DF8";
paths = (
{
closed = 1;
nodes = (
"246 -2 LINE",
"308 91 OFFCURVE",
"371 209 OFFCURVE",
"420 310 CURVE",
"432 196 OFFCURVE",
"441 102 OFFCURVE",
"450 -1 CURVE",
"460 -8 LINE",
"516 -2 LINE",
"616 103 OFFCURVE",
"698 214 OFFCURVE",
"748 303 CURVE SMOOTH",
"785 368 OFFCURVE",
"796 398 OFFCURVE",
"796 428 CURVE SMOOTH",
"796 470 OFFCURVE",
"776 497 OFFCURVE",
"735 497 CURVE SMOOTH",
"693 497 OFFCURVE",
"662 454 OFFCURVE",
"682 400 CURVE SMOOTH",
"696 363 LINE SMOOTH",
"708 329 OFFCURVE",
"701 298 OFFCURVE",
"682 265 CURVE SMOOTH",
"643 200 OFFCURVE",
"609 154 OFFCURVE",
"559 90 CURVE",
"549 193 OFFCURVE",
"535 406 OFFCURVE",
"525 476 CURVE",
"464 476 LINE",
"401 345 OFFCURVE",
"340 223 OFFCURVE",
"278 113 CURVE",
"272 215 OFFCURVE",
"265 326 OFFCURVE",
"258 410 CURVE SMOOTH",
"253 468 OFFCURVE",
"229 495 OFFCURVE",
"180 495 CURVE SMOOTH",
"136 495 OFFCURVE",
"94 462 OFFCURVE",
"49 397 CURVE",
"64 382 LINE",
"83 401 OFFCURVE",
"99 412 OFFCURVE",
"112 412 CURVE SMOOTH",
"125 412 OFFCURVE",
"135 406 OFFCURVE",
"138 376 CURVE SMOOTH",
"151 263 OFFCURVE",
"164 144 OFFCURVE",
"176 -1 CURVE",
"186 -8 LINE"
);
}
);
width = 774.34968;
}
);
leftKerningGroup = LAT_v;
rightKerningGroup = LAT_v;
unicode = 0077;
},
{
color = 4;
glyphname = x;
lastChange = "2019-06-06 17:04:15 +0000";
layers = (
{
anchors = (
{
name = aboveLC;
position = "{366, 513}";
},
{
name = belowLC;
position = "{239, -22}";
}
);
associatedMasterId = "04BF5C93-05E4-4DB8-B59C-EE59F3489DF8";
layerId = "70023048-75D4-4F59-8BF9-49EEC6A33CD1";
paths = (
{
closed = 1;
nodes = (
"444 -16 OFFCURVE",
"491 26 OFFCURVE",
"527 82 CURVE",
"512 97 LINE",
"489 73 OFFCURVE",
"469 60 OFFCURVE",
"451 60 CURVE SMOOTH",
"429 60 OFFCURVE",
"418 72 OFFCURVE",
"403 120 CURVE SMOOTH",
"310 404 LINE SMOOTH",
"290 466 OFFCURVE",
"270 495 OFFCURVE",
"220 495 CURVE SMOOTH",
"176 495 OFFCURVE",
"133 464 OFFCURVE",
"89 400 CURVE",
"104 384 LINE",
"125 410 OFFCURVE",
"145 416 OFFCURVE",
"159 416 CURVE SMOOTH",
"181 416 OFFCURVE",
"193 400 OFFCURVE",
"207 354 CURVE SMOOTH",
"302 62 LINE SMOOTH",
"322 2 OFFCURVE",
"351 -16 OFFCURVE",
"392 -16 CURVE SMOOTH"
);
},
{
closed = 1;
nodes = (
"120 -14 OFFCURVE",
"148 1 OFFCURVE",
"176 39 CURVE SMOOTH",
"211 84 OFFCURVE",
"256 151 OFFCURVE",
"309 240 CURVE",
"302 266 LINE",
"255 196 OFFCURVE",
"211 132 OFFCURVE",
"169 78 CURVE SMOOTH",
"150 53 OFFCURVE",
"133 55 OFFCURVE",
"116 78 CURVE SMOOTH",
"101 97 OFFCURVE",
"84 107 OFFCURVE",
"63 107 CURVE SMOOTH",
"31 107 OFFCURVE",
"6 84 OFFCURVE",
"6 51 CURVE SMOOTH",
"6 10 OFFCURVE",
"41 -14 OFFCURVE",
"80 -14 CURVE SMOOTH"
);
},
{
closed = 1;
nodes = (
"361 293 OFFCURVE",
"414 370 OFFCURVE",
"443 405 CURVE SMOOTH",
"462 427 OFFCURVE",
"472 423 OFFCURVE",
"487 405 CURVE SMOOTH",
"501 387 OFFCURVE",
"519 379 OFFCURVE",
"540 379 CURVE SMOOTH",
"568 379 OFFCURVE",
"593 401 OFFCURVE",
"593 436 CURVE SMOOTH",
"593 475 OFFCURVE",
"563 495 OFFCURVE",
"530 495 CURVE SMOOTH",
"497 495 OFFCURVE",
"464 482 OFFCURVE",
"426 434 CURVE SMOOTH",
"406 410 OFFCURVE",
"356 337 OFFCURVE",
"304 246 CURVE",
"311 223 LINE"
);
}
);
width = 559.36551;
},
{
anchors = (
{
name = aboveLC;
position = "{366, 513}";
},
{
name = belowLC;
position = "{239, -22}";
}
);
layerId = "04BF5C93-05E4-4DB8-B59C-EE59F3489DF8";
paths = (
{
closed = 1;
nodes = (
"444 -16 OFFCURVE",
"491 26 OFFCURVE",
"527 82 CURVE",
"512 97 LINE",
"489 73 OFFCURVE",
"469 60 OFFCURVE",
"451 60 CURVE SMOOTH",
"429 60 OFFCURVE",
"418 72 OFFCURVE",
"403 120 CURVE SMOOTH",
"310 404 LINE SMOOTH",
"290 466 OFFCURVE",
"270 495 OFFCURVE",
"220 495 CURVE SMOOTH",
"176 495 OFFCURVE",
"133 464 OFFCURVE",
"89 400 CURVE",
"104 384 LINE",
"125 410 OFFCURVE",
"145 416 OFFCURVE",
"159 416 CURVE SMOOTH",
"181 416 OFFCURVE",
"193 400 OFFCURVE",
"207 354 CURVE SMOOTH",
"302 62 LINE SMOOTH",
"322 2 OFFCURVE",
"351 -16 OFFCURVE",
"392 -16 CURVE SMOOTH"
);
},
{
closed = 1;
nodes = (
"120 -14 OFFCURVE",
"148 1 OFFCURVE",
"176 39 CURVE SMOOTH",
"211 84 OFFCURVE",
"256 151 OFFCURVE",
"309 240 CURVE",
"302 266 LINE",
"255 196 OFFCURVE",
"211 132 OFFCURVE",
"169 78 CURVE SMOOTH",
"150 53 OFFCURVE",
"133 55 OFFCURVE",
"116 78 CURVE SMOOTH",
"101 97 OFFCURVE",
"84 107 OFFCURVE",
"63 107 CURVE SMOOTH",
"31 107 OFFCURVE",
"6 84 OFFCURVE",
"6 51 CURVE SMOOTH",
"6 10 OFFCURVE",
"41 -14 OFFCURVE",
"80 -14 CURVE SMOOTH"
);
},
{
closed = 1;
nodes = (
"361 293 OFFCURVE",
"414 370 OFFCURVE",
"443 405 CURVE SMOOTH",
"462 427 OFFCURVE",
"472 423 OFFCURVE",
"487 405 CURVE SMOOTH",
"501 387 OFFCURVE",
"519 379 OFFCURVE",
"540 379 CURVE SMOOTH",
"568 379 OFFCURVE",
"593 401 OFFCURVE",
"593 436 CURVE SMOOTH",
"593 475 OFFCURVE",
"563 495 OFFCURVE",
"530 495 CURVE SMOOTH",
"497 495 OFFCURVE",
"464 482 OFFCURVE",
"426 434 CURVE SMOOTH",
"406 410 OFFCURVE",
"356 337 OFFCURVE",
"304 246 CURVE",
"311 223 LINE"
);
}
);
width = 559.36551;
}
);
unicode = 0078;
},
{
color = 4;
glyphname = y;
lastChange = "2019-06-06 17:04:15 +0000";
layers = (
{
anchors = (
{
name = aboveLC;
position = "{340, 508}";
},
{
name = belowLC;
position = "{31, -245}";
}
);
associatedMasterId = "04BF5C93-05E4-4DB8-B59C-EE59F3489DF8";
layerId = "70023048-75D4-4F59-8BF9-49EEC6A33CD1";
paths = (
{
closed = 1;
nodes = (
"73 -231 OFFCURVE",
"128 -193 OFFCURVE",
"184 -134 CURVE SMOOTH",
"233 -82 OFFCURVE",
"264 -39 OFFCURVE",
"294 2 CURVE SMOOTH",
"350 81 OFFCURVE",
"389 150 OFFCURVE",
"427 210 CURVE SMOOTH",
"462 267 OFFCURVE",
"485 311 OFFCURVE",
"507 351 CURVE SMOOTH",
"530 393 OFFCURVE",
"542 417 OFFCURVE",
"542 449 CURVE SMOOTH",
"542 479 OFFCURVE",
"516 498 OFFCURVE",
"488 498 CURVE SMOOTH",
"446 498 OFFCURVE",
"423 472 OFFCURVE",
"402 382 CURVE SMOOTH",
"369 244 OFFCURVE",
"337 140 OFFCURVE",
"284 23 CURVE",
"254 -15 OFFCURVE",
"225 -51 OFFCURVE",
"189 -87 CURVE SMOOTH",
"170 -106 OFFCURVE",
"153 -122 OFFCURVE",
"135 -136 CURVE SMOOTH",
"107 -157 OFFCURVE",
"83 -150 OFFCURVE",
"56 -127 CURVE SMOOTH",
"36 -111 OFFCURVE",
"18 -105 OFFCURVE",
"-2 -105 CURVE SMOOTH",
"-38 -105 OFFCURVE",
"-65 -130 OFFCURVE",
"-65 -164 CURVE SMOOTH",
"-65 -206 OFFCURVE",
"-30 -231 OFFCURVE",
"16 -231 CURVE SMOOTH"
);
},
{
closed = 1;
nodes = (
"292 22 LINE",
"282 147 OFFCURVE",
"271 257 OFFCURVE",
"257 390 CURVE SMOOTH",
"250 463 OFFCURVE",
"231 495 OFFCURVE",
"182 495 CURVE SMOOTH",
"135 495 OFFCURVE",
"88 459 OFFCURVE",
"44 387 CURVE",
"59 371 LINE",
"80 401 OFFCURVE",
"96 412 OFFCURVE",
"109 412 CURVE SMOOTH",
"125 412 OFFCURVE",
"133 402 OFFCURVE",
"143 322 CURVE SMOOTH",
"165 177 OFFCURVE",
"185 56 OFFCURVE",
"203 -88 CURVE"
);
}
);
width = 515.86709;
},
{
anchors = (
{
name = aboveLC;
position = "{340, 508}";
},
{
name = belowLC;
position = "{31, -245}";
}
);
layerId = "04BF5C93-05E4-4DB8-B59C-EE59F3489DF8";
paths = (
{
closed = 1;
nodes = (
"73 -231 OFFCURVE",
"128 -193 OFFCURVE",
"184 -134 CURVE SMOOTH",
"233 -82 OFFCURVE",
"264 -39 OFFCURVE",
"294 2 CURVE SMOOTH",
"350 81 OFFCURVE",
"389 150 OFFCURVE",
"427 210 CURVE SMOOTH",
"462 267 OFFCURVE",
"485 311 OFFCURVE",
"507 351 CURVE SMOOTH",
"530 393 OFFCURVE",
"542 417 OFFCURVE",
"542 449 CURVE SMOOTH",
"542 479 OFFCURVE",
"516 498 OFFCURVE",
"488 498 CURVE SMOOTH",
"446 498 OFFCURVE",
"423 472 OFFCURVE",
"402 382 CURVE SMOOTH",
"369 244 OFFCURVE",
"337 140 OFFCURVE",
"284 23 CURVE",
"254 -15 OFFCURVE",
"225 -51 OFFCURVE",
"189 -87 CURVE SMOOTH",
"170 -106 OFFCURVE",
"153 -122 OFFCURVE",
"135 -136 CURVE SMOOTH",
"107 -157 OFFCURVE",
"83 -150 OFFCURVE",
"56 -127 CURVE SMOOTH",
"36 -111 OFFCURVE",
"18 -105 OFFCURVE",
"-2 -105 CURVE SMOOTH",
"-38 -105 OFFCURVE",
"-65 -130 OFFCURVE",
"-65 -164 CURVE SMOOTH",
"-65 -206 OFFCURVE",
"-30 -231 OFFCURVE",
"16 -231 CURVE SMOOTH"
);
},
{
closed = 1;
nodes = (
"292 22 LINE",
"282 147 OFFCURVE",
"271 257 OFFCURVE",
"257 390 CURVE SMOOTH",
"250 463 OFFCURVE",
"231 495 OFFCURVE",
"182 495 CURVE SMOOTH",
"135 495 OFFCURVE",
"88 459 OFFCURVE",
"44 387 CURVE",
"59 371 LINE",
"80 401 OFFCURVE",
"96 412 OFFCURVE",
"109 412 CURVE SMOOTH",
"125 412 OFFCURVE",
"133 402 OFFCURVE",
"143 322 CURVE SMOOTH",
"165 177 OFFCURVE",
"185 56 OFFCURVE",
"203 -88 CURVE"
);
}
);
width = 515.86709;
}
);
leftKerningGroup = LAT_y;
rightKerningGroup = LAT_v;
unicode = 0079;
},
{
color = 4;
glyphname = z;
lastChange = "2019-06-06 17:04:15 +0000";
layers = (
{
anchors = (
{
name = aboveLC;
position = "{313, 513}";
},
{
name = belowLC;
position = "{184, -22}";
}
);
associatedMasterId = "04BF5C93-05E4-4DB8-B59C-EE59F3489DF8";
layerId = "70023048-75D4-4F59-8BF9-49EEC6A33CD1";
paths = (
{
closed = 1;
nodes = (
"506 465 LINE",
"478 493 LINE",
"4 9 LINE",
"31 -17 LINE"
);
},
{
closed = 1;
nodes = (
"404 -26 OFFCURVE",
"482 57 OFFCURVE",
"482 157 CURVE SMOOTH",
"482 203 OFFCURVE",
"458 226 OFFCURVE",
"425 226 CURVE SMOOTH",
"393 226 OFFCURVE",
"368 202 OFFCURVE",
"368 170 CURVE SMOOTH",
"368 155 OFFCURVE",
"376 133 OFFCURVE",
"408 108 CURVE SMOOTH",
"420 96 OFFCURVE",
"419 79 OFFCURVE",
"404 73 CURVE SMOOTH",
"390 68 OFFCURVE",
"373 65 OFFCURVE",
"353 65 CURVE SMOOTH",
"281 65 OFFCURVE",
"210 102 OFFCURVE",
"164 156 CURVE",
"101 93 LINE",
"146 45 LINE SMOOTH",
"182 4 OFFCURVE",
"242 -26 OFFCURVE",
"297 -26 CURVE SMOOTH"
);
},
{
closed = 1;
nodes = (
"103 343 LINE SMOOTH",
"119 373 OFFCURVE",
"142 384 OFFCURVE",
"176 378 CURVE SMOOTH",
"248 366 OFFCURVE",
"310 354 OFFCURVE",
"368 343 CURVE",
"442 437 LINE",
"346 451 OFFCURVE",
"222 475 OFFCURVE",
"103 495 CURVE",
"72 330 LINE",
"95 327 LINE"
);
}
);
width = 486.89113;
},
{
anchors = (
{
name = aboveLC;
position = "{313, 513}";
},
{
name = belowLC;
position = "{184, -22}";
}
);
layerId = "04BF5C93-05E4-4DB8-B59C-EE59F3489DF8";
paths = (
{
closed = 1;
nodes = (
"506 465 LINE",
"478 493 LINE",
"4 9 LINE",
"31 -17 LINE"
);
},
{
closed = 1;
nodes = (
"404 -26 OFFCURVE",
"482 57 OFFCURVE",
"482 157 CURVE SMOOTH",
"482 203 OFFCURVE",
"458 226 OFFCURVE",
"425 226 CURVE SMOOTH",
"393 226 OFFCURVE",
"368 202 OFFCURVE",
"368 170 CURVE SMOOTH",
"368 155 OFFCURVE",
"376 133 OFFCURVE",
"408 108 CURVE SMOOTH",
"420 96 OFFCURVE",
"419 79 OFFCURVE",
"404 73 CURVE SMOOTH",
"390 68 OFFCURVE",
"373 65 OFFCURVE",
"353 65 CURVE SMOOTH",
"281 65 OFFCURVE",
"210 102 OFFCURVE",
"164 156 CURVE",
"101 93 LINE",
"146 45 LINE SMOOTH",
"182 4 OFFCURVE",
"242 -26 OFFCURVE",
"297 -26 CURVE SMOOTH"
);
},
{
closed = 1;
nodes = (
"103 343 LINE SMOOTH",
"119 373 OFFCURVE",
"142 384 OFFCURVE",
"176 378 CURVE SMOOTH",
"248 366 OFFCURVE",
"310 354 OFFCURVE",
"368 343 CURVE",
"442 437 LINE",
"346 451 OFFCURVE",
"222 475 OFFCURVE",
"103 495 CURVE",
"72 330 LINE",
"95 327 LINE"
);
}
);
width = 486.89113;
}
);
leftKerningGroup = LAT_z;
rightKerningGroup = LAT_z;
unicode = 007A;
},
{
color = 4;
export = 0;
glyphname = jdotless;
lastChange = "2019-06-06 17:04:15 +0000";
layers = (
{
anchors = (
{
name = aboveLC;
position = "{220, 513}";
}
);
associatedMasterId = "04BF5C93-05E4-4DB8-B59C-EE59F3489DF8";
layerId = "70023048-75D4-4F59-8BF9-49EEC6A33CD1";
paths = (
{
closed = 1;
nodes = (
"3 -235 OFFCURVE",
"54 -209 OFFCURVE",
"91 -168 CURVE SMOOTH",
"140 -120 OFFCURVE",
"172 -50 OFFCURVE",
"192 50 CURVE SMOOTH",
"278 486 LINE",
"267 496 LINE",
"90 444 LINE",
"88 426 LINE",
"101 421 LINE SMOOTH",
"128 410 OFFCURVE",
"139 391 OFFCURVE",
"134 362 CURVE SMOOTH",
"75 50 LINE SMOOTH",
"55 -61 OFFCURVE",
"36 -123 OFFCURVE",
"11 -163 CURVE",
"-8 -195 OFFCURVE",
"-33 -208 OFFCURVE",
"-65 -221 CURVE",
"-61 -240 LINE"
);
}
);
width = 281.4288;
},
{
anchors = (
{
name = aboveLC;
position = "{220, 513}";
}
);
layerId = "04BF5C93-05E4-4DB8-B59C-EE59F3489DF8";
paths = (
{
closed = 1;
nodes = (
"3 -235 OFFCURVE",
"54 -209 OFFCURVE",
"91 -168 CURVE SMOOTH",
"140 -120 OFFCURVE",
"172 -50 OFFCURVE",
"192 50 CURVE SMOOTH",
"278 486 LINE",
"267 496 LINE",
"90 444 LINE",
"88 426 LINE",
"101 421 LINE SMOOTH",
"128 410 OFFCURVE",
"139 391 OFFCURVE",
"134 362 CURVE SMOOTH",
"75 50 LINE SMOOTH",
"55 -61 OFFCURVE",
"36 -123 OFFCURVE",
"11 -163 CURVE",
"-8 -195 OFFCURVE",
"-33 -208 OFFCURVE",
"-65 -221 CURVE",
"-61 -240 LINE"
);
}
);
width = 281.4288;
}
);
leftKerningGroup = LAT_j;
rightKerningGroup = LAT_j;
unicode = 0237;
},
{
color = 0;
export = 0;
glyphname = longs;
lastChange = "2019-06-06 17:04:15 +0000";
layers = (
{
associatedMasterId = "04BF5C93-05E4-4DB8-B59C-EE59F3489DF8";
layerId = "70023048-75D4-4F59-8BF9-49EEC6A33CD1";
paths = (
{
closed = 1;
nodes = (
"332 741 OFFCURVE",
"293 725 OFFCURVE",
"258 699 CURVE SMOOTH",
"200 656 OFFCURVE",
"160 584 OFFCURVE",
"142 462 CURVE SMOOTH",
"120 319 OFFCURVE",
"102 182 OFFCURVE",
"79 43 CURVE SMOOTH",
"65 -38 OFFCURVE",
"52 -95 OFFCURVE",
"31 -139 CURVE SMOOTH",
"15 -173 OFFCURVE",
"-2 -192 OFFCURVE",
"-19 -209 CURVE",
"7 -206 LINE",
"-22 -168 LINE SMOOTH",
"-44 -138 OFFCURVE",
"-69 -117 OFFCURVE",
"-101 -117 CURVE SMOOTH",
"-132 -117 OFFCURVE",
"-152 -139 OFFCURVE",
"-157 -169 CURVE",
"-138 -220 OFFCURVE",
"-91 -241 OFFCURVE",
"-36 -241 CURVE SMOOTH",
"5 -241 OFFCURVE",
"54 -222 OFFCURVE",
"95 -180 CURVE SMOOTH",
"145 -130 OFFCURVE",
"173 -57 OFFCURVE",
"192 43 CURVE SMOOTH",
"219 186 OFFCURVE",
"240 345 OFFCURVE",
"264 498 CURVE SMOOTH",
"286 637 OFFCURVE",
"307 675 OFFCURVE",
"339 698 CURVE SMOOTH",
"357 712 OFFCURVE",
"372 718 OFFCURVE",
"390 722 CURVE",
"337 716 LINE",
"369 667 LINE SMOOTH",
"394 633 OFFCURVE",
"415 614 OFFCURVE",
"446 614 CURVE SMOOTH",
"472 614 OFFCURVE",
"499 634 OFFCURVE",
"504 665 CURVE",
"493 708 OFFCURVE",
"439 741 OFFCURVE",
"379 741 CURVE SMOOTH"
);
}
);
width = 322.40665;
},
{
layerId = "04BF5C93-05E4-4DB8-B59C-EE59F3489DF8";
paths = (
{
closed = 1;
nodes = (
"332 741 OFFCURVE",
"293 725 OFFCURVE",
"258 699 CURVE SMOOTH",
"200 656 OFFCURVE",
"160 584 OFFCURVE",
"142 462 CURVE SMOOTH",
"120 319 OFFCURVE",
"102 182 OFFCURVE",
"79 43 CURVE SMOOTH",
"65 -38 OFFCURVE",
"52 -95 OFFCURVE",
"31 -139 CURVE SMOOTH",
"15 -173 OFFCURVE",
"-2 -192 OFFCURVE",
"-19 -209 CURVE",
"7 -206 LINE",
"-22 -168 LINE SMOOTH",
"-44 -138 OFFCURVE",
"-69 -117 OFFCURVE",
"-101 -117 CURVE SMOOTH",
"-132 -117 OFFCURVE",
"-152 -139 OFFCURVE",
"-157 -169 CURVE",
"-138 -220 OFFCURVE",
"-91 -241 OFFCURVE",
"-36 -241 CURVE SMOOTH",
"5 -241 OFFCURVE",
"54 -222 OFFCURVE",
"95 -180 CURVE SMOOTH",
"145 -130 OFFCURVE",
"173 -57 OFFCURVE",
"192 43 CURVE SMOOTH",
"219 186 OFFCURVE",
"240 345 OFFCURVE",
"264 498 CURVE SMOOTH",
"286 637 OFFCURVE",
"307 675 OFFCURVE",
"339 698 CURVE SMOOTH",
"357 712 OFFCURVE",
"372 718 OFFCURVE",
"390 722 CURVE",
"337 716 LINE",
"369 667 LINE SMOOTH",
"394 633 OFFCURVE",
"415 614 OFFCURVE",
"446 614 CURVE SMOOTH",
"472 614 OFFCURVE",
"499 634 OFFCURVE",
"504 665 CURVE",
"493 708 OFFCURVE",
"439 741 OFFCURVE",
"379 741 CURVE SMOOTH"
);
}
);
width = 322.40665;
}
);
leftKerningGroup = LAT_germandbls;
rightKerningGroup = LAT_f;
unicode = 017F;
},
{
color = 4;
glyphname = f_f;
lastChange = "2019-06-06 17:04:15 +0000";
layers = (
{
anchors = (
{
name = caret_1;
position = "{305, 0}";
}
);
associatedMasterId = "04BF5C93-05E4-4DB8-B59C-EE59F3489DF8";
layerId = "70023048-75D4-4F59-8BF9-49EEC6A33CD1";
paths = (
{
closed = 1;
nodes = (
"4 -241 OFFCURVE",
"56 -222 OFFCURVE",
"97 -180 CURVE SMOOTH",
"148 -130 OFFCURVE",
"176 -57 OFFCURVE",
"195 43 CURVE SMOOTH",
"219 171 OFFCURVE",
"239 314 OFFCURVE",
"259 451 CURVE",
"425 450 LINE",
"404 307 OFFCURVE",
"384 170 OFFCURVE",
"364 43 CURVE SMOOTH",
"350 -38 OFFCURVE",
"336 -102 OFFCURVE",
"317 -146 CURVE SMOOTH",
"310 -164 OFFCURVE",
"304 -178 OFFCURVE",
"296 -192 CURVE SMOOTH",
"289 -203 OFFCURVE",
"277 -202 OFFCURVE",
"269 -189 CURVE SMOOTH",
"260 -169 LINE SMOOTH",
"238 -132 OFFCURVE",
"213 -117 OFFCURVE",
"183 -117 CURVE SMOOTH",
"153 -117 OFFCURVE",
"128 -138 OFFCURVE",
"128 -171 CURVE SMOOTH",
"128 -216 OFFCURVE",
"180 -241 OFFCURVE",
"234 -241 CURVE SMOOTH",
"287 -241 OFFCURVE",
"339 -222 OFFCURVE",
"380 -180 CURVE SMOOTH",
"430 -130 OFFCURVE",
"458 -57 OFFCURVE",
"477 43 CURVE SMOOTH",
"502 171 OFFCURVE",
"521 313 OFFCURVE",
"542 451 CURVE",
"663 448 LINE",
"669 480 LINE",
"546 480 LINE",
"562 574 OFFCURVE",
"581 631 OFFCURVE",
"611 664 CURVE",
"621 676 OFFCURVE",
"635 673 OFFCURVE",
"643 659 CURVE SMOOTH",
"651 641 LINE SMOOTH",
"674 600 OFFCURVE",
"698 580 OFFCURVE",
"728 580 CURVE SMOOTH",
"760 580 OFFCURVE",
"785 602 OFFCURVE",
"785 636 CURVE SMOOTH",
"785 680 OFFCURVE",
"741 710 OFFCURVE",
"675 710 CURVE SMOOTH",
"559 710 OFFCURVE",
"480 645 OFFCURVE",
"442 528 CURVE SMOOTH",
"432 496 OFFCURVE",
"414 480 OFFCURVE",
"382 480 CURVE SMOOTH",
"264 480 LINE",
"280 574 OFFCURVE",
"299 632 OFFCURVE",
"328 664 CURVE",
"338 677 OFFCURVE",
"352 673 OFFCURVE",
"361 659 CURVE SMOOTH",
"368 641 LINE SMOOTH",
"388 605 OFFCURVE",
"411 588 OFFCURVE",
"438 588 CURVE SMOOTH",
"469 588 OFFCURVE",
"494 610 OFFCURVE",
"494 644 CURVE SMOOTH",
"494 683 OFFCURVE",
"453 710 OFFCURVE",
"393 710 CURVE SMOOTH",
"283 710 OFFCURVE",
"200 651 OFFCURVE",
"159 527 CURVE SMOOTH",
"149 495 OFFCURVE",
"132 479 OFFCURVE",
"100 475 CURVE SMOOTH",
"63 471 LINE",
"59 452 LINE",
"142 452 LINE",
"121 306 OFFCURVE",
"102 173 OFFCURVE",
"82 43 CURVE SMOOTH",
"67 -38 OFFCURVE",
"54 -102 OFFCURVE",
"35 -146 CURVE SMOOTH",
"28 -164 OFFCURVE",
"21 -179 OFFCURVE",
"14 -192 CURVE SMOOTH",
"5 -203 OFFCURVE",
"-7 -201 OFFCURVE",
"-14 -189 CURVE SMOOTH",
"-23 -169 LINE SMOOTH",
"-46 -130 OFFCURVE",
"-70 -117 OFFCURVE",
"-99 -117 CURVE SMOOTH",
"-129 -117 OFFCURVE",
"-154 -138 OFFCURVE",
"-154 -171 CURVE SMOOTH",
"-154 -216 OFFCURVE",
"-103 -241 OFFCURVE",
"-49 -241 CURVE SMOOTH"
);
}
);
width = 610.43534;
},
{
anchors = (
{
name = caret_1;
position = "{305, 0}";
}
);
layerId = "04BF5C93-05E4-4DB8-B59C-EE59F3489DF8";
paths = (
{
closed = 1;
nodes = (
"4 -241 OFFCURVE",
"56 -222 OFFCURVE",
"97 -180 CURVE SMOOTH",
"148 -130 OFFCURVE",
"176 -57 OFFCURVE",
"195 43 CURVE SMOOTH",
"219 171 OFFCURVE",
"239 314 OFFCURVE",
"259 451 CURVE",
"425 450 LINE",
"404 307 OFFCURVE",
"384 170 OFFCURVE",
"364 43 CURVE SMOOTH",
"350 -38 OFFCURVE",
"336 -102 OFFCURVE",
"317 -146 CURVE SMOOTH",
"310 -164 OFFCURVE",
"304 -178 OFFCURVE",
"296 -192 CURVE SMOOTH",
"289 -203 OFFCURVE",
"277 -202 OFFCURVE",
"269 -189 CURVE SMOOTH",
"260 -169 LINE SMOOTH",
"238 -132 OFFCURVE",
"213 -117 OFFCURVE",
"183 -117 CURVE SMOOTH",
"153 -117 OFFCURVE",
"128 -138 OFFCURVE",
"128 -171 CURVE SMOOTH",
"128 -216 OFFCURVE",
"180 -241 OFFCURVE",
"234 -241 CURVE SMOOTH",
"287 -241 OFFCURVE",
"339 -222 OFFCURVE",
"380 -180 CURVE SMOOTH",
"430 -130 OFFCURVE",
"458 -57 OFFCURVE",
"477 43 CURVE SMOOTH",
"502 171 OFFCURVE",
"521 313 OFFCURVE",
"542 451 CURVE",
"663 448 LINE",
"669 480 LINE",
"546 480 LINE",
"562 574 OFFCURVE",
"581 631 OFFCURVE",
"611 664 CURVE",
"621 676 OFFCURVE",
"635 673 OFFCURVE",
"643 659 CURVE SMOOTH",
"651 641 LINE SMOOTH",
"674 600 OFFCURVE",
"698 580 OFFCURVE",
"728 580 CURVE SMOOTH",
"760 580 OFFCURVE",
"785 602 OFFCURVE",
"785 636 CURVE SMOOTH",
"785 680 OFFCURVE",
"741 710 OFFCURVE",
"675 710 CURVE SMOOTH",
"559 710 OFFCURVE",
"480 645 OFFCURVE",
"442 528 CURVE SMOOTH",
"432 496 OFFCURVE",
"414 480 OFFCURVE",
"382 480 CURVE SMOOTH",
"264 480 LINE",
"280 574 OFFCURVE",
"299 632 OFFCURVE",
"328 664 CURVE",
"338 677 OFFCURVE",
"352 673 OFFCURVE",
"361 659 CURVE SMOOTH",
"368 641 LINE SMOOTH",
"388 605 OFFCURVE",
"411 588 OFFCURVE",
"438 588 CURVE SMOOTH",
"469 588 OFFCURVE",
"494 610 OFFCURVE",
"494 644 CURVE SMOOTH",
"494 683 OFFCURVE",
"453 710 OFFCURVE",
"393 710 CURVE SMOOTH",
"283 710 OFFCURVE",
"200 651 OFFCURVE",
"159 527 CURVE SMOOTH",
"149 495 OFFCURVE",
"132 479 OFFCURVE",
"100 475 CURVE SMOOTH",
"63 471 LINE",
"59 452 LINE",
"142 452 LINE",
"121 306 OFFCURVE",
"102 173 OFFCURVE",
"82 43 CURVE SMOOTH",
"67 -38 OFFCURVE",
"54 -102 OFFCURVE",
"35 -146 CURVE SMOOTH",
"28 -164 OFFCURVE",
"21 -179 OFFCURVE",
"14 -192 CURVE SMOOTH",
"5 -203 OFFCURVE",
"-7 -201 OFFCURVE",
"-14 -189 CURVE SMOOTH",
"-23 -169 LINE SMOOTH",
"-46 -130 OFFCURVE",
"-70 -117 OFFCURVE",
"-99 -117 CURVE SMOOTH",
"-129 -117 OFFCURVE",
"-154 -138 OFFCURVE",
"-154 -171 CURVE SMOOTH",
"-154 -216 OFFCURVE",
"-103 -241 OFFCURVE",
"-49 -241 CURVE SMOOTH"
);
}
);
width = 610.43534;
}
);
leftKerningGroup = LAT_f;
leftMetricsKey = f;
rightKerningGroup = LAT_f;
rightMetricsKey = f;
unicode = FB00;
},
{
color = 4;
glyphname = f_i;
lastChange = "2019-06-06 17:04:15 +0000";
layers = (
{
anchors = (
{
name = bottom_1;
position = "{95, 0}";
},
{
name = bottom_2;
position = "{387, 0}";
},
{
name = caret_1;
position = "{292, 0}";
},
{
name = top_1;
position = "{248, 721}";
},
{
name = top_2;
position = "{540, 721}";
}
);
associatedMasterId = "04BF5C93-05E4-4DB8-B59C-EE59F3489DF8";
layerId = "70023048-75D4-4F59-8BF9-49EEC6A33CD1";
paths = (
{
closed = 1;
nodes = (
"1 -241 OFFCURVE",
"56 -222 OFFCURVE",
"97 -180 CURVE SMOOTH",
"148 -130 OFFCURVE",
"176 -57 OFFCURVE",
"195 43 CURVE SMOOTH",
"219 169 OFFCURVE",
"240 316 OFFCURVE",
"259 451 CURVE",
"435 448 LINE",
"370 137 LINE SMOOTH",
"363 104 OFFCURVE",
"357 70 OFFCURVE",
"357 47 CURVE SMOOTH",
"357 7 OFFCURVE",
"386 -14 OFFCURVE",
"427 -14 CURVE SMOOTH",
"501 -14 OFFCURVE",
"555 40 OFFCURVE",
"592 96 CURVE",
"577 107 LINE",
"544 71 OFFCURVE",
"522 54 OFFCURVE",
"500 54 CURVE SMOOTH",
"487 54 OFFCURVE",
"480 62 OFFCURVE",
"480 76 CURVE SMOOTH",
"480 88 OFFCURVE",
"483 103 OFFCURVE",
"487 123 CURVE SMOOTH",
"564 486 LINE",
"552 496 LINE",
"524 490 LINE SMOOTH",
"496 483 OFFCURVE",
"474 480 OFFCURVE",
"445 480 CURVE SMOOTH",
"264 480 LINE",
"284 592 OFFCURVE",
"337 677 OFFCURVE",
"405 680 CURVE SMOOTH",
"426 683 OFFCURVE",
"440 673 OFFCURVE",
"452 651 CURVE SMOOTH",
"459 637 LINE SMOOTH",
"479 599 OFFCURVE",
"503 581 OFFCURVE",
"534 581 CURVE SMOOTH",
"564 581 OFFCURVE",
"589 599 OFFCURVE",
"589 635 CURVE SMOOTH",
"589 680 OFFCURVE",
"534 710 OFFCURVE",
"452 710 CURVE SMOOTH",
"305 710 OFFCURVE",
"208 645 OFFCURVE",
"162 527 CURVE SMOOTH",
"150 495 OFFCURVE",
"132 479 OFFCURVE",
"99 475 CURVE SMOOTH",
"63 471 LINE",
"59 452 LINE",
"142 452 LINE",
"121 310 OFFCURVE",
"102 170 OFFCURVE",
"82 43 CURVE SMOOTH",
"68 -38 OFFCURVE",
"54 -102 OFFCURVE",
"35 -146 CURVE SMOOTH",
"27 -168 OFFCURVE",
"21 -180 OFFCURVE",
"14 -192 CURVE SMOOTH",
"6 -203 OFFCURVE",
"-5 -202 OFFCURVE",
"-12 -191 CURVE SMOOTH",
"-23 -167 LINE SMOOTH",
"-41 -135 OFFCURVE",
"-67 -117 OFFCURVE",
"-99 -117 CURVE SMOOTH",
"-132 -117 OFFCURVE",
"-154 -140 OFFCURVE",
"-154 -171 CURVE SMOOTH",
"-154 -217 OFFCURVE",
"-100 -241 OFFCURVE",
"-49 -241 CURVE SMOOTH"
);
}
);
width = 584.47648;
},
{
anchors = (
{
name = bottom_1;
position = "{95, 0}";
},
{
name = bottom_2;
position = "{387, 0}";
},
{
name = caret_1;
position = "{292, 0}";
},
{
name = top_1;
position = "{248, 721}";
},
{
name = top_2;
position = "{540, 721}";
}
);
layerId = "04BF5C93-05E4-4DB8-B59C-EE59F3489DF8";
paths = (
{
closed = 1;
nodes = (
"1 -241 OFFCURVE",
"56 -222 OFFCURVE",
"97 -180 CURVE SMOOTH",
"148 -130 OFFCURVE",
"176 -57 OFFCURVE",
"195 43 CURVE SMOOTH",
"219 169 OFFCURVE",
"240 316 OFFCURVE",
"259 451 CURVE",
"435 448 LINE",
"370 137 LINE SMOOTH",
"363 104 OFFCURVE",
"357 70 OFFCURVE",
"357 47 CURVE SMOOTH",
"357 7 OFFCURVE",
"386 -14 OFFCURVE",
"427 -14 CURVE SMOOTH",
"501 -14 OFFCURVE",
"555 40 OFFCURVE",
"592 96 CURVE",
"577 107 LINE",
"544 71 OFFCURVE",
"522 54 OFFCURVE",
"500 54 CURVE SMOOTH",
"487 54 OFFCURVE",
"480 62 OFFCURVE",
"480 76 CURVE SMOOTH",
"480 88 OFFCURVE",
"483 103 OFFCURVE",
"487 123 CURVE SMOOTH",
"564 486 LINE",
"552 496 LINE",
"524 490 LINE SMOOTH",
"496 483 OFFCURVE",
"474 480 OFFCURVE",
"445 480 CURVE SMOOTH",
"264 480 LINE",
"284 592 OFFCURVE",
"337 677 OFFCURVE",
"405 680 CURVE SMOOTH",
"426 683 OFFCURVE",
"440 673 OFFCURVE",
"452 651 CURVE SMOOTH",
"459 637 LINE SMOOTH",
"479 599 OFFCURVE",
"503 581 OFFCURVE",
"534 581 CURVE SMOOTH",
"564 581 OFFCURVE",
"589 599 OFFCURVE",
"589 635 CURVE SMOOTH",
"589 680 OFFCURVE",
"534 710 OFFCURVE",
"452 710 CURVE SMOOTH",
"305 710 OFFCURVE",
"208 645 OFFCURVE",
"162 527 CURVE SMOOTH",
"150 495 OFFCURVE",
"132 479 OFFCURVE",
"99 475 CURVE SMOOTH",
"63 471 LINE",
"59 452 LINE",
"142 452 LINE",
"121 310 OFFCURVE",
"102 170 OFFCURVE",
"82 43 CURVE SMOOTH",
"68 -38 OFFCURVE",
"54 -102 OFFCURVE",
"35 -146 CURVE SMOOTH",
"27 -168 OFFCURVE",
"21 -180 OFFCURVE",
"14 -192 CURVE SMOOTH",
"6 -203 OFFCURVE",
"-5 -202 OFFCURVE",
"-12 -191 CURVE SMOOTH",
"-23 -167 LINE SMOOTH",
"-41 -135 OFFCURVE",
"-67 -117 OFFCURVE",
"-99 -117 CURVE SMOOTH",
"-132 -117 OFFCURVE",
"-154 -140 OFFCURVE",
"-154 -171 CURVE SMOOTH",
"-154 -217 OFFCURVE",
"-100 -241 OFFCURVE",
"-49 -241 CURVE SMOOTH"
);
}
);
width = 584.47648;
}
);
leftKerningGroup = LAT_f;
leftMetricsKey = f;
rightKerningGroup = LAT_i;
rightMetricsKey = idotless;
unicode = FB01;
},
{
color = 4;
glyphname = f_j;
lastChange = "2019-06-06 17:04:15 +0000";
layers = (
{
anchors = (
{
name = bottom_1;
position = "{95, 0}";
},
{
name = bottom_2;
position = "{387, 0}";
},
{
name = caret_1;
position = "{292, 0}";
},
{
name = top_1;
position = "{248, 721}";
},
{
name = top_2;
position = "{540, 721}";
}
);
associatedMasterId = "04BF5C93-05E4-4DB8-B59C-EE59F3489DF8";
layerId = "70023048-75D4-4F59-8BF9-49EEC6A33CD1";
paths = (
{
closed = 1;
nodes = (
"1 -241 OFFCURVE",
"56 -222 OFFCURVE",
"97 -180 CURVE SMOOTH",
"148 -130 OFFCURVE",
"176 -57 OFFCURVE",
"195 43 CURVE SMOOTH",
"219 169 OFFCURVE",
"240 316 OFFCURVE",
"259 451 CURVE",
"435 448 LINE",
"361 50 LINE SMOOTH",
"341 -61 OFFCURVE",
"322 -123 OFFCURVE",
"297 -163 CURVE SMOOTH",
"278 -195 OFFCURVE",
"253 -208 OFFCURVE",
"221 -221 CURVE",
"226 -240 LINE",
"290 -235 OFFCURVE",
"340 -209 OFFCURVE",
"377 -168 CURVE SMOOTH",
"426 -120 OFFCURVE",
"458 -50 OFFCURVE",
"478 50 CURVE SMOOTH",
"564 486 LINE",
"552 496 LINE",
"524 490 LINE SMOOTH",
"496 483 OFFCURVE",
"474 480 OFFCURVE",
"445 480 CURVE SMOOTH",
"264 480 LINE",
"284 592 OFFCURVE",
"337 677 OFFCURVE",
"405 680 CURVE SMOOTH",
"426 683 OFFCURVE",
"440 673 OFFCURVE",
"452 651 CURVE SMOOTH",
"459 637 LINE SMOOTH",
"479 599 OFFCURVE",
"503 581 OFFCURVE",
"534 581 CURVE SMOOTH",
"564 581 OFFCURVE",
"589 599 OFFCURVE",
"589 635 CURVE SMOOTH",
"589 680 OFFCURVE",
"534 710 OFFCURVE",
"452 710 CURVE SMOOTH",
"305 710 OFFCURVE",
"208 645 OFFCURVE",
"162 527 CURVE SMOOTH",
"150 495 OFFCURVE",
"132 479 OFFCURVE",
"99 475 CURVE SMOOTH",
"63 471 LINE",
"59 452 LINE",
"142 452 LINE",
"121 310 OFFCURVE",
"102 170 OFFCURVE",
"82 43 CURVE SMOOTH",
"68 -38 OFFCURVE",
"54 -102 OFFCURVE",
"35 -146 CURVE SMOOTH",
"27 -168 OFFCURVE",
"21 -180 OFFCURVE",
"14 -192 CURVE SMOOTH",
"6 -203 OFFCURVE",
"-5 -202 OFFCURVE",
"-12 -191 CURVE",
"-23 -167 LINE SMOOTH",
"-41 -135 OFFCURVE",
"-67 -117 OFFCURVE",
"-99 -117 CURVE SMOOTH",
"-132 -117 OFFCURVE",
"-154 -140 OFFCURVE",
"-154 -171 CURVE SMOOTH",
"-154 -217 OFFCURVE",
"-100 -241 OFFCURVE",
"-49 -241 CURVE SMOOTH"
);
}
);
width = 584.47648;
},
{
anchors = (
{
name = bottom_1;
position = "{95, 0}";
},
{
name = bottom_2;
position = "{387, 0}";
},
{
name = caret_1;
position = "{292, 0}";
},
{
name = top_1;
position = "{248, 721}";
},
{
name = top_2;
position = "{540, 721}";
}
);
layerId = "04BF5C93-05E4-4DB8-B59C-EE59F3489DF8";
paths = (
{
closed = 1;
nodes = (
"1 -241 OFFCURVE",
"56 -222 OFFCURVE",
"97 -180 CURVE SMOOTH",
"148 -130 OFFCURVE",
"176 -57 OFFCURVE",
"195 43 CURVE SMOOTH",
"219 169 OFFCURVE",
"240 316 OFFCURVE",
"259 451 CURVE",
"435 448 LINE",
"361 50 LINE SMOOTH",
"341 -61 OFFCURVE",
"322 -123 OFFCURVE",
"297 -163 CURVE SMOOTH",
"278 -195 OFFCURVE",
"253 -208 OFFCURVE",
"221 -221 CURVE",
"226 -240 LINE",
"290 -235 OFFCURVE",
"340 -209 OFFCURVE",
"377 -168 CURVE SMOOTH",
"426 -120 OFFCURVE",
"458 -50 OFFCURVE",
"478 50 CURVE SMOOTH",
"564 486 LINE",
"552 496 LINE",
"524 490 LINE SMOOTH",
"496 483 OFFCURVE",
"474 480 OFFCURVE",
"445 480 CURVE SMOOTH",
"264 480 LINE",
"284 592 OFFCURVE",
"337 677 OFFCURVE",
"405 680 CURVE SMOOTH",
"426 683 OFFCURVE",
"440 673 OFFCURVE",
"452 651 CURVE SMOOTH",
"459 637 LINE SMOOTH",
"479 599 OFFCURVE",
"503 581 OFFCURVE",
"534 581 CURVE SMOOTH",
"564 581 OFFCURVE",
"589 599 OFFCURVE",
"589 635 CURVE SMOOTH",
"589 680 OFFCURVE",
"534 710 OFFCURVE",
"452 710 CURVE SMOOTH",
"305 710 OFFCURVE",
"208 645 OFFCURVE",
"162 527 CURVE SMOOTH",
"150 495 OFFCURVE",
"132 479 OFFCURVE",
"99 475 CURVE SMOOTH",
"63 471 LINE",
"59 452 LINE",
"142 452 LINE",
"121 310 OFFCURVE",
"102 170 OFFCURVE",
"82 43 CURVE SMOOTH",
"68 -38 OFFCURVE",
"54 -102 OFFCURVE",
"35 -146 CURVE SMOOTH",
"27 -168 OFFCURVE",
"21 -180 OFFCURVE",
"14 -192 CURVE SMOOTH",
"6 -203 OFFCURVE",
"-5 -202 OFFCURVE",
"-12 -191 CURVE",
"-23 -167 LINE SMOOTH",
"-41 -135 OFFCURVE",
"-67 -117 OFFCURVE",
"-99 -117 CURVE SMOOTH",
"-132 -117 OFFCURVE",
"-154 -140 OFFCURVE",
"-154 -171 CURVE SMOOTH",
"-154 -217 OFFCURVE",
"-100 -241 OFFCURVE",
"-49 -241 CURVE SMOOTH"
);
}
);
width = 584.47648;
}
);
leftKerningGroup = LAT_f;
rightKerningGroup = LAT_j;
},
{
color = 8;
export = 0;
glyphname = f_f_b;
lastChange = "2019-06-06 17:04:15 +0000";
layers = (
{
anchors = (
{
name = bottom_1;
position = "{133, 0}";
},
{
name = bottom_2;
position = "{501, 0}";
},
{
name = bottom_3;
position = "{869, 0}";
},
{
name = caret_1;
position = "{368, 0}";
},
{
name = caret_2;
position = "{736, 0}";
},
{
name = top_1;
position = "{286, 721}";
},
{
name = top_2;
position = "{654, 721}";
},
{
name = top_3;
position = "{1022, 721}";
}
);
associatedMasterId = "04BF5C93-05E4-4DB8-B59C-EE59F3489DF8";
components = (
{
alignment = -1;
name = f_b;
transform = "{1, 0, 0, 1, 283, 0}";
}
);
layerId = "70023048-75D4-4F59-8BF9-49EEC6A33CD1";
paths = (
{
closed = 1;
nodes = (
"4 -241 OFFCURVE",
"56 -222 OFFCURVE",
"97 -180 CURVE SMOOTH",
"148 -130 OFFCURVE",
"176 -57 OFFCURVE",
"195 43 CURVE SMOOTH",
"219 171 OFFCURVE",
"239 313 OFFCURVE",
"259 450 CURVE",
"459 450 LINE",
"465 480 LINE",
"264 480 LINE",
"286 606 OFFCURVE",
"306 657 OFFCURVE",
"347 683 CURVE",
"347 683 OFFCURVE",
"347 683 OFFCURVE",
"347 683 CURVE",
"369 640 LINE SMOOTH",
"389 605 OFFCURVE",
"411 588 OFFCURVE",
"438 588 CURVE SMOOTH",
"469 588 OFFCURVE",
"494 610 OFFCURVE",
"494 644 CURVE SMOOTH",
"494 683 OFFCURVE",
"453 710 OFFCURVE",
"393 710 CURVE SMOOTH",
"263 710 OFFCURVE",
"178 628 OFFCURVE",
"147 480 CURVE",
"147 480 OFFCURVE",
"147 480 OFFCURVE",
"147 480 CURVE",
"63 471 LINE",
"59 452 LINE",
"142 452 LINE",
"121 307 OFFCURVE",
"102 174 OFFCURVE",
"82 43 CURVE SMOOTH",
"67 -38 OFFCURVE",
"54 -102 OFFCURVE",
"35 -147 CURVE SMOOTH",
"23 -179 OFFCURVE",
"13 -193 OFFCURVE",
"0 -210 CURVE",
"0 -210 OFFCURVE",
"0 -210 OFFCURVE",
"0 -210 CURVE",
"-21 -170 LINE SMOOTH",
"-44 -132 OFFCURVE",
"-70 -117 OFFCURVE",
"-99 -117 CURVE SMOOTH",
"-129 -117 OFFCURVE",
"-154 -138 OFFCURVE",
"-154 -171 CURVE SMOOTH",
"-154 -216 OFFCURVE",
"-103 -241 OFFCURVE",
"-49 -241 CURVE SMOOTH"
);
}
);
width = 1104.26424;
},
{
anchors = (
{
name = bottom_1;
position = "{133, 0}";
},
{
name = bottom_2;
position = "{501, 0}";
},
{
name = bottom_3;
position = "{869, 0}";
},
{
name = caret_1;
position = "{368, 0}";
},
{
name = caret_2;
position = "{736, 0}";
},
{
name = top_1;
position = "{286, 721}";
},
{
name = top_2;
position = "{654, 721}";
},
{
name = top_3;
position = "{1022, 721}";
}
);
components = (
{
alignment = -1;
name = f_b;
transform = "{1, 0, 0, 1, 283, 0}";
}
);
layerId = "04BF5C93-05E4-4DB8-B59C-EE59F3489DF8";
paths = (
{
closed = 1;
nodes = (
"4 -241 OFFCURVE",
"56 -222 OFFCURVE",
"97 -180 CURVE SMOOTH",
"148 -130 OFFCURVE",
"176 -57 OFFCURVE",
"195 43 CURVE SMOOTH",
"219 171 OFFCURVE",
"239 313 OFFCURVE",
"259 450 CURVE",
"459 450 LINE",
"465 480 LINE",
"264 480 LINE",
"286 606 OFFCURVE",
"306 657 OFFCURVE",
"347 683 CURVE",
"347 683 OFFCURVE",
"347 683 OFFCURVE",
"347 683 CURVE",
"369 640 LINE SMOOTH",
"389 605 OFFCURVE",
"411 588 OFFCURVE",
"438 588 CURVE SMOOTH",
"469 588 OFFCURVE",
"494 610 OFFCURVE",
"494 644 CURVE SMOOTH",
"494 683 OFFCURVE",
"453 710 OFFCURVE",
"393 710 CURVE SMOOTH",
"263 710 OFFCURVE",
"178 628 OFFCURVE",
"147 480 CURVE",
"147 480 OFFCURVE",
"147 480 OFFCURVE",
"147 480 CURVE",
"63 471 LINE",
"59 452 LINE",
"142 452 LINE",
"121 307 OFFCURVE",
"102 174 OFFCURVE",
"82 43 CURVE SMOOTH",
"67 -38 OFFCURVE",
"54 -102 OFFCURVE",
"35 -147 CURVE SMOOTH",
"23 -179 OFFCURVE",
"13 -193 OFFCURVE",
"0 -210 CURVE",
"0 -210 OFFCURVE",
"0 -210 OFFCURVE",
"0 -210 CURVE",
"-21 -170 LINE SMOOTH",
"-44 -132 OFFCURVE",
"-70 -117 OFFCURVE",
"-99 -117 CURVE SMOOTH",
"-129 -117 OFFCURVE",
"-154 -138 OFFCURVE",
"-154 -171 CURVE SMOOTH",
"-154 -216 OFFCURVE",
"-103 -241 OFFCURVE",
"-49 -241 CURVE SMOOTH"
);
}
);
width = 1104.26424;
}
);
leftKerningGroup = LAT_f;
rightKerningGroup = LAT_b;
},
{
color = 0;
export = 0;
glyphname = f_f_f;
lastChange = "2019-06-06 17:04:15 +0000";
layers = (
{
associatedMasterId = "04BF5C93-05E4-4DB8-B59C-EE59F3489DF8";
components = (
{
alignment = -1;
name = f_f;
transform = "{1, 0, 0, 1, 283, 0}";
}
);
layerId = "70023048-75D4-4F59-8BF9-49EEC6A33CD1";
paths = (
{
closed = 1;
nodes = (
"4 -241 OFFCURVE",
"56 -222 OFFCURVE",
"97 -180 CURVE SMOOTH",
"148 -130 OFFCURVE",
"176 -57 OFFCURVE",
"195 43 CURVE SMOOTH",
"219 171 OFFCURVE",
"239 313 OFFCURVE",
"259 450 CURVE",
"459 448 LINE",
"465 480 LINE",
"264 480 LINE",
"286 606 OFFCURVE",
"306 657 OFFCURVE",
"347 683 CURVE",
"347 683 OFFCURVE",
"347 683 OFFCURVE",
"347 683 CURVE",
"369 640 LINE SMOOTH",
"389 605 OFFCURVE",
"411 588 OFFCURVE",
"438 588 CURVE SMOOTH",
"469 588 OFFCURVE",
"494 610 OFFCURVE",
"494 644 CURVE SMOOTH",
"494 683 OFFCURVE",
"453 710 OFFCURVE",
"393 710 CURVE SMOOTH",
"263 710 OFFCURVE",
"178 628 OFFCURVE",
"147 480 CURVE",
"147 480 OFFCURVE",
"147 480 OFFCURVE",
"147 480 CURVE",
"63 471 LINE",
"59 452 LINE",
"142 452 LINE",
"121 307 OFFCURVE",
"102 174 OFFCURVE",
"82 43 CURVE SMOOTH",
"67 -38 OFFCURVE",
"54 -102 OFFCURVE",
"35 -147 CURVE SMOOTH",
"23 -179 OFFCURVE",
"13 -193 OFFCURVE",
"0 -210 CURVE",
"0 -210 OFFCURVE",
"0 -210 OFFCURVE",
"0 -210 CURVE",
"-21 -170 LINE SMOOTH",
"-44 -132 OFFCURVE",
"-70 -117 OFFCURVE",
"-99 -117 CURVE SMOOTH",
"-129 -117 OFFCURVE",
"-154 -138 OFFCURVE",
"-154 -171 CURVE SMOOTH",
"-154 -216 OFFCURVE",
"-103 -241 OFFCURVE",
"-49 -241 CURVE SMOOTH"
);
}
);
width = 892.76899;
},
{
components = (
{
alignment = -1;
name = f_f;
transform = "{1, 0, 0, 1, 283, 0}";
}
);
layerId = "04BF5C93-05E4-4DB8-B59C-EE59F3489DF8";
paths = (
{
closed = 1;
nodes = (
"4 -241 OFFCURVE",
"56 -222 OFFCURVE",
"97 -180 CURVE SMOOTH",
"148 -130 OFFCURVE",
"176 -57 OFFCURVE",
"195 43 CURVE SMOOTH",
"219 171 OFFCURVE",
"239 313 OFFCURVE",
"259 450 CURVE",
"459 448 LINE",
"465 480 LINE",
"264 480 LINE",
"286 606 OFFCURVE",
"306 657 OFFCURVE",
"347 683 CURVE",
"347 683 OFFCURVE",
"347 683 OFFCURVE",
"347 683 CURVE",
"369 640 LINE SMOOTH",
"389 605 OFFCURVE",
"411 588 OFFCURVE",
"438 588 CURVE SMOOTH",
"469 588 OFFCURVE",
"494 610 OFFCURVE",
"494 644 CURVE SMOOTH",
"494 683 OFFCURVE",
"453 710 OFFCURVE",
"393 710 CURVE SMOOTH",
"263 710 OFFCURVE",
"178 628 OFFCURVE",
"147 480 CURVE",
"147 480 OFFCURVE",
"147 480 OFFCURVE",
"147 480 CURVE",
"63 471 LINE",
"59 452 LINE",
"142 452 LINE",
"121 307 OFFCURVE",
"102 174 OFFCURVE",
"82 43 CURVE SMOOTH",
"67 -38 OFFCURVE",
"54 -102 OFFCURVE",
"35 -147 CURVE SMOOTH",
"23 -179 OFFCURVE",
"13 -193 OFFCURVE",
"0 -210 CURVE",
"0 -210 OFFCURVE",
"0 -210 OFFCURVE",
"0 -210 CURVE",
"-21 -170 LINE SMOOTH",
"-44 -132 OFFCURVE",
"-70 -117 OFFCURVE",
"-99 -117 CURVE SMOOTH",
"-129 -117 OFFCURVE",
"-154 -138 OFFCURVE",
"-154 -171 CURVE SMOOTH",
"-154 -216 OFFCURVE",
"-103 -241 OFFCURVE",
"-49 -241 CURVE SMOOTH"
);
}
);
width = 892.76899;
}
);
leftKerningGroup = LAT_f;
rightKerningGroup = LAT_f;
},
{
color = 8;
export = 0;
glyphname = f_f_h;
lastChange = "2019-06-06 17:04:15 +0000";
layers = (
{
associatedMasterId = "04BF5C93-05E4-4DB8-B59C-EE59F3489DF8";
components = (
{
alignment = -1;
name = f_h;
transform = "{1, 0, 0, 1, 283, 0}";
}
);
layerId = "70023048-75D4-4F59-8BF9-49EEC6A33CD1";
paths = (
{
closed = 1;
nodes = (
"4 -241 OFFCURVE",
"56 -222 OFFCURVE",
"97 -180 CURVE SMOOTH",
"148 -130 OFFCURVE",
"176 -57 OFFCURVE",
"195 43 CURVE SMOOTH",
"219 171 OFFCURVE",
"239 313 OFFCURVE",
"259 450 CURVE",
"459 449 LINE",
"465 480 LINE",
"264 480 LINE",
"286 606 OFFCURVE",
"306 657 OFFCURVE",
"347 683 CURVE",
"347 683 OFFCURVE",
"347 683 OFFCURVE",
"347 683 CURVE",
"369 640 LINE SMOOTH",
"389 605 OFFCURVE",
"411 588 OFFCURVE",
"438 588 CURVE SMOOTH",
"469 588 OFFCURVE",
"494 610 OFFCURVE",
"494 644 CURVE SMOOTH",
"494 683 OFFCURVE",
"453 710 OFFCURVE",
"393 710 CURVE SMOOTH",
"263 710 OFFCURVE",
"178 628 OFFCURVE",
"147 480 CURVE",
"147 480 OFFCURVE",
"147 480 OFFCURVE",
"147 480 CURVE",
"63 471 LINE",
"59 452 LINE",
"142 452 LINE",
"121 307 OFFCURVE",
"102 174 OFFCURVE",
"82 43 CURVE SMOOTH",
"67 -38 OFFCURVE",
"54 -102 OFFCURVE",
"35 -147 CURVE SMOOTH",
"23 -179 OFFCURVE",
"13 -193 OFFCURVE",
"0 -210 CURVE",
"0 -210 OFFCURVE",
"0 -210 OFFCURVE",
"0 -210 CURVE",
"-21 -170 LINE SMOOTH",
"-44 -132 OFFCURVE",
"-70 -117 OFFCURVE",
"-99 -117 CURVE SMOOTH",
"-129 -117 OFFCURVE",
"-154 -138 OFFCURVE",
"-154 -171 CURVE SMOOTH",
"-154 -216 OFFCURVE",
"-103 -241 OFFCURVE",
"-49 -241 CURVE SMOOTH"
);
}
);
width = 1152.28639;
},
{
components = (
{
alignment = -1;
name = f_h;
transform = "{1, 0, 0, 1, 283, 0}";
}
);
layerId = "04BF5C93-05E4-4DB8-B59C-EE59F3489DF8";
paths = (
{
closed = 1;
nodes = (
"4 -241 OFFCURVE",
"56 -222 OFFCURVE",
"97 -180 CURVE SMOOTH",
"148 -130 OFFCURVE",
"176 -57 OFFCURVE",
"195 43 CURVE SMOOTH",
"219 171 OFFCURVE",
"239 313 OFFCURVE",
"259 450 CURVE",
"459 449 LINE",
"465 480 LINE",
"264 480 LINE",
"286 606 OFFCURVE",
"306 657 OFFCURVE",
"347 683 CURVE",
"347 683 OFFCURVE",
"347 683 OFFCURVE",
"347 683 CURVE",
"369 640 LINE SMOOTH",
"389 605 OFFCURVE",
"411 588 OFFCURVE",
"438 588 CURVE SMOOTH",
"469 588 OFFCURVE",
"494 610 OFFCURVE",
"494 644 CURVE SMOOTH",
"494 683 OFFCURVE",
"453 710 OFFCURVE",
"393 710 CURVE SMOOTH",
"263 710 OFFCURVE",
"178 628 OFFCURVE",
"147 480 CURVE",
"147 480 OFFCURVE",
"147 480 OFFCURVE",
"147 480 CURVE",
"63 471 LINE",
"59 452 LINE",
"142 452 LINE",
"121 307 OFFCURVE",
"102 174 OFFCURVE",
"82 43 CURVE SMOOTH",
"67 -38 OFFCURVE",
"54 -102 OFFCURVE",
"35 -147 CURVE SMOOTH",
"23 -179 OFFCURVE",
"13 -193 OFFCURVE",
"0 -210 CURVE",
"0 -210 OFFCURVE",
"0 -210 OFFCURVE",
"0 -210 CURVE",
"-21 -170 LINE SMOOTH",
"-44 -132 OFFCURVE",
"-70 -117 OFFCURVE",
"-99 -117 CURVE SMOOTH",
"-129 -117 OFFCURVE",
"-154 -138 OFFCURVE",
"-154 -171 CURVE SMOOTH",
"-154 -216 OFFCURVE",
"-103 -241 OFFCURVE",
"-49 -241 CURVE SMOOTH"
);
}
);
width = 1152.28639;
}
);
leftKerningGroup = LAT_f;
rightKerningGroup = LAT_h;
},
{
color = 8;
export = 0;
glyphname = f_f_i;
lastChange = "2019-06-06 17:04:15 +0000";
layers = (
{
associatedMasterId = "04BF5C93-05E4-4DB8-B59C-EE59F3489DF8";
components = (
{
alignment = -1;
name = f_i;
transform = "{1, 0, 0, 1, 283, 0}";
}
);
layerId = "70023048-75D4-4F59-8BF9-49EEC6A33CD1";
paths = (
{
closed = 1;
nodes = (
"4 -241 OFFCURVE",
"56 -222 OFFCURVE",
"97 -180 CURVE SMOOTH",
"148 -130 OFFCURVE",
"176 -57 OFFCURVE",
"195 43 CURVE SMOOTH",
"219 171 OFFCURVE",
"239 313 OFFCURVE",
"259 450 CURVE",
"459 448 LINE",
"465 480 LINE",
"264 480 LINE",
"286 606 OFFCURVE",
"306 657 OFFCURVE",
"347 683 CURVE",
"347 683 OFFCURVE",
"347 683 OFFCURVE",
"347 683 CURVE",
"369 640 LINE SMOOTH",
"389 605 OFFCURVE",
"411 588 OFFCURVE",
"438 588 CURVE SMOOTH",
"469 588 OFFCURVE",
"494 610 OFFCURVE",
"494 644 CURVE SMOOTH",
"494 683 OFFCURVE",
"453 710 OFFCURVE",
"393 710 CURVE SMOOTH",
"263 710 OFFCURVE",
"178 628 OFFCURVE",
"147 480 CURVE",
"147 480 OFFCURVE",
"147 480 OFFCURVE",
"147 480 CURVE",
"63 471 LINE",
"59 452 LINE",
"142 452 LINE",
"121 307 OFFCURVE",
"102 174 OFFCURVE",
"82 43 CURVE SMOOTH",
"67 -38 OFFCURVE",
"54 -102 OFFCURVE",
"35 -147 CURVE SMOOTH",
"23 -179 OFFCURVE",
"13 -193 OFFCURVE",
"0 -210 CURVE",
"0 -210 OFFCURVE",
"0 -210 OFFCURVE",
"0 -210 CURVE",
"-21 -170 LINE SMOOTH",
"-44 -132 OFFCURVE",
"-70 -117 OFFCURVE",
"-99 -117 CURVE SMOOTH",
"-129 -117 OFFCURVE",
"-154 -138 OFFCURVE",
"-154 -171 CURVE SMOOTH",
"-154 -216 OFFCURVE",
"-103 -241 OFFCURVE",
"-49 -241 CURVE SMOOTH"
);
}
);
width = 880.34652;
},
{
components = (
{
alignment = -1;
name = f_i;
transform = "{1, 0, 0, 1, 283, 0}";
}
);
layerId = "04BF5C93-05E4-4DB8-B59C-EE59F3489DF8";
paths = (
{
closed = 1;
nodes = (
"4 -241 OFFCURVE",
"56 -222 OFFCURVE",
"97 -180 CURVE SMOOTH",
"148 -130 OFFCURVE",
"176 -57 OFFCURVE",
"195 43 CURVE SMOOTH",
"219 171 OFFCURVE",
"239 313 OFFCURVE",
"259 450 CURVE",
"459 448 LINE",
"465 480 LINE",
"264 480 LINE",
"286 606 OFFCURVE",
"306 657 OFFCURVE",
"347 683 CURVE",
"347 683 OFFCURVE",
"347 683 OFFCURVE",
"347 683 CURVE",
"369 640 LINE SMOOTH",
"389 605 OFFCURVE",
"411 588 OFFCURVE",
"438 588 CURVE SMOOTH",
"469 588 OFFCURVE",
"494 610 OFFCURVE",
"494 644 CURVE SMOOTH",
"494 683 OFFCURVE",
"453 710 OFFCURVE",
"393 710 CURVE SMOOTH",
"263 710 OFFCURVE",
"178 628 OFFCURVE",
"147 480 CURVE",
"147 480 OFFCURVE",
"147 480 OFFCURVE",
"147 480 CURVE",
"63 471 LINE",
"59 452 LINE",
"142 452 LINE",
"121 307 OFFCURVE",
"102 174 OFFCURVE",
"82 43 CURVE SMOOTH",
"67 -38 OFFCURVE",
"54 -102 OFFCURVE",
"35 -147 CURVE SMOOTH",
"23 -179 OFFCURVE",
"13 -193 OFFCURVE",
"0 -210 CURVE",
"0 -210 OFFCURVE",
"0 -210 OFFCURVE",
"0 -210 CURVE",
"-21 -170 LINE SMOOTH",
"-44 -132 OFFCURVE",
"-70 -117 OFFCURVE",
"-99 -117 CURVE SMOOTH",
"-129 -117 OFFCURVE",
"-154 -138 OFFCURVE",
"-154 -171 CURVE SMOOTH",
"-154 -216 OFFCURVE",
"-103 -241 OFFCURVE",
"-49 -241 CURVE SMOOTH"
);
}
);
width = 880.34652;
}
);
leftKerningGroup = LAT_f;
rightKerningGroup = LAT_i;
unicode = FB03;
},
